<svg width="22" height="22" viewBox="0 0 22 22" fill="none" xmlns="http://www.w3.org/2000/svg">
<path fill-rule="evenodd" clip-rule="evenodd" d="M11 2.2C13.633 2.2 15.8911 3.38657 17.3876 5.5H13.2V7.7H20.9V0H18.7V3.59738C16.8024 1.30076 14.0847 0 11 0C4.92487 0 0 4.92487 0 11H2.2C2.2 6.13989 6.13989 2.2 11 2.2ZM11 19.8C8.36702 19.8 6.1089 18.6134 4.61237 16.5H8.8V14.3H1.1V22H3.3V18.4026C5.19762 20.6992 7.91534 22 11 22C17.0751 22 22 17.0751 22 11H19.8C19.8 15.8601 15.8601 19.8 11 19.8Z" fill="#ECEDF1" fill-opacity="0.8"/>
</svg>
