<svg width="30" height="30" viewBox="0 0 30 30" fill="none" xmlns="http://www.w3.org/2000/svg">
<path fill-rule="evenodd" clip-rule="evenodd" d="M4.93537 7.5H25.0641C25.7166 7.5 26.2504 8.03375 26.2504 8.68625V8.81375C26.2504 9.46625 25.7166 10 25.0641 10H4.93537C4.28287 10 3.75037 9.46625 3.75037 8.81375V8.68625C3.75037 8.03375 4.28287 7.5 4.93537 7.5ZM25.0641 13.75H4.93537C4.28287 13.75 3.75037 14.2837 3.75037 14.9362V15.0637C3.75037 15.7162 4.28287 16.25 4.93537 16.25H25.0641C25.7166 16.25 26.2504 15.7162 26.2504 15.0637V14.9362C26.2504 14.2837 25.7166 13.75 25.0641 13.75ZM25.0641 20H4.93537C4.28287 20 3.75037 20.5338 3.75037 21.1863V21.3138C3.75037 21.9663 4.28287 22.5 4.93537 22.5H25.0641C25.7166 22.5 26.2504 21.9663 26.2504 21.3138V21.1863C26.2504 20.5338 25.7166 20 25.0641 20Z" fill="#5965DB"/>
</svg>
