<svg width="19" height="19" viewBox="0 0 19 19" fill="none" xmlns="http://www.w3.org/2000/svg">
<path fill-rule="evenodd" clip-rule="evenodd" d="M16.8889 19L2.11111 19C0.949999 19 0 18.05 0 16.8889L0 2.11111C0 0.949999 0.949999 0 2.11111 0L16.8889 0C18.0606 0 19 0.949999 19 2.11111L19 6.33333H16.8889L16.8889 2.11111L2.11111 2.11111L2.11111 16.8889L16.8889 16.8889V12.6667H19V16.8889C19 18.05 18.0606 19 16.8889 19ZM10.0278 4.22221L11.5161 5.71054L8.79278 8.44443L19 8.44443V10.5555L8.79278 10.5555L11.5161 13.2894L10.0278 14.7778L4.75 9.49999L10.0278 4.22221Z" fill="#08090B" fill-opacity="0.65"/>
</svg>
