<svg width="20" height="20" viewBox="0 0 20 20" fill="none" xmlns="http://www.w3.org/2000/svg">
<path fill-rule="evenodd" clip-rule="evenodd" d="M17.7778 20L2.22222 20C1 20 0 19 0 17.7778L0 2.22222C0 1 1 0 2.22222 0L17.7778 0C19.0111 0 20 1 20 2.22222L20 6.66667H17.7778L17.7778 2.22222L2.22222 2.22222L2.22222 17.7778L17.7778 17.7778V13.3333H20V17.7778C20 19 19.0111 20 17.7778 20ZM10.5556 4.44447L12.1222 6.01114L9.25556 8.88892L20 8.88892V11.1111L9.25556 11.1111L12.1222 13.9889L10.5556 15.5556L5 10L10.5556 4.44447Z" fill="#ECEDF1" fill-opacity="0.55"/>
</svg>
