<svg width="17" height="17" viewBox="0 0 17 17" fill="none" xmlns="http://www.w3.org/2000/svg">
<path fill-rule="evenodd" clip-rule="evenodd" d="M15.1111 17L1.88889 17C0.85 17 0 16.15 0 15.1111L0 1.88889C0 0.85 0.85 0 1.88889 0L15.1111 0C16.1594 0 17 0.85 17 1.88889L17 5.66667H15.1111V1.88889L1.88889 1.88889L1.88889 15.1111L15.1111 15.1111V11.3333H17V15.1111C17 16.15 16.1594 17 15.1111 17ZM8.97222 3.77787L10.3039 5.10954L7.86722 7.55565L17 7.55565V9.44454H7.86722L10.3039 11.8906L8.97222 13.2223L4.25 8.50009L8.97222 3.77787Z" fill="#F8F8FD" fill-opacity="0.65"/>
</svg>
