<svg width="19" height="23" viewBox="0 0 19 23" fill="none" xmlns="http://www.w3.org/2000/svg">
<path fill-rule="evenodd" clip-rule="evenodd" d="M9.27105 23L9.94859 22.4084C15.6461 17.4334 18.5421 13.0894 18.5421 9.27105C18.5421 3.86362 14.3217 0 9.27105 0C4.22044 0 0 3.86362 0 9.27105C0 13.0894 2.89597 17.4334 8.59351 22.4084L9.27105 23ZM9.27104 20.2556C4.43631 15.8983 2.06023 12.2061 2.06023 9.27105C2.06023 5.04407 5.31964 2.06023 9.27104 2.06023C13.2225 2.06023 16.4819 5.04407 16.4819 9.27105C16.4819 12.2061 14.1058 15.8983 9.27104 20.2556ZM9.27107 4.12046C12.1157 4.12046 14.4217 6.42645 14.4217 9.27104C14.4217 12.1156 12.1157 14.4216 9.27107 14.4216C6.42648 14.4216 4.12049 12.1156 4.12049 9.27104C4.12049 6.42645 6.42648 4.12046 9.27107 4.12046ZM6.18069 9.27104C6.18069 7.56428 7.56428 6.18069 9.27104 6.18069C10.9778 6.18069 12.3614 7.56428 12.3614 9.27104C12.3614 10.9778 10.9778 12.3614 9.27104 12.3614C7.56428 12.3614 6.18069 10.9778 6.18069 9.27104Z" fill="#5965DB" fill-opacity="0.95"/>
</svg>
