<svg width="23" height="23" viewBox="0 0 23 23" fill="none" xmlns="http://www.w3.org/2000/svg">
<path fill-rule="evenodd" clip-rule="evenodd" d="M0 11.5C0 17.8513 5.14873 23 11.5 23C17.8513 23 23 17.8513 23 11.5C23 5.14873 17.8513 0 11.5 0C5.14873 0 0 5.14873 0 11.5ZM20.9091 11.5001C20.9091 16.6966 16.6965 20.9092 11.5 20.9092C6.30351 20.9092 2.09092 16.6966 2.09092 11.5001C2.09092 6.30359 6.30351 2.091 11.5 2.091C16.6965 2.091 20.9091 6.30359 20.9091 11.5001ZM11.5335 18.8181C8.02341 18.8181 6.07032 16.9693 6.07032 13.5908V12.5453H16.8483L16.8772 13.561C16.9737 16.9514 15.0549 18.8181 11.5335 18.8181ZM14.7279 14.6363C14.4823 16.0953 13.4957 16.7272 11.5335 16.7272C9.57247 16.7272 8.5537 16.0898 8.25571 14.6363H14.7279ZM13.5909 7.31834H16.7273V9.40924H13.5909V7.31834ZM9.40911 7.31834H6.27275V9.40924H9.40911V7.31834Z" fill="#5965DB" fill-opacity="0.95"/>
</svg>
