<svg width="21" height="21" viewBox="0 0 21 21" fill="none" xmlns="http://www.w3.org/2000/svg">
<path fill-rule="evenodd" clip-rule="evenodd" d="M12.6 4.2C12.6 4.5018 12.6318 4.79616 12.6923 5.07992L7.36779 7.74219C6.59781 6.8585 5.46413 6.30002 4.2 6.30002C1.8804 6.30002 0 8.18043 0 10.5C0 12.8196 1.8804 14.7 4.2 14.7C5.46413 14.7 6.59782 14.1415 7.3678 13.2578L12.6923 15.9201C12.6318 16.2038 12.6 16.4982 12.6 16.8C12.6 19.1196 14.4804 21 16.8 21C19.1196 21 21 19.1196 21 16.8C21 14.4804 19.1196 12.6 16.8 12.6C15.5359 12.6 14.4022 13.1585 13.6322 14.0422L8.30768 11.3799C8.36817 11.0962 8.4 10.8018 8.4 10.5C8.4 10.1982 8.36817 9.90386 8.30768 9.62011L13.6322 6.95784C14.4022 7.84152 15.5359 8.4 16.8 8.4C19.1196 8.4 21 6.5196 21 4.2C21 1.8804 19.1196 0 16.8 0C14.4804 0 12.6 1.8804 12.6 4.2ZM6.3 10.5C6.3 11.6598 5.3598 12.6 4.2 12.6C3.0402 12.6 2.1 11.6598 2.1 10.5C2.1 9.34021 3.0402 8.40001 4.2 8.40001C5.3598 8.40001 6.3 9.34021 6.3 10.5ZM16.8 6.29999C17.9598 6.29999 18.9 5.35979 18.9 4.19999C18.9 3.04019 17.9598 2.09999 16.8 2.09999C15.6402 2.09999 14.7 3.04019 14.7 4.19999C14.7 5.35979 15.6402 6.29999 16.8 6.29999ZM18.9 16.8C18.9 17.9598 17.9598 18.9 16.8 18.9C15.6402 18.9 14.7 17.9598 14.7 16.8C14.7 15.6402 15.6402 14.7 16.8 14.7C17.9598 14.7 18.9 15.6402 18.9 16.8Z" fill="#ECEDF1" fill-opacity="0.8"/>
</svg>
