<svg width="19" height="19" viewBox="0 0 19 19" fill="none" xmlns="http://www.w3.org/2000/svg">
<path fill-rule="evenodd" clip-rule="evenodd" d="M11.4 3.8C11.4 4.07305 11.4288 4.33937 11.4835 4.59609L6.66605 7.00481C5.96941 6.20531 4.94371 5.70004 3.8 5.70004C1.70132 5.70004 0 7.40136 0 9.50004C0 11.5987 1.70132 13.3 3.8 13.3C4.94375 13.3 5.96949 12.7947 6.66613 11.9952L11.4835 14.4039C11.4288 14.6606 11.4 14.9269 11.4 15.2C11.4 17.2987 13.1013 19 15.2 19C17.2987 19 19 17.2987 19 15.2C19 13.1013 17.2987 11.4 15.2 11.4C14.0562 11.4 13.0305 11.9053 12.3339 12.7048L7.51649 10.2961C7.5712 10.0394 7.6 9.77308 7.6 9.50004C7.6 9.22697 7.5712 8.96062 7.51646 8.70387L12.3339 6.29517C13.0305 7.0947 14.0562 7.6 15.2 7.6C17.2987 7.6 19 5.89868 19 3.8C19 1.70132 17.2987 0 15.2 0C13.1013 0 11.4 1.70132 11.4 3.8ZM5.69998 9.50002C5.69998 10.5494 4.84932 11.4 3.79998 11.4C2.75064 11.4 1.89998 10.5494 1.89998 9.50002C1.89998 8.45068 2.75064 7.60002 3.79998 7.60002C4.84932 7.60002 5.69998 8.45068 5.69998 9.50002ZM15.2 5.69998C16.2493 5.69998 17.1 4.84932 17.1 3.79998C17.1 2.75064 16.2493 1.89998 15.2 1.89998C14.1506 1.89998 13.3 2.75064 13.3 3.79998C13.3 4.84932 14.1506 5.69998 15.2 5.69998ZM17.1 15.2C17.1 16.2493 16.2493 17.1 15.2 17.1C14.1506 17.1 13.3 16.2493 13.3 15.2C13.3 14.1506 14.1506 13.3 15.2 13.3C16.2493 13.3 17.1 14.1506 17.1 15.2Z" fill="#08090B" fill-opacity="0.75"/>
</svg>
