<svg width="21" height="27" viewBox="0 0 21 27" fill="none" xmlns="http://www.w3.org/2000/svg">
<path fill-rule="evenodd" clip-rule="evenodd" d="M21 13.104C21 8.09315 19.8044 3.48643 17.8001 0L15.284 1.25422C17.0628 4.27675 18.1916 8.44957 18.1916 13.104C18.1916 17.7584 17.0628 21.9313 15.284 24.9538L17.8001 26.208C19.8044 22.7216 21 18.1149 21 13.104ZM15.3832 13.1039C15.3832 9.1406 14.3541 5.47412 12.6154 2.58439L10.0959 3.84028C11.63 6.29732 12.5748 9.53098 12.5748 13.1039C12.5748 16.6769 11.63 19.9106 10.0959 22.3676L12.6154 23.6235C14.3541 20.7338 15.3832 17.0673 15.3832 13.1039ZM7.51622 5.12631C8.93656 7.3938 9.76646 10.1459 9.76646 13.1041C9.76646 16.0622 8.93656 18.8143 7.51622 21.0818L4.99136 19.8232C6.22434 17.9559 6.95808 15.6324 6.95808 13.1041C6.95808 10.5757 6.22434 8.25223 4.99136 6.38489L7.51622 5.12631ZM4.14969 13.104C4.14969 11.1017 3.5612 9.22956 2.53205 7.61079L0 8.87295C0.853622 10.1199 1.34131 11.5679 1.34131 13.104C1.34131 14.6402 0.853622 16.0881 0 17.3351L2.53205 18.5973C3.5612 16.9785 4.14969 15.1064 4.14969 13.104Z" fill="#ECEDF1" fill-opacity="0.65"/>
</svg>
