<svg width="24" height="22" viewBox="0 0 24 22" fill="none" xmlns="http://www.w3.org/2000/svg">
<path d="M5.2531 15.75L5.76735 14.8924L5.52993 14.75H5.2531V15.75ZM5.2531 6.25V7.25H5.52993L5.76735 7.10764L5.2531 6.25ZM13.1749 1.5H14.1749C14.1749 1.13978 13.9812 0.807396 13.6678 0.629871C13.3543 0.452346 12.9696 0.457116 12.6607 0.642359L13.1749 1.5ZM13.1749 20.5L12.6607 21.3576C12.9696 21.5429 13.3543 21.5477 13.6678 21.3701C13.9812 21.1926 14.1749 20.8602 14.1749 20.5H13.1749ZM21.8036 5.54266L21.0963 4.83579L19.6825 6.25046L20.3899 6.95734L21.8036 5.54266ZM20.3899 15.0427L19.6825 15.7495L21.0963 17.1642L21.8036 16.4573L20.3899 15.0427ZM5.2531 14.75H2.08437V16.75H5.2531V14.75ZM2.08437 14.75C1.76081 14.75 1.5 14.4887 1.5 14.1667H-0.5C-0.5 15.5958 0.658778 16.75 2.08437 16.75V14.75ZM1.5 14.1667V7.83333H-0.5V14.1667H1.5ZM1.5 7.83333C1.5 7.5113 1.76081 7.25 2.08437 7.25V5.25C0.658778 5.25 -0.5 6.4042 -0.5 7.83333H1.5ZM2.08437 7.25H5.2531V5.25H2.08437V7.25ZM5.76735 7.10764L13.6892 2.35764L12.6607 0.642359L4.73885 5.39236L5.76735 7.10764ZM12.1749 1.5V20.5H14.1749V1.5H12.1749ZM13.6892 19.6424L5.76735 14.8924L4.73885 16.6076L12.6607 21.3576L13.6892 19.6424ZM21.0968 6.25C20.3899 6.95734 20.3895 6.957 20.3892 6.95666C20.3891 6.95656 20.3888 6.95623 20.3886 6.95602C20.3882 6.95561 20.3878 6.95522 20.3874 6.95485C20.3867 6.95411 20.386 6.95346 20.3855 6.95291C20.3844 6.9518 20.3837 6.95105 20.3833 6.95067C20.3825 6.9499 20.3832 6.95059 20.3852 6.95273C20.3893 6.95702 20.3986 6.9671 20.4125 6.98297C20.4403 7.01472 20.4862 7.06947 20.5445 7.14713C20.6612 7.30258 20.8264 7.54864 20.9946 7.88495C21.3295 8.55429 21.6811 9.58955 21.6811 11H23.6811C23.6811 9.24378 23.2405 7.90404 22.7833 6.99005C22.5554 6.5347 22.3245 6.187 22.1441 5.94662C22.0539 5.82637 21.976 5.73267 21.9172 5.66547C21.8878 5.63186 21.8631 5.60483 21.8439 5.58438C21.8343 5.57415 21.8261 5.56556 21.8193 5.55861C21.8159 5.55513 21.8129 5.55207 21.8103 5.54941C21.809 5.54808 21.8078 5.54685 21.8067 5.54573C21.8061 5.54517 21.8056 5.54463 21.8051 5.54412C21.8048 5.54386 21.8045 5.5435 21.8043 5.54337C21.804 5.54301 21.8036 5.54266 21.0968 6.25ZM21.6811 11C21.6811 12.4104 21.3295 13.4457 20.9946 14.1151C20.8264 14.4514 20.6612 14.6974 20.5445 14.8529C20.4862 14.9305 20.4403 14.9853 20.4125 15.017C20.3986 15.0329 20.3893 15.043 20.3852 15.0473C20.3832 15.0494 20.3825 15.0501 20.3833 15.0493C20.3837 15.0489 20.3844 15.0482 20.3855 15.0471C20.386 15.0465 20.3867 15.0459 20.3874 15.0452C20.3878 15.0448 20.3882 15.0444 20.3886 15.044C20.3888 15.0438 20.3891 15.0434 20.3892 15.0433C20.3895 15.043 20.3899 15.0427 21.0968 15.75C21.8036 16.4573 21.804 16.457 21.8043 16.4566C21.8045 16.4565 21.8048 16.4561 21.8051 16.4559C21.8056 16.4554 21.8061 16.4548 21.8067 16.4543C21.8078 16.4531 21.809 16.4519 21.8103 16.4506C21.8129 16.4479 21.8159 16.4449 21.8193 16.4414C21.8261 16.4344 21.8343 16.4259 21.8439 16.4156C21.8631 16.3952 21.8878 16.3681 21.9172 16.3345C21.976 16.2673 22.0539 16.1736 22.1441 16.0534C22.3245 15.813 22.5554 15.4653 22.7833 15.0099C23.2405 14.096 23.6811 12.7562 23.6811 11H21.6811Z" fill="black"/>
</svg>
