<svg width="28" height="24" viewBox="0 0 28 24" fill="none" xmlns="http://www.w3.org/2000/svg">
<path d="M6.50358 17.5L7.01783 16.6424L6.78041 16.5H6.50358V17.5ZM6.50358 6.5V7.5H6.78041L7.01783 7.35764L6.50358 6.5ZM15.6762 1H16.6762C16.6762 0.639779 16.4825 0.307396 16.169 0.129871C15.8556 -0.0476544 15.4709 -0.0428839 15.162 0.142359L15.6762 1ZM15.6762 23L15.162 23.8576C15.4709 24.0429 15.8556 24.0477 16.169 23.8701C16.4825 23.6926 16.6762 23.3602 16.6762 23H15.6762ZM21.1271 8.70032L20.4197 7.99344L19.006 9.40811L19.7133 10.115L21.1271 8.70032ZM24.9014 15.2997L25.6087 16.0066L27.0225 14.5919L26.3151 13.885L24.9014 15.2997ZM26.3156 10.115L27.0229 9.40811L25.6091 7.99344L24.9018 8.70032L26.3156 10.115ZM19.7138 13.885L19.0064 14.5919L20.4202 16.0066L21.1275 15.2997L19.7138 13.885ZM6.50358 16.5H2.83453V18.5H6.50358V16.5ZM2.83453 16.5C2.37176 16.5 2 16.1276 2 15.6666H0C0 17.2333 1.26831 18.5 2.83453 18.5V16.5ZM2 15.6666V8.33318H0V15.6666H2ZM2 8.33318C2 7.87236 2.3716 7.5 2.83453 7.5V5.5C1.26847 5.5 0 6.76635 0 8.33318H2ZM2.83453 7.5H6.50358V5.5H2.83453V7.5ZM7.01783 7.35764L16.1905 1.85764L15.162 0.142359L5.98933 5.64236L7.01783 7.35764ZM14.6762 1V23H16.6762V1H14.6762ZM16.1905 22.1424L7.01783 16.6424L5.98933 18.3576L15.162 23.8576L16.1905 22.1424ZM19.7133 10.115L24.9014 15.2997L26.3151 13.885L21.1271 8.70032L19.7133 10.115ZM24.9018 8.70032L19.7138 13.885L21.1275 15.2997L26.3156 10.115L24.9018 8.70032Z" fill="#ECEDF1" fill-opacity="0.8"/>
</svg>
