<svg width="25" height="22" viewBox="0 0 25 22" fill="none" xmlns="http://www.w3.org/2000/svg">
<path d="M6.25309 15.75L6.76734 14.8924L6.52992 14.75H6.25309V15.75ZM6.25309 6.25V7.25H6.52992L6.76734 7.10764L6.25309 6.25ZM14.1749 1.5H15.1749C15.1749 1.13978 14.9812 0.807396 14.6677 0.629871C14.3543 0.452346 13.9696 0.457116 13.6607 0.642359L14.1749 1.5ZM14.1749 20.5L13.6607 21.3576C13.9696 21.5429 14.3543 21.5477 14.6677 21.3701C14.9812 21.1926 15.1749 20.8602 15.1749 20.5H14.1749ZM18.9789 8.05382L18.2715 7.34694L16.8578 8.76161L17.5651 9.46849L18.9789 8.05382ZM22.0457 13.9462L22.753 14.6531L24.1668 13.2384L23.4595 12.5315L22.0457 13.9462ZM23.4598 9.46849L24.1672 8.76161L22.7534 7.34694L22.0461 8.05382L23.4598 9.46849ZM17.5655 12.5315L16.8582 13.2384L18.2719 14.6531L18.9793 13.9462L17.5655 12.5315ZM6.25309 14.75H3.08436V16.75H6.25309V14.75ZM3.08436 14.75C2.75993 14.75 2.5 14.4893 2.5 14.1666H0.5C0.5 15.595 1.65649 16.75 3.08436 16.75V14.75ZM2.5 14.1666V7.8332H0.5V14.1666H2.5ZM2.5 7.8332C2.5 7.51063 2.75978 7.25 3.08436 7.25V5.25C1.65665 5.25 0.5 6.40462 0.5 7.8332H2.5ZM3.08436 7.25H6.25309V5.25H3.08436V7.25ZM6.76734 7.10764L14.6892 2.35764L13.6607 0.642359L5.73884 5.39236L6.76734 7.10764ZM13.1749 1.5V20.5H15.1749V1.5H13.1749ZM14.6892 19.6424L6.76734 14.8924L5.73884 16.6076L13.6607 21.3576L14.6892 19.6424ZM17.5651 9.46849L22.0457 13.9462L23.4595 12.5315L18.9789 8.05382L17.5651 9.46849ZM22.0461 8.05382L17.5655 12.5315L18.9793 13.9462L23.4598 9.46849L22.0461 8.05382Z" fill="black"/>
</svg>
