<svg width="22" height="20" viewBox="0 0 22 20" fill="none" xmlns="http://www.w3.org/2000/svg">
<path d="M5.25277 14.25L5.63846 13.6068L5.46039 13.5H5.25277V14.25ZM5.25277 5.75V6.5H5.46039L5.63846 6.39323L5.25277 5.75ZM12.3407 1.5H13.0907C13.0907 1.22983 12.9454 0.980547 12.7103 0.847403C12.4753 0.714259 12.1867 0.717837 11.955 0.856769L12.3407 1.5ZM12.3407 18.5L11.955 19.1432C12.1867 19.2822 12.4753 19.2857 12.7103 19.1526C12.9454 19.0195 13.0907 18.7702 13.0907 18.5H12.3407ZM19.9588 5.2195L19.4283 4.68934L18.368 5.75035L18.8985 6.2805L19.9588 5.2195ZM18.8985 13.7195L18.368 14.2497L19.4283 15.3107L19.9588 14.7805L18.8985 13.7195ZM5.25277 13.5H2.41759V15H5.25277V13.5ZM2.41759 13.5C2.04834 13.5 1.75 13.2016 1.75 12.8333H0.25C0.25 14.0319 1.22182 15 2.41759 15V13.5ZM1.75 12.8333V7.16667H0.25V12.8333H1.75ZM1.75 7.16667C1.75 6.79841 2.04834 6.5 2.41759 6.5V5C1.22182 5 0.25 5.96809 0.25 7.16667H1.75ZM2.41759 6.5H5.25277V5H2.41759V6.5ZM5.63846 6.39323L12.7264 2.14323L11.955 0.856769L4.86709 5.10677L5.63846 6.39323ZM11.5907 1.5V18.5H13.0907V1.5H11.5907ZM12.7264 17.8568L5.63846 13.6068L4.86709 14.8932L11.955 19.1432L12.7264 17.8568ZM19.4287 5.75C18.8985 6.2805 18.8983 6.28025 18.898 6.28C18.8979 6.27992 18.8977 6.27968 18.8976 6.27953C18.8972 6.27923 18.897 6.27894 18.8967 6.27868C18.8962 6.27815 18.8957 6.27771 18.8954 6.27735C18.8947 6.27663 18.8943 6.27624 18.8942 6.27617C18.8941 6.27605 18.8953 6.27723 18.8976 6.27974C18.9023 6.28474 18.9118 6.29499 18.9253 6.31047C18.9524 6.34145 18.9959 6.39324 19.0503 6.46581C19.1593 6.61105 19.3119 6.83856 19.4667 7.14808C19.7752 7.76468 20.0963 8.713 20.0963 10H21.5963C21.5963 8.45367 21.2085 7.27699 20.8082 6.47691C20.6087 6.07811 20.4068 5.77436 20.25 5.56544C20.1716 5.46092 20.1043 5.37991 20.0539 5.32235C20.0287 5.29355 20.0077 5.2706 19.9916 5.25347C19.9835 5.2449 19.9767 5.23779 19.9713 5.23213C19.9685 5.2293 19.9661 5.22683 19.964 5.22473C19.963 5.22367 19.962 5.22271 19.9612 5.22184C19.9607 5.2214 19.9603 5.22099 19.9599 5.2206C19.9597 5.22041 19.9595 5.22013 19.9594 5.22003C19.9591 5.21976 19.9588 5.2195 19.4287 5.75ZM20.0963 10C20.0963 11.287 19.7752 12.2353 19.4667 12.8519C19.3119 13.1614 19.1593 13.3889 19.0503 13.5342C18.9959 13.6068 18.9524 13.6586 18.9253 13.6895C18.9118 13.705 18.9023 13.7153 18.8976 13.7203C18.8953 13.7228 18.8941 13.724 18.8942 13.7238C18.8943 13.7238 18.8947 13.7234 18.8954 13.7227C18.8957 13.7223 18.8962 13.7218 18.8967 13.7213C18.897 13.7211 18.8972 13.7208 18.8975 13.7205C18.8977 13.7203 18.8979 13.7201 18.898 13.72C18.8983 13.7198 18.8985 13.7195 19.4287 14.25C19.9588 14.7805 19.9591 14.7802 19.9594 14.78C19.9595 14.7799 19.9597 14.7796 19.9599 14.7794C19.9603 14.779 19.9607 14.7786 19.9612 14.7782C19.962 14.7773 19.963 14.7763 19.964 14.7753C19.9661 14.7732 19.9685 14.7707 19.9713 14.7679C19.9767 14.7622 19.9836 14.7551 19.9916 14.7465C20.0077 14.7294 20.0287 14.7064 20.0539 14.6777C20.1043 14.6201 20.1716 14.5391 20.25 14.4346C20.4068 14.2256 20.6087 13.9219 20.8082 13.5231C21.2085 12.723 21.5963 11.5463 21.5963 10H20.0963Z" fill="#F8F8FD" fill-opacity="0.85"/>
</svg>
