<svg width="28" height="24" viewBox="0 0 28 24" fill="none" xmlns="http://www.w3.org/2000/svg">
<path d="M6.50359 17.5L7.01784 16.6424L6.78042 16.5H6.50359V17.5ZM6.50359 6.5V7.5H6.78042L7.01784 7.35764L6.50359 6.5ZM15.6762 1H16.6762C16.6762 0.639779 16.4825 0.307396 16.1691 0.129871C15.8556 -0.0476544 15.4709 -0.042884 15.162 0.142359L15.6762 1ZM15.6762 23L15.162 23.8576C15.4709 24.0429 15.8556 24.0477 16.1691 23.8701C16.4825 23.6926 16.6762 23.3602 16.6762 23H15.6762ZM25.5558 5.79266L24.8484 5.08579L23.4347 6.50046L24.142 7.20734L25.5558 5.79266ZM24.142 16.7927L23.4347 17.4995L24.8484 18.9142L25.5558 18.2073L24.142 16.7927ZM6.50359 16.5H2.83453V18.5H6.50359V16.5ZM2.83453 16.5C2.37289 16.5 2 16.1269 2 15.6667H0C0 17.2341 1.27085 18.5 2.83453 18.5V16.5ZM2 15.6667V8.33333H0V15.6667H2ZM2 8.33333C2 7.87305 2.37289 7.5 2.83453 7.5V5.5C1.27085 5.5 0 6.76595 0 8.33333H2ZM2.83453 7.5H6.50359V5.5H2.83453V7.5ZM7.01784 7.35764L16.1905 1.85764L15.162 0.142359L5.98934 5.64236L7.01784 7.35764ZM14.6762 1V23H16.6762V1H14.6762ZM16.1905 22.1424L7.01784 16.6424L5.98934 18.3576L15.162 23.8576L16.1905 22.1424ZM24.8489 6.5C24.142 7.20734 24.1417 7.207 24.1413 7.20667C24.1412 7.20657 24.1409 7.20624 24.1407 7.20604C24.1403 7.20563 24.1399 7.20525 24.1396 7.2049C24.1389 7.20419 24.1383 7.20359 24.1378 7.20309C24.1368 7.2021 24.1363 7.20154 24.1361 7.2014C24.1359 7.20112 24.1372 7.20254 24.1402 7.20566C24.146 7.2119 24.158 7.22491 24.1753 7.24468C24.21 7.28425 24.2657 7.35072 24.3357 7.444C24.4758 7.63071 24.6723 7.92364 24.8718 8.32245C25.2693 9.11679 25.6834 10.3395 25.6834 12H27.6834C27.6834 9.99378 27.1803 8.46654 26.6605 7.42755C26.4014 6.9097 26.1392 6.51512 25.9353 6.2435C25.8334 6.10762 25.7458 6.0022 25.6801 5.92719C25.6472 5.88967 25.6198 5.85971 25.5988 5.83731C25.5883 5.8261 25.5794 5.81678 25.5722 5.80934C25.5686 5.80562 25.5654 5.80237 25.5626 5.79959C25.5613 5.7982 25.56 5.79693 25.5589 5.79578C25.5583 5.7952 25.5577 5.79465 25.5572 5.79413C25.557 5.79387 25.5566 5.7935 25.5565 5.79337C25.5561 5.79301 25.5558 5.79266 24.8489 6.5ZM25.6834 12C25.6834 13.6604 25.2693 14.8832 24.8718 15.6776C24.6723 16.0764 24.4758 16.3693 24.3357 16.556C24.2657 16.6493 24.21 16.7157 24.1753 16.7553C24.158 16.7751 24.146 16.7881 24.1402 16.7943C24.1372 16.7975 24.1359 16.7989 24.1361 16.7986C24.1363 16.7985 24.1368 16.7979 24.1378 16.7969C24.1383 16.7964 24.1389 16.7958 24.1396 16.7951C24.1399 16.7948 24.1403 16.7944 24.1407 16.794C24.1409 16.7938 24.1412 16.7934 24.1413 16.7933C24.1417 16.793 24.142 16.7927 24.8489 17.5C25.5558 18.2073 25.5561 18.207 25.5565 18.2066C25.5566 18.2065 25.557 18.2061 25.5572 18.2059C25.5577 18.2053 25.5583 18.2048 25.5589 18.2042C25.56 18.2031 25.5613 18.2018 25.5626 18.2004C25.5654 18.1976 25.5686 18.1944 25.5722 18.1907C25.5794 18.1832 25.5883 18.1739 25.5988 18.1627C25.6198 18.1403 25.6472 18.1103 25.6801 18.0728C25.7458 17.9978 25.8334 17.8924 25.9353 17.7565C26.1392 17.4849 26.4014 17.0903 26.6605 16.5724C27.1803 15.5335 27.6834 14.0062 27.6834 12H25.6834Z" fill="#ECEDF1" fill-opacity="0.8"/>
</svg>
