<svg width="22" height="19" viewBox="0 0 22 19" fill="none" xmlns="http://www.w3.org/2000/svg">
<path d="M5.43933 13.75L5.8129 13.0997L5.63941 13H5.43933V13.75ZM5.43933 5.25V6H5.63941L5.8129 5.90035L5.43933 5.25ZM12.8382 1H13.5882C13.5882 0.732347 13.4456 0.484978 13.2139 0.350895C12.9823 0.216813 12.6967 0.21634 12.4646 0.349655L12.8382 1ZM12.8382 18L12.4646 18.6503C12.6967 18.7837 12.9823 18.7832 13.2139 18.6491C13.4456 18.515 13.5882 18.2677 13.5882 18H12.8382ZM17.1835 6.95507L16.6417 6.43642L15.6044 7.51993L16.1462 8.03858L17.1835 6.95507ZM20.331 12.0449L20.8727 12.5636L21.91 11.4801L21.3683 10.9614L20.331 12.0449ZM21.3687 8.03858L21.9104 7.51993L20.8731 6.43642L20.3313 6.95507L21.3687 8.03858ZM16.1465 10.9614L15.6048 11.4801L16.6421 12.5636L17.1838 12.0449L16.1465 10.9614ZM5.43933 13H2.47978V14.5H5.43933V13ZM2.47978 13C2.04457 13 1.75 12.672 1.75 12.3333H0.25C0.25 13.5613 1.27835 14.5 2.47978 14.5V13ZM1.75 12.3333V6.66655H0.25V12.3333H1.75ZM1.75 6.66655C1.75 6.3279 2.04445 6 2.47978 6V4.5C1.27847 4.5 0.25 5.43837 0.25 6.66655H1.75ZM2.47978 6H5.43933V4.5H2.47978V6ZM5.8129 5.90035L13.2118 1.65035L12.4646 0.349655L5.06577 4.59965L5.8129 5.90035ZM12.0882 1V18H13.5882V1H12.0882ZM13.2118 17.3497L5.8129 13.0997L5.06577 14.4003L12.4646 18.6503L13.2118 17.3497ZM16.1462 8.03858L20.331 12.0449L21.3683 10.9614L17.1835 6.95507L16.1462 8.03858ZM20.3313 6.95507L16.1465 10.9614L17.1838 12.0449L21.3687 8.03858L20.3313 6.95507Z" fill="#F8F8FD" fill-opacity="0.85"/>
</svg>
