<svg width="23" height="23" viewBox="0 0 23 23" fill="none" xmlns="http://www.w3.org/2000/svg">
<path d="M16 21.9863V22.9863H17V21.9863H16ZM1 21.9863H0V22.9863H1V21.9863ZM22 22V23H23V22H22ZM12 5.49707C12 7.42805 10.4338 8.99413 8.5 8.99413V10.9941C11.5372 10.9941 14 8.53385 14 5.49707H12ZM8.5 8.99413C6.56617 8.99413 5 7.42805 5 5.49707H3C3 8.53385 5.46283 10.9941 8.5 10.9941V8.99413ZM5 5.49707C5 3.56609 6.56617 2 8.5 2V0C5.46283 0 3 2.46029 3 5.49707H5ZM8.5 2C10.4338 2 12 3.56609 12 5.49707H14C14 2.46029 11.5372 0 8.5 0V2ZM16 20.9863H1V22.9863H16V20.9863ZM2 21.9863C2 21.9842 2 21.9822 2 21.9801C2 21.978 2 21.9759 2 21.9738C2 21.9718 2 21.9697 2 21.9676C2 21.9655 2 21.9634 2 21.9614C2 21.9593 2 21.9572 2 21.9551C2 21.9531 2 21.951 2 21.9489C2 21.9468 2 21.9447 2 21.9427C2 21.9406 2 21.9385 2 21.9364C2 21.9344 2 21.9323 2 21.9302C2 21.9281 2 21.9261 2 21.924C2 21.9219 2 21.9198 2 21.9177C2 21.9157 2 21.9136 2 21.9115C2 21.9094 2 21.9074 2 21.9053C2 21.9032 2 21.9011 2 21.8991C2 21.897 2 21.8949 2 21.8928C2 21.8908 2 21.8887 2 21.8866C2 21.8846 2 21.8825 2 21.8804C2 21.8783 2 21.8763 2 21.8742C2 21.8721 2 21.87 2 21.868C2 21.8659 2 21.8638 2 21.8617C2 21.8597 2 21.8576 2 21.8555C2 21.8535 2 21.8514 2 21.8493C2 21.8472 2 21.8452 2 21.8431C2 21.841 2 21.839 2 21.8369C2 21.8348 2 21.8328 2 21.8307C2 21.8286 2 21.8265 2 21.8245C2 21.8224 2 21.8203 2 21.8183C2 21.8162 2 21.8141 2 21.8121C2 21.81 2 21.8079 2 21.8058C2 21.8038 2 21.8017 2 21.7996C2 21.7976 2 21.7955 2 21.7934C2 21.7914 2 21.7893 2 21.7872C2 21.7852 2 21.7831 2 21.781C2 21.779 2 21.7769 2 21.7748C2 21.7728 2 21.7707 2 21.7686C2 21.7666 2 21.7645 2 21.7624C2 21.7604 2 21.7583 2 21.7562C2 21.7542 2 21.7521 2 21.7501C2 21.748 2 21.7459 2 21.7439C2 21.7418 2 21.7397 2 21.7377C2 21.7356 2 21.7335 2 21.7315C2 21.7294 2 21.7273 2 21.7253C2 21.7232 2 21.7212 2 21.7191C2 21.717 2 21.715 2 21.7129C2 21.7108 2 21.7088 2 21.7067C2 21.7047 2 21.7026 2 21.7005C2 21.6985 2 21.6964 2 21.6944C2 21.6923 2 21.6902 2 21.6882C2 21.6861 2 21.6841 2 21.682C2 21.6799 2 21.6779 2 21.6758C2 21.6738 2 21.6717 2 21.6696C2 21.6676 2 21.6655 2 21.6635C2 21.6614 2 21.6593 2 21.6573C2 21.6552 2 21.6532 2 21.6511C2 21.6491 2 21.647 2 21.6449C2 21.6429 2 21.6408 2 21.6388C2 21.6367 2 21.6346 2 21.6326C2 21.6305 2 21.6285 2 21.6264C2 21.6244 2 21.6223 2 21.6203C2 21.6182 2 21.6161 2 21.6141C2 21.612 2 21.61 2 21.6079C2 21.6059 2 21.6038 2 21.6018C2 21.5997 2 21.5977 2 21.5956C2 21.5935 2 21.5915 2 21.5894C2 21.5874 2 21.5853 2 21.5833C2 21.5812 2 21.5792 2 21.5771C2 21.5751 2 21.573 2 21.571C2 21.5689 2 21.5669 2 21.5648C2 21.5628 2 21.5607 2 21.5586C2 21.5566 2 21.5545 2 21.5525C2 21.5504 2 21.5484 2 21.5463C2 21.5443 2 21.5422 2 21.5402C2 21.5381 2 21.5361 2 21.534C2 21.532 2 21.5299 2 21.5279C2 21.5258 2 21.5238 2 21.5217C2 21.5197 2 21.5177 2 21.5156C2 21.5136 2 21.5115 2 21.5095C2 21.5074 2 21.5054 2 21.5033C2 21.5013 2 21.4992 2 21.4972C2 21.4951 2 21.4931 2 21.491C2 21.489 2 21.4869 2 21.4849C2 21.4828 2 21.4808 2 21.4788C2 21.4767 2 21.4747 2 21.4726C2 21.4706 2 21.4685 2 21.4665C2 21.4644 2 21.4624 2 21.4604C2 21.4583 2 21.4563 2 21.4542C2 21.4522 2 21.4501 2 21.4481C2 21.446 2 21.444 2 21.442C2 21.4399 2 21.4379 2 21.4358C2 21.4338 2 21.4317 2 21.4297C2 21.4277 2 21.4256 2 21.4236C2 21.4215 2 21.4195 2 21.4175C2 21.4154 2 21.4134 2 21.4113C2 21.4093 2 21.4073 2 21.4052C2 21.4032 2 21.4011 2 21.3991C2 21.3971 2 21.395 2 21.393C2 21.3909 2 21.3889 2 21.3869C2 21.3848 2 21.3828 2 21.3807C2 21.3787 2 21.3767 2 21.3746C2 21.3726 2 21.3706 2 21.3685C2 21.3665 2 21.3644 2 21.3624C2 21.3604 2 21.3583 2 21.3563C2 21.3543 2 21.3522 2 21.3502C2 21.3482 2 21.3461 2 21.3441C2 21.342 2 21.34 2 21.338C2 21.3359 2 21.3339 2 21.3319C2 21.3298 2 21.3278 2 21.3258C2 21.3237 2 21.3217 2 21.3197C2 21.3176 2 21.3156 2 21.3136C2 21.3115 2 21.3095 2 21.3075C2 21.3054 2 21.3034 2 21.3014C2 21.2993 2 21.2973 2 21.2953C2 21.2932 2 21.2912 2 21.2892C2 21.2871 2 21.2851 2 21.2831C2 21.2811 2 21.279 2 21.277C2 21.275 2 21.2729 2 21.2709C2 21.2689 2 21.2668 2 21.2648C2 21.2628 2 21.2608 2 21.2587C2 21.2567 2 21.2547 2 21.2526C2 21.2506 2 21.2486 2 21.2466C2 21.2445 2 21.2425 2 21.2405C2 21.2384 2 21.2364 2 21.2344C2 21.2324 2 21.2303 2 21.2283C2 21.2263 2 21.2243 2 21.2222C2 21.2202 2 21.2182 2 21.2161C2 21.2141 2 21.2121 2 21.2101C2 21.208 2 21.206 2 21.204C2 21.202 2 21.1999 2 21.1979C2 21.1959 2 21.1939 2 21.1919C2 21.1898 2 21.1878 2 21.1858C2 21.1838 2 21.1817 2 21.1797C2 21.1777 2 21.1757 2 21.1736C2 21.1716 2 21.1696 2 21.1676C2 21.1656 2 21.1635 2 21.1615C2 21.1595 2 21.1575 2 21.1554C2 21.1534 2 21.1514 2 21.1494C2 21.1474 2 21.1453 2 21.1433C2 21.1413 2 21.1393 2 21.1373C2 21.1352 2 21.1332 2 21.1312C2 21.1292 2 21.1272 2 21.1252C2 21.1231 2 21.1211 2 21.1191C2 21.1171 2 21.1151 2 21.113C2 21.111 2 21.109 2 21.107C2 21.105 2 21.103 2 21.1009C2 21.0989 2 21.0969 2 21.0949C2 21.0929 2 21.0909 2 21.0888C2 21.0868 2 21.0848 2 21.0828C2 21.0808 2 21.0788 2 21.0768C2 21.0747 2 21.0727 2 21.0707C2 21.0687 2 21.0667 2 21.0647C2 21.0627 2 21.0606 2 21.0586C2 21.0566 2 21.0546 2 21.0526C2 21.0506 2 21.0486 2 21.0466C2 21.0445 2 21.0425 2 21.0405C2 21.0385 2 21.0365 2 21.0345C2 21.0325 2 21.0305 2 21.0285C2 21.0264 2 21.0244 2 21.0224C2 21.0204 2 21.0184 2 21.0164C2 21.0144 2 21.0124 2 21.0104C2 21.0084 2 21.0064 2 21.0043C2 21.0023 2 21.0003 2 20.9983C2 20.9963 2 20.9943 2 20.9923C2 20.9903 2 20.9883 2 20.9863C2 20.9843 2 20.9823 2 20.9803C2 20.9782 2 20.9762 2 20.9742C2 20.9722 2 20.9702 2 20.9682C2 20.9662 2 20.9642 2 20.9622C2 20.9602 2 20.9582 2 20.9562C2 20.9542 2 20.9522 2 20.9502C2 20.9482 2 20.9462 2 20.9442C2 20.9422 2 20.9402 2 20.9382C2 20.9361 2 20.9341 2 20.9321C2 20.9301 2 20.9281 2 20.9261C2 20.9241 2 20.9221 2 20.9201C2 20.9181 2 20.9161 2 20.9141C2 20.9121 2 20.9101 2 20.9081C2 20.9061 2 20.9041 2 20.9021C2 20.9001 2 20.8981 2 20.8961C2 20.8941 2 20.8921 2 20.8901C2 20.8881 2 20.8861 2 20.8841C2 20.8821 2 20.8801 2 20.8781C2 20.8761 2 20.8741 2 20.8721C2 20.8701 2 20.8681 2 20.8662C2 20.8642 2 20.8622 2 20.8602C2 20.8582 2 20.8562 2 20.8542C2 20.8522 2 20.8502 2 20.8482C2 20.8462 2 20.8442 2 20.8422C2 20.8402 2 20.8382 2 20.8362C2 20.8342 2 20.8322 2 20.8302C2 20.8282 2 20.8262 2 20.8243C2 20.8223 2 20.8203 2 20.8183C2 20.8163 2 20.8143 2 20.8123C2 20.8103 2 20.8083 2 20.8063C2 20.8043 2 20.8023 2 20.8003C2 20.7984 2 20.7964 2 20.7944C2 20.7924 2 20.7904 2 20.7884C2 20.7864 2 20.7844 2 20.7824C2 20.7804 2 20.7785 2 20.7765C2 20.7745 2 20.7725 2 20.7705C2 20.7685 2 20.7665 2 20.7645C2 20.7625 2 20.7606 2 20.7586C2 20.7566 2 20.7546 2 20.7526C2 20.7506 2 20.7486 2 20.7466C2 20.7447 2 20.7427 2 20.7407C2 20.7387 2 20.7367 2 20.7347C2 20.7327 2 20.7308 2 20.7288C2 20.7268 2 20.7248 2 20.7228C2 20.7208 2 20.7189 2 20.7169C2 20.7149 2 20.7129 2 20.7109C2 20.7089 2 20.707 2 20.705C2 20.703 2 20.701 2 20.699C2 20.697 2 20.6951 2 20.6931C2 20.6911 2 20.6891 2 20.6871C2 20.6852 2 20.6832 2 20.6812C2 20.6792 2 20.6772 2 20.6752C2 20.6733 2 20.6713 2 20.6693C2 20.6673 2 20.6654 2 20.6634C2 20.6614 2 20.6594 2 20.6574C2 20.6555 2 20.6535 2 20.6515C2 20.6495 2 20.6475 2 20.6456C2 20.6436 2 20.6416 2 20.6396C2 20.6377 2 20.6357 2 20.6337C2 20.6317 2 20.6298 2 20.6278C2 20.6258 2 20.6238 2 20.6219C2 20.6199 2 20.6179 2 20.6159C2 20.614 2 20.612 2 20.61C2 20.608 2 20.6061 2 20.6041C2 20.6021 2 20.6001 2 20.5982C2 20.5962 2 20.5942 2 20.5922C2 20.5903 2 20.5883 2 20.5863C2 20.5844 2 20.5824 2 20.5804C2 20.5784 2 20.5765 2 20.5745C2 20.5725 2 20.5706 2 20.5686C2 20.5666 2 20.5646 2 20.5627C2 20.5607 2 20.5587 2 20.5568C2 20.5548 2 20.5528 2 20.5509C2 20.5489 2 20.5469 2 20.545C2 20.543 2 20.541 2 20.5391C2 20.5371 2 20.5351 2 20.5331C2 20.5312 2 20.5292 2 20.5272C2 20.5253 2 20.5233 2 20.5213C2 20.5194 2 20.5174 2 20.5155C2 20.5135 2 20.5115 2 20.5096C2 20.5076 2 20.5056 2 20.5037C2 20.5017 2 20.4997 2 20.4978C2 20.4958 2 20.4938 2 20.4919C2 20.4899 2 20.488 2 20.486C2 20.484 2 20.4821 2 20.4801C2 20.4781 2 20.4762 2 20.4742C2 20.4723 2 20.4703 2 20.4683C2 20.4664 2 20.4644 2 20.4625C2 20.4605 2 20.4585 2 20.4566C2 20.4546 2 20.4527 2 20.4507C2 20.4487 2 20.4468 2 20.4448C2 20.4429 2 20.4409 2 20.4389C2 20.437 2 20.435 2 20.4331C2 20.4311 2 20.4292 2 20.4272C2 20.4252 2 20.4233 2 20.4213C2 20.4194 2 20.4174 2 20.4155C2 20.4135 2 20.4115 2 20.4096C2 20.4076 2 20.4057 2 20.4037C2 20.4018 2 20.3998 2 20.3979C2 20.3959 2 20.394 2 20.392C2 20.39 2 20.3881 2 20.3861C2 20.3842 2 20.3822 2 20.3803C2 20.3783 2 20.3764 2 20.3744C2 20.3725 2 20.3705 2 20.3686C2 20.3666 2 20.3647 2 20.3627C2 20.3608 2 20.3588 2 20.3569C2 20.3549 2 20.353 2 20.351C2 20.3491 2 20.3471 2 20.3452C2 20.3432 2 20.3413 2 20.3393C2 20.3374 2 20.3354 2 20.3335C2 20.3315 2 20.3296 2 20.3276C2 20.3257 2 20.3237 2 20.3218C2 20.3198 2 20.3179 2 20.316C2 20.314 2 20.3121 2 20.3101C2 20.3082 2 20.3062 2 20.3043C2 20.3023 2 20.3004 2 20.2984C2 20.2965 2 20.2946 2 20.2926C2 20.2907 2 20.2887 2 20.2868C2 20.2848 2 20.2829 2 20.281C2 20.279 2 20.2771 2 20.2751C2 20.2732 2 20.2712 2 20.2693C2 20.2674 2 20.2654 2 20.2635C2 20.2615 2 20.2596 2 20.2577C2 20.2557 2 20.2538 2 20.2518C2 20.2499 2 20.248 2 20.246C2 20.2441 2 20.2421 2 20.2402C2 20.2383 2 20.2363 2 20.2344C2 20.2324 2 20.2305 2 20.2286C2 20.2266 2 20.2247 2 20.2228C2 20.2208 2 20.2189 2 20.217C2 20.215 2 20.2131 2 20.2111C2 20.2092 2 20.2073 2 20.2053C2 20.2034 2 20.2015 2 20.1995C2 20.1976 2 20.1957 2 20.1937C2 20.1918 2 20.1899 2 20.1879C2 20.186 2 20.1841 2 20.1821C2 20.1802 2 20.1783 2 20.1763C2 20.1744 2 20.1725 2 20.1705C2 20.1686 2 20.1667 2 20.1647C2 20.1628 2 20.1609 2 20.1589C2 20.157 2 20.1551 2 20.1532C2 20.1512 2 20.1493 2 20.1474C2 20.1454 2 20.1435 2 20.1416C2 20.1397 2 20.1377 2 20.1358C2 20.1339 2 20.1319 2 20.13C2 20.1281 2 20.1262 2 20.1242C2 20.1223 2 20.1204 2 20.1185C2 20.1165 2 20.1146 2 20.1127C2 20.1108 2 20.1088 2 20.1069C2 20.105 2 20.1031 2 20.1011C2 20.0992 2 20.0973 2 20.0954C2 20.0934 2 20.0915 2 20.0896C2 20.0877 2 20.0857 2 20.0838C2 20.0819 2 20.08 2 20.078C2 20.0761 2 20.0742 2 20.0723C2 20.0704 2 20.0684 2 20.0665C2 20.0646 2 20.0627 2 20.0608C2 20.0588 2 20.0569 2 20.055C2 20.0531 2 20.0512 2 20.0492C2 20.0473 2 20.0454 2 20.0435C2 20.0416 2 20.0396 2 20.0377C2 20.0358 2 20.0339 2 20.032C2 20.0301 2 20.0281 2 20.0262C2 20.0243 2 20.0224 2 20.0205C2 20.0186 2 20.0166 2 20.0147C2 20.0128 2 20.0109 2 20.009C2 20.0071 2 20.0052 2 20.0032C2 20.0013 2 19.9994 2 19.9975C2 19.9956 2 19.9937 2 19.9918C2 19.9898 2 19.9879 2 19.986C2 19.9841 2 19.9822 2 19.9803C2 19.9784 2 19.9765 2 19.9746C2 19.9726 2 19.9707 2 19.9688C2 19.9669 2 19.965 2 19.9631C2 19.9612 2 19.9593 2 19.9574C2 19.9555 2 19.9535 2 19.9516C2 19.9497 2 19.9478 2 19.9459C2 19.944 2 19.9421 2 19.9402C2 19.9383 2 19.9364 2 19.9345C2 19.9326 2 19.9307 2 19.9287C2 19.9268 2 19.9249 2 19.923C2 19.9211 2 19.9192 2 19.9173C2 19.9154 2 19.9135 2 19.9116C2 19.9097 2 19.9078 2 19.9059C2 19.904 2 19.9021 2 19.9002C2 19.8983 2 19.8964 2 19.8945C2 19.8926 2 19.8907 2 19.8888C2 19.8869 2 19.885 2 19.8831C2 19.8812 2 19.8793 2 19.8774C2 19.8755 2 19.8736 2 19.8717C2 19.8698 2 19.8679 2 19.866C2 19.8641 2 19.8622 2 19.8603C2 19.8584 2 19.8565 2 19.8546C2 19.8527 2 19.8508 2 19.8489C2 19.847 2 19.8451 2 19.8432C2 19.8413 2 19.8394 2 19.8375C2 19.8356 2 19.8337 2 19.8318C2 19.8299 2 19.828 2 19.8261C2 19.8242 2 19.8223 2 19.8204C2 19.8185 2 19.8166 2 19.8147C2 19.8129 2 19.811 2 19.8091C2 19.8072 2 19.8053 2 19.8034C2 19.8015 2 19.7996 2 19.7977C2 19.7958 2 19.7939 2 19.792C2 19.7901 2 19.7883 2 19.7864C2 19.7845 2 19.7826 2 19.7807C2 19.7788 2 19.7769 2 19.775C2 19.7731 2 19.7713 2 19.7694C2 19.7675 2 19.7656 2 19.7637C2 19.7618 2 19.7599 2 19.758C2 19.7561 2 19.7543 2 19.7524C2 19.7505 2 19.7486 2 19.7467C2 19.7448 2 19.7429 2 19.7411C2 19.7392 2 19.7373 2 19.7354C2 19.7335 2 19.7316 2 19.7298C2 19.7279 2 19.726 2 19.7241C2 19.7222 2 19.7203 2 19.7184C2 19.7166 2 19.7147 2 19.7128C2 19.7109 2 19.709 2 19.7072C2 19.7053 2 19.7034 2 19.7015C2 19.6996 2 19.6978 2 19.6959C2 19.694 2 19.6921 2 19.6902C2 19.6884 2 19.6865 2 19.6846C2 19.6827 2 19.6808 2 19.679C2 19.6771 2 19.6752 2 19.6733C2 19.6714 2 19.6696 2 19.6677C2 19.6658 2 19.6639 2 19.6621C2 19.6602 2 19.6583 2 19.6564C2 19.6546 2 19.6527 2 19.6508C2 19.6489 2 19.6471 2 19.6452C2 19.6433 2 19.6414 2 19.6396C2 19.6377 2 19.6358 2 19.6339C2 19.6321 2 19.6302 2 19.6283C2 19.6265 2 19.6246 2 19.6227C2 19.6208 2 19.619 2 19.6171C2 19.6152 2 19.6134 2 19.6115C2 19.6096 2 19.6077 2 19.6059C2 19.604 2 19.6021 2 19.6003C2 19.5984 2 19.5965 2 19.5947C2 19.5928 2 19.5909 2 19.5891C2 19.5872 2 19.5853 2 19.5834C2 19.5816 2 19.5797 2 19.5778C2 19.576 2 19.5741 2 19.5723C2 19.5704 2 19.5685 2 19.5667C2 19.5648 2 19.5629 2 19.5611C2 19.5592 2 19.5573 2 19.5555C2 19.5536 2 19.5517 2 19.5499C2 19.548 2 19.5462 2 19.5443C2 19.5424 2 19.5406 2 19.5387C2 19.5368 2 19.535 2 19.5331C2 19.5313 2 19.5294 2 19.5275C2 19.5257 2 19.5238 2 19.522C2 19.5201 2 19.5182 2 19.5164C2 19.5145 2 19.5127 2 19.5108C2 19.5089 2 19.5071 2 19.5052C2 19.5034 2 19.5015 2 19.4997C2 19.4978 2 19.4959 2 19.4941C2 19.4922 2 19.4904 2 19.4885C2 19.4867 2 19.4848 2 19.4829C2 19.4811 2 19.4792 2 19.4774C2 19.4755 2 19.4737 2 19.4718C2 19.47 2 19.4681 2 19.4663C2 19.4644 2 19.4626 2 19.4607C2 19.4588 2 19.457 2 19.4551C2 19.4533 2 19.4514 2 19.4496C2 19.4477 2 19.4459 2 19.444C2 19.4422 2 19.4403 2 19.4385C2 19.4366 2 19.4348 2 19.4329C2 19.4311 2 19.4292 2 19.4274C2 19.4255 2 19.4237 2 19.4218C2 19.42 2 19.4182 2 19.4163C2 19.4145 2 19.4126 2 19.4108C2 19.4089 2 19.4071 2 19.4052C2 19.4034 2 19.4015 2 19.3997C2 19.3978 2 19.396 2 19.3942C2 19.3923 2 19.3905 2 19.3886C2 19.3868 2 19.3849 2 19.3831C2 19.3813 2 19.3794 2 19.3776C2 19.3757 2 19.3739 2 19.372C2 19.3702 2 19.3684 2 19.3665C2 19.3647 2 19.3628 2 19.361C2 19.3592 2 19.3573 2 19.3555C2 19.3536 2 19.3518 2 19.35C2 19.3481 2 19.3463 2 19.3444C2 19.3426 2 19.3408 2 19.3389C2 19.3371 2 19.3353 2 19.3334C2 19.3316 2 19.3297 2 19.3279C2 19.3261 2 19.3242 2 19.3224C2 19.3206 2 19.3187 2 19.3169C2 19.3151 2 19.3132 2 19.3114C2 19.3096 2 19.3077 2 19.3059C2 19.3041 2 19.3022 2 19.3004C2 19.2986 2 19.2967 2 19.2949C2 19.2931 2 19.2912 2 19.2894C2 19.2876 2 19.2857 2 19.2839C2 19.2821 2 19.2802 2 19.2784C2 19.2766 2 19.2748 2 19.2729C2 19.2711 2 19.2693 2 19.2674C2 19.2656 2 19.2638 2 19.262C2 19.2601 2 19.2583 2 19.2565C2 19.2546 2 19.2528 2 19.251C2 19.2492 2 19.2473 2 19.2455C2 19.2437 2 19.2419 2 19.24C2 19.2382 2 19.2364 2 19.2346C2 19.2327 2 19.2309 2 19.2291C2 19.2273 2 19.2254 2 19.2236C2 19.2218 2 19.22 2 19.2182C2 19.2163 2 19.2145 2 19.2127C2 19.2109 2 19.209 2 19.2072C2 19.2054 2 19.2036 2 19.2018C2 19.1999 2 19.1981 2 19.1963C2 19.1945 2 19.1927 2 19.1908C2 19.189 2 19.1872 2 19.1854C2 19.1836 2 19.1818 2 19.1799C2 19.1781 2 19.1763 2 19.1745C2 19.1727 2 19.1709 2 19.169C2 19.1672 2 19.1654 2 19.1636C2 19.1618 2 19.16 2 19.1582C2 19.1563 2 19.1545 2 19.1527C2 19.1509 2 19.1491 2 19.1473C2 19.1455 2 19.1436 2 19.1418C2 19.14 2 19.1382 2 19.1364C2 19.1346 2 19.1328 2 19.131C2 19.1292 2 19.1273 2 19.1255C2 19.1237 2 19.1219 2 19.1201C2 19.1183 2 19.1165 2 19.1147C2 19.1129 2 19.1111 2 19.1092C2 19.1074 2 19.1056 2 19.1038C2 19.102 2 19.1002 2 19.0984C2 19.0966 2 19.0948 2 19.093C2 19.0912 2 19.0894 2 19.0876C2 19.0858 2 19.084 2 19.0822C2 19.0804 2 19.0785 2 19.0767C2 19.0749 2 19.0731 2 19.0713C2 19.0695 2 19.0677 2 19.0659C2 19.0641 2 19.0623 2 19.0605C2 19.0587 2 19.0569 2 19.0551C2 19.0533 2 19.0515 2 19.0497C2 19.0479 2 19.0461 2 19.0443C2 19.0425 2 19.0407 2 19.0389C2 19.0371 2 19.0353 2 19.0335C2 19.0317 2 19.0299 2 19.0281C2 19.0263 2 19.0245 2 19.0227C2 19.0209 2 19.0191 2 19.0174C2 19.0156 2 19.0138 2 19.012C2 19.0102 2 19.0084 2 19.0066C2 19.0048 2 19.003 2 19.0012C2 18.9994 2 18.9976 2 18.9958C2 18.994 2 18.9922 2 18.9904H0C0 18.9922 0 18.994 0 18.9958C0 18.9976 0 18.9994 0 19.0012C0 19.003 0 19.0048 0 19.0066C0 19.0084 0 19.0102 0 19.012C0 19.0138 0 19.0156 0 19.0174C0 19.0191 0 19.0209 0 19.0227C0 19.0245 0 19.0263 0 19.0281C0 19.0299 0 19.0317 0 19.0335C0 19.0353 0 19.0371 0 19.0389C0 19.0407 0 19.0425 0 19.0443C0 19.0461 0 19.0479 0 19.0497C0 19.0515 0 19.0533 0 19.0551C0 19.0569 0 19.0587 0 19.0605C0 19.0623 0 19.0641 0 19.0659C0 19.0677 0 19.0695 0 19.0713C0 19.0731 0 19.0749 0 19.0767C0 19.0785 0 19.0804 0 19.0822C0 19.084 0 19.0858 0 19.0876C0 19.0894 0 19.0912 0 19.093C0 19.0948 0 19.0966 0 19.0984C0 19.1002 0 19.102 0 19.1038C0 19.1056 0 19.1074 0 19.1092C0 19.1111 0 19.1129 0 19.1147C0 19.1165 0 19.1183 0 19.1201C0 19.1219 0 19.1237 0 19.1255C0 19.1273 0 19.1292 0 19.131C0 19.1328 0 19.1346 0 19.1364C0 19.1382 0 19.14 0 19.1418C0 19.1436 0 19.1455 0 19.1473C0 19.1491 0 19.1509 0 19.1527C0 19.1545 0 19.1563 0 19.1582C0 19.16 0 19.1618 0 19.1636C0 19.1654 0 19.1672 0 19.169C0 19.1709 0 19.1727 0 19.1745C0 19.1763 0 19.1781 0 19.1799C0 19.1818 0 19.1836 0 19.1854C0 19.1872 0 19.189 0 19.1908C0 19.1927 0 19.1945 0 19.1963C0 19.1981 0 19.1999 0 19.2018C0 19.2036 0 19.2054 0 19.2072C0 19.209 0 19.2109 0 19.2127C0 19.2145 0 19.2163 0 19.2182C0 19.22 0 19.2218 0 19.2236C0 19.2254 0 19.2273 0 19.2291C0 19.2309 0 19.2327 0 19.2346C0 19.2364 0 19.2382 0 19.24C0 19.2419 0 19.2437 0 19.2455C0 19.2473 0 19.2492 0 19.251C0 19.2528 0 19.2546 0 19.2565C0 19.2583 0 19.2601 0 19.262C0 19.2638 0 19.2656 0 19.2674C0 19.2693 0 19.2711 0 19.2729C0 19.2748 0 19.2766 0 19.2784C0 19.2802 0 19.2821 0 19.2839C0 19.2857 0 19.2876 0 19.2894C0 19.2912 0 19.2931 0 19.2949C0 19.2967 0 19.2986 0 19.3004C0 19.3022 0 19.3041 0 19.3059C0 19.3077 0 19.3096 0 19.3114C0 19.3132 0 19.3151 0 19.3169C0 19.3187 0 19.3206 0 19.3224C0 19.3242 0 19.3261 0 19.3279C0 19.3297 0 19.3316 0 19.3334C0 19.3353 0 19.3371 0 19.3389C0 19.3408 0 19.3426 0 19.3444C0 19.3463 0 19.3481 0 19.35C0 19.3518 0 19.3536 0 19.3555C0 19.3573 0 19.3592 0 19.361C0 19.3628 0 19.3647 0 19.3665C0 19.3684 0 19.3702 0 19.372C0 19.3739 0 19.3757 0 19.3776C0 19.3794 0 19.3813 0 19.3831C0 19.3849 0 19.3868 0 19.3886C0 19.3905 0 19.3923 0 19.3942C0 19.396 0 19.3978 0 19.3997C0 19.4015 0 19.4034 0 19.4052C0 19.4071 0 19.4089 0 19.4108C0 19.4126 0 19.4145 0 19.4163C0 19.4182 0 19.42 0 19.4218C0 19.4237 0 19.4255 0 19.4274C0 19.4292 0 19.4311 0 19.4329C0 19.4348 0 19.4366 0 19.4385C0 19.4403 0 19.4422 0 19.444C0 19.4459 0 19.4477 0 19.4496C0 19.4514 0 19.4533 0 19.4551C0 19.457 0 19.4588 0 19.4607C0 19.4626 0 19.4644 0 19.4663C0 19.4681 0 19.47 0 19.4718C0 19.4737 0 19.4755 0 19.4774C0 19.4792 0 19.4811 0 19.4829C0 19.4848 0 19.4867 0 19.4885C0 19.4904 0 19.4922 0 19.4941C0 19.4959 0 19.4978 0 19.4997C0 19.5015 0 19.5034 0 19.5052C0 19.5071 0 19.5089 0 19.5108C0 19.5127 0 19.5145 0 19.5164C0 19.5182 0 19.5201 0 19.522C0 19.5238 0 19.5257 0 19.5275C0 19.5294 0 19.5313 0 19.5331C0 19.535 0 19.5368 0 19.5387C0 19.5406 0 19.5424 0 19.5443C0 19.5462 0 19.548 0 19.5499C0 19.5517 0 19.5536 0 19.5555C0 19.5573 0 19.5592 0 19.5611C0 19.5629 0 19.5648 0 19.5667C0 19.5685 0 19.5704 0 19.5723C0 19.5741 0 19.576 0 19.5778C0 19.5797 0 19.5816 0 19.5834C0 19.5853 0 19.5872 0 19.5891C0 19.5909 0 19.5928 0 19.5947C0 19.5965 0 19.5984 0 19.6003C0 19.6021 0 19.604 0 19.6059C0 19.6077 0 19.6096 0 19.6115C0 19.6134 0 19.6152 0 19.6171C0 19.619 0 19.6208 0 19.6227C0 19.6246 0 19.6265 0 19.6283C0 19.6302 0 19.6321 0 19.6339C0 19.6358 0 19.6377 0 19.6396C0 19.6414 0 19.6433 0 19.6452C0 19.6471 0 19.6489 0 19.6508C0 19.6527 0 19.6546 0 19.6564C0 19.6583 0 19.6602 0 19.6621C0 19.6639 0 19.6658 0 19.6677C0 19.6696 0 19.6714 0 19.6733C0 19.6752 0 19.6771 0 19.679C0 19.6808 0 19.6827 0 19.6846C0 19.6865 0 19.6884 0 19.6902C0 19.6921 0 19.694 0 19.6959C0 19.6978 0 19.6996 0 19.7015C0 19.7034 0 19.7053 0 19.7072C0 19.709 0 19.7109 0 19.7128C0 19.7147 0 19.7166 0 19.7184C0 19.7203 0 19.7222 0 19.7241C0 19.726 0 19.7279 0 19.7298C0 19.7316 0 19.7335 0 19.7354C0 19.7373 0 19.7392 0 19.7411C0 19.7429 0 19.7448 0 19.7467C0 19.7486 0 19.7505 0 19.7524C0 19.7543 0 19.7561 0 19.758C0 19.7599 0 19.7618 0 19.7637C0 19.7656 0 19.7675 0 19.7694C0 19.7713 0 19.7731 0 19.775C0 19.7769 0 19.7788 0 19.7807C0 19.7826 0 19.7845 0 19.7864C0 19.7883 0 19.7901 0 19.792C0 19.7939 0 19.7958 0 19.7977C0 19.7996 0 19.8015 0 19.8034C0 19.8053 0 19.8072 0 19.8091C0 19.811 0 19.8129 0 19.8147C0 19.8166 0 19.8185 0 19.8204C0 19.8223 0 19.8242 0 19.8261C0 19.828 0 19.8299 0 19.8318C0 19.8337 0 19.8356 0 19.8375C0 19.8394 0 19.8413 0 19.8432C0 19.8451 0 19.847 0 19.8489C0 19.8508 0 19.8527 0 19.8546C0 19.8565 0 19.8584 0 19.8603C0 19.8622 0 19.8641 0 19.866C0 19.8679 0 19.8698 0 19.8717C0 19.8736 0 19.8755 0 19.8774C0 19.8793 0 19.8812 0 19.8831C0 19.885 0 19.8869 0 19.8888C0 19.8907 0 19.8926 0 19.8945C0 19.8964 0 19.8983 0 19.9002C0 19.9021 0 19.904 0 19.9059C0 19.9078 0 19.9097 0 19.9116C0 19.9135 0 19.9154 0 19.9173C0 19.9192 0 19.9211 0 19.923C0 19.9249 0 19.9268 0 19.9287C0 19.9307 0 19.9326 0 19.9345C0 19.9364 0 19.9383 0 19.9402C0 19.9421 0 19.944 0 19.9459C0 19.9478 0 19.9497 0 19.9516C0 19.9535 0 19.9555 0 19.9574C0 19.9593 0 19.9612 0 19.9631C0 19.965 0 19.9669 0 19.9688C0 19.9707 0 19.9726 0 19.9746C0 19.9765 0 19.9784 0 19.9803C0 19.9822 0 19.9841 0 19.986C0 19.9879 0 19.9898 0 19.9918C0 19.9937 0 19.9956 0 19.9975C0 19.9994 0 20.0013 0 20.0032C0 20.0052 0 20.0071 0 20.009C0 20.0109 0 20.0128 0 20.0147C0 20.0166 0 20.0186 0 20.0205C0 20.0224 0 20.0243 0 20.0262C0 20.0281 0 20.0301 0 20.032C0 20.0339 0 20.0358 0 20.0377C0 20.0396 0 20.0416 0 20.0435C0 20.0454 0 20.0473 0 20.0492C0 20.0512 0 20.0531 0 20.055C0 20.0569 0 20.0588 0 20.0608C0 20.0627 0 20.0646 0 20.0665C0 20.0684 0 20.0704 0 20.0723C0 20.0742 0 20.0761 0 20.078C0 20.08 0 20.0819 0 20.0838C0 20.0857 0 20.0877 0 20.0896C0 20.0915 0 20.0934 0 20.0954C0 20.0973 0 20.0992 0 20.1011C0 20.1031 0 20.105 0 20.1069C0 20.1088 0 20.1108 0 20.1127C0 20.1146 0 20.1165 0 20.1185C0 20.1204 0 20.1223 0 20.1242C0 20.1262 0 20.1281 0 20.13C0 20.1319 0 20.1339 0 20.1358C0 20.1377 0 20.1397 0 20.1416C0 20.1435 0 20.1454 0 20.1474C0 20.1493 0 20.1512 0 20.1532C0 20.1551 0 20.157 0 20.1589C0 20.1609 0 20.1628 0 20.1647C0 20.1667 0 20.1686 0 20.1705C0 20.1725 0 20.1744 0 20.1763C0 20.1783 0 20.1802 0 20.1821C0 20.1841 0 20.186 0 20.1879C0 20.1899 0 20.1918 0 20.1937C0 20.1957 0 20.1976 0 20.1995C0 20.2015 0 20.2034 0 20.2053C0 20.2073 0 20.2092 0 20.2111C0 20.2131 0 20.215 0 20.217C0 20.2189 0 20.2208 0 20.2228C0 20.2247 0 20.2266 0 20.2286C0 20.2305 0 20.2324 0 20.2344C0 20.2363 0 20.2383 0 20.2402C0 20.2421 0 20.2441 0 20.246C0 20.248 0 20.2499 0 20.2518C0 20.2538 0 20.2557 0 20.2577C0 20.2596 0 20.2615 0 20.2635C0 20.2654 0 20.2674 0 20.2693C0 20.2712 0 20.2732 0 20.2751C0 20.2771 0 20.279 0 20.281C0 20.2829 0 20.2848 0 20.2868C0 20.2887 0 20.2907 0 20.2926C0 20.2946 0 20.2965 0 20.2984C0 20.3004 0 20.3023 0 20.3043C0 20.3062 0 20.3082 0 20.3101C0 20.3121 0 20.314 0 20.316C0 20.3179 0 20.3198 0 20.3218C0 20.3237 0 20.3257 0 20.3276C0 20.3296 0 20.3315 0 20.3335C0 20.3354 0 20.3374 0 20.3393C0 20.3413 0 20.3432 0 20.3452C0 20.3471 0 20.3491 0 20.351C0 20.353 0 20.3549 0 20.3569C0 20.3588 0 20.3608 0 20.3627C0 20.3647 0 20.3666 0 20.3686C0 20.3705 0 20.3725 0 20.3744C0 20.3764 0 20.3783 0 20.3803C0 20.3822 0 20.3842 0 20.3861C0 20.3881 0 20.39 0 20.392C0 20.394 0 20.3959 0 20.3979C0 20.3998 0 20.4018 0 20.4037C0 20.4057 0 20.4076 0 20.4096C0 20.4115 0 20.4135 0 20.4155C0 20.4174 0 20.4194 0 20.4213C0 20.4233 0 20.4252 0 20.4272C0 20.4292 0 20.4311 0 20.4331C0 20.435 0 20.437 0 20.4389C0 20.4409 0 20.4429 0 20.4448C0 20.4468 0 20.4487 0 20.4507C0 20.4527 0 20.4546 0 20.4566C0 20.4585 0 20.4605 0 20.4625C0 20.4644 0 20.4664 0 20.4683C0 20.4703 0 20.4723 0 20.4742C0 20.4762 0 20.4781 0 20.4801C0 20.4821 0 20.484 0 20.486C0 20.488 0 20.4899 0 20.4919C0 20.4938 0 20.4958 0 20.4978C0 20.4997 0 20.5017 0 20.5037C0 20.5056 0 20.5076 0 20.5096C0 20.5115 0 20.5135 0 20.5155C0 20.5174 0 20.5194 0 20.5213C0 20.5233 0 20.5253 0 20.5272C0 20.5292 0 20.5312 0 20.5331C0 20.5351 0 20.5371 0 20.5391C0 20.541 0 20.543 0 20.545C0 20.5469 0 20.5489 0 20.5509C0 20.5528 0 20.5548 0 20.5568C0 20.5587 0 20.5607 0 20.5627C0 20.5646 0 20.5666 0 20.5686C0 20.5706 0 20.5725 0 20.5745C0 20.5765 0 20.5784 0 20.5804C0 20.5824 0 20.5844 0 20.5863C0 20.5883 0 20.5903 0 20.5922C0 20.5942 0 20.5962 0 20.5982C0 20.6001 0 20.6021 0 20.6041C0 20.6061 0 20.608 0 20.61C0 20.612 0 20.614 0 20.6159C0 20.6179 0 20.6199 0 20.6219C0 20.6238 0 20.6258 0 20.6278C0 20.6298 0 20.6317 0 20.6337C0 20.6357 0 20.6377 0 20.6396C0 20.6416 0 20.6436 0 20.6456C0 20.6475 0 20.6495 0 20.6515C0 20.6535 0 20.6555 0 20.6574C0 20.6594 0 20.6614 0 20.6634C0 20.6654 0 20.6673 0 20.6693C0 20.6713 0 20.6733 0 20.6752C0 20.6772 0 20.6792 0 20.6812C0 20.6832 0 20.6852 0 20.6871C0 20.6891 0 20.6911 0 20.6931C0 20.6951 0 20.697 0 20.699C0 20.701 0 20.703 0 20.705C0 20.707 0 20.7089 0 20.7109C0 20.7129 0 20.7149 0 20.7169C0 20.7189 0 20.7208 0 20.7228C0 20.7248 0 20.7268 0 20.7288C0 20.7308 0 20.7327 0 20.7347C0 20.7367 0 20.7387 0 20.7407C0 20.7427 0 20.7447 0 20.7466C0 20.7486 0 20.7506 0 20.7526C0 20.7546 0 20.7566 0 20.7586C0 20.7606 0 20.7625 0 20.7645C0 20.7665 0 20.7685 0 20.7705C0 20.7725 0 20.7745 0 20.7765C0 20.7785 0 20.7804 0 20.7824C0 20.7844 0 20.7864 0 20.7884C0 20.7904 0 20.7924 0 20.7944C0 20.7964 0 20.7984 0 20.8003C0 20.8023 0 20.8043 0 20.8063C0 20.8083 0 20.8103 0 20.8123C0 20.8143 0 20.8163 0 20.8183C0 20.8203 0 20.8223 0 20.8243C0 20.8262 0 20.8282 0 20.8302C0 20.8322 0 20.8342 0 20.8362C0 20.8382 0 20.8402 0 20.8422C0 20.8442 0 20.8462 0 20.8482C0 20.8502 0 20.8522 0 20.8542C0 20.8562 0 20.8582 0 20.8602C0 20.8622 0 20.8642 0 20.8662C0 20.8681 0 20.8701 0 20.8721C0 20.8741 0 20.8761 0 20.8781C0 20.8801 0 20.8821 0 20.8841C0 20.8861 0 20.8881 0 20.8901C0 20.8921 0 20.8941 0 20.8961C0 20.8981 0 20.9001 0 20.9021C0 20.9041 0 20.9061 0 20.9081C0 20.9101 0 20.9121 0 20.9141C0 20.9161 0 20.9181 0 20.9201C0 20.9221 0 20.9241 0 20.9261C0 20.9281 0 20.9301 0 20.9321C0 20.9341 0 20.9361 0 20.9382C0 20.9402 0 20.9422 0 20.9442C0 20.9462 0 20.9482 0 20.9502C0 20.9522 0 20.9542 0 20.9562C0 20.9582 0 20.9602 0 20.9622C0 20.9642 0 20.9662 0 20.9682C0 20.9702 0 20.9722 0 20.9742C0 20.9762 0 20.9782 0 20.9803C0 20.9823 0 20.9843 0 20.9863C0 20.9883 0 20.9903 0 20.9923C0 20.9943 0 20.9963 0 20.9983C0 21.0003 0 21.0023 0 21.0043C0 21.0064 0 21.0084 0 21.0104C0 21.0124 0 21.0144 0 21.0164C0 21.0184 0 21.0204 0 21.0224C0 21.0244 0 21.0264 0 21.0285C0 21.0305 0 21.0325 0 21.0345C0 21.0365 0 21.0385 0 21.0405C0 21.0425 0 21.0445 0 21.0466C0 21.0486 0 21.0506 0 21.0526C0 21.0546 0 21.0566 0 21.0586C0 21.0606 0 21.0627 0 21.0647C0 21.0667 0 21.0687 0 21.0707C0 21.0727 0 21.0747 0 21.0768C0 21.0788 0 21.0808 0 21.0828C0 21.0848 0 21.0868 0 21.0888C0 21.0909 0 21.0929 0 21.0949C0 21.0969 0 21.0989 0 21.1009C0 21.103 0 21.105 0 21.107C0 21.109 0 21.111 0 21.113C0 21.1151 0 21.1171 0 21.1191C0 21.1211 0 21.1231 0 21.1252C0 21.1272 0 21.1292 0 21.1312C0 21.1332 0 21.1352 0 21.1373C0 21.1393 0 21.1413 0 21.1433C0 21.1453 0 21.1474 0 21.1494C0 21.1514 0 21.1534 0 21.1554C0 21.1575 0 21.1595 0 21.1615C0 21.1635 0 21.1656 0 21.1676C0 21.1696 0 21.1716 0 21.1736C0 21.1757 0 21.1777 0 21.1797C0 21.1817 0 21.1838 0 21.1858C0 21.1878 0 21.1898 0 21.1919C0 21.1939 0 21.1959 0 21.1979C0 21.1999 0 21.202 0 21.204C0 21.206 0 21.208 0 21.2101C0 21.2121 0 21.2141 0 21.2161C0 21.2182 0 21.2202 0 21.2222C0 21.2243 0 21.2263 0 21.2283C0 21.2303 0 21.2324 0 21.2344C0 21.2364 0 21.2384 0 21.2405C0 21.2425 0 21.2445 0 21.2466C0 21.2486 0 21.2506 0 21.2526C0 21.2547 0 21.2567 0 21.2587C0 21.2608 0 21.2628 0 21.2648C0 21.2668 0 21.2689 0 21.2709C0 21.2729 0 21.275 0 21.277C0 21.279 0 21.2811 0 21.2831C0 21.2851 0 21.2871 0 21.2892C0 21.2912 0 21.2932 0 21.2953C0 21.2973 0 21.2993 0 21.3014C0 21.3034 0 21.3054 0 21.3075C0 21.3095 0 21.3115 0 21.3136C0 21.3156 0 21.3176 0 21.3197C0 21.3217 0 21.3237 0 21.3258C0 21.3278 0 21.3298 0 21.3319C0 21.3339 0 21.3359 0 21.338C0 21.34 0 21.342 0 21.3441C0 21.3461 0 21.3482 0 21.3502C0 21.3522 0 21.3543 0 21.3563C0 21.3583 0 21.3604 0 21.3624C0 21.3644 0 21.3665 0 21.3685C0 21.3706 0 21.3726 0 21.3746C0 21.3767 0 21.3787 0 21.3807C0 21.3828 0 21.3848 0 21.3869C0 21.3889 0 21.3909 0 21.393C0 21.395 0 21.3971 0 21.3991C0 21.4011 0 21.4032 0 21.4052C0 21.4073 0 21.4093 0 21.4113C0 21.4134 0 21.4154 0 21.4175C0 21.4195 0 21.4215 0 21.4236C0 21.4256 0 21.4277 0 21.4297C0 21.4317 0 21.4338 0 21.4358C0 21.4379 0 21.4399 0 21.442C0 21.444 0 21.446 0 21.4481C0 21.4501 0 21.4522 0 21.4542C0 21.4563 0 21.4583 0 21.4604C0 21.4624 0 21.4644 0 21.4665C0 21.4685 0 21.4706 0 21.4726C0 21.4747 0 21.4767 0 21.4788C0 21.4808 0 21.4828 0 21.4849C0 21.4869 0 21.489 0 21.491C0 21.4931 0 21.4951 0 21.4972C0 21.4992 0 21.5013 0 21.5033C0 21.5054 0 21.5074 0 21.5095C0 21.5115 0 21.5136 0 21.5156C0 21.5177 0 21.5197 0 21.5217C0 21.5238 0 21.5258 0 21.5279C0 21.5299 0 21.532 0 21.534C0 21.5361 0 21.5381 0 21.5402C0 21.5422 0 21.5443 0 21.5463C0 21.5484 0 21.5504 0 21.5525C0 21.5545 0 21.5566 0 21.5586C0 21.5607 0 21.5628 0 21.5648C0 21.5669 0 21.5689 0 21.571C0 21.573 0 21.5751 0 21.5771C0 21.5792 0 21.5812 0 21.5833C0 21.5853 0 21.5874 0 21.5894C0 21.5915 0 21.5935 0 21.5956C0 21.5977 0 21.5997 0 21.6018C0 21.6038 0 21.6059 0 21.6079C0 21.61 0 21.612 0 21.6141C0 21.6161 0 21.6182 0 21.6203C0 21.6223 0 21.6244 0 21.6264C0 21.6285 0 21.6305 0 21.6326C0 21.6346 0 21.6367 0 21.6388C0 21.6408 0 21.6429 0 21.6449C0 21.647 0 21.6491 0 21.6511C0 21.6532 0 21.6552 0 21.6573C0 21.6593 0 21.6614 0 21.6635C0 21.6655 0 21.6676 0 21.6696C0 21.6717 0 21.6738 0 21.6758C0 21.6779 0 21.6799 0 21.682C0 21.6841 0 21.6861 0 21.6882C0 21.6902 0 21.6923 0 21.6944C0 21.6964 0 21.6985 0 21.7005C0 21.7026 0 21.7047 0 21.7067C0 21.7088 0 21.7108 0 21.7129C0 21.715 0 21.717 0 21.7191C0 21.7212 0 21.7232 0 21.7253C0 21.7273 0 21.7294 0 21.7315C0 21.7335 0 21.7356 0 21.7377C0 21.7397 0 21.7418 0 21.7439C0 21.7459 0 21.748 0 21.7501C0 21.7521 0 21.7542 0 21.7562C0 21.7583 0 21.7604 0 21.7624C0 21.7645 0 21.7666 0 21.7686C0 21.7707 0 21.7728 0 21.7748C0 21.7769 0 21.779 0 21.781C0 21.7831 0 21.7852 0 21.7872C0 21.7893 0 21.7914 0 21.7934C0 21.7955 0 21.7976 0 21.7996C0 21.8017 0 21.8038 0 21.8058C0 21.8079 0 21.81 0 21.8121C0 21.8141 0 21.8162 0 21.8183C0 21.8203 0 21.8224 0 21.8245C0 21.8265 0 21.8286 0 21.8307C0 21.8328 0 21.8348 0 21.8369C0 21.839 0 21.841 0 21.8431C0 21.8452 0 21.8472 0 21.8493C0 21.8514 0 21.8535 0 21.8555C0 21.8576 0 21.8597 0 21.8617C0 21.8638 0 21.8659 0 21.868C0 21.87 0 21.8721 0 21.8742C0 21.8763 0 21.8783 0 21.8804C0 21.8825 0 21.8846 0 21.8866C0 21.8887 0 21.8908 0 21.8928C0 21.8949 0 21.897 0 21.8991C0 21.9011 0 21.9032 0 21.9053C0 21.9074 0 21.9094 0 21.9115C0 21.9136 0 21.9157 0 21.9177C0 21.9198 0 21.9219 0 21.924C0 21.9261 0 21.9281 0 21.9302C0 21.9323 0 21.9344 0 21.9364C0 21.9385 0 21.9406 0 21.9427C0 21.9447 0 21.9468 0 21.9489C0 21.951 0 21.9531 0 21.9551C0 21.9572 0 21.9593 0 21.9614C0 21.9634 0 21.9655 0 21.9676C0 21.9697 0 21.9718 0 21.9738C0 21.9759 0 21.978 0 21.9801C0 21.9822 0 21.9842 0 21.9863H2ZM5.5 15.4912H11.5V13.4912H5.5V15.4912ZM15 18.9904C15 18.9922 15 18.994 15 18.9958C15 18.9976 15 18.9994 15 19.0012C15 19.003 15 19.0048 15 19.0066C15 19.0084 15 19.0102 15 19.012C15 19.0138 15 19.0156 15 19.0174C15 19.0191 15 19.0209 15 19.0227C15 19.0245 15 19.0263 15 19.0281C15 19.0299 15 19.0317 15 19.0335C15 19.0353 15 19.0371 15 19.0389C15 19.0407 15 19.0425 15 19.0443C15 19.0461 15 19.0479 15 19.0497C15 19.0515 15 19.0533 15 19.0551C15 19.0569 15 19.0587 15 19.0605C15 19.0623 15 19.0641 15 19.0659C15 19.0677 15 19.0695 15 19.0713C15 19.0731 15 19.0749 15 19.0767C15 19.0785 15 19.0804 15 19.0822C15 19.084 15 19.0858 15 19.0876C15 19.0894 15 19.0912 15 19.093C15 19.0948 15 19.0966 15 19.0984C15 19.1002 15 19.102 15 19.1038C15 19.1056 15 19.1074 15 19.1092C15 19.1111 15 19.1129 15 19.1147C15 19.1165 15 19.1183 15 19.1201C15 19.1219 15 19.1237 15 19.1255C15 19.1273 15 19.1292 15 19.131C15 19.1328 15 19.1346 15 19.1364C15 19.1382 15 19.14 15 19.1418C15 19.1436 15 19.1455 15 19.1473C15 19.1491 15 19.1509 15 19.1527C15 19.1545 15 19.1563 15 19.1582C15 19.16 15 19.1618 15 19.1636C15 19.1654 15 19.1672 15 19.169C15 19.1709 15 19.1727 15 19.1745C15 19.1763 15 19.1781 15 19.1799C15 19.1818 15 19.1836 15 19.1854C15 19.1872 15 19.189 15 19.1908C15 19.1927 15 19.1945 15 19.1963C15 19.1981 15 19.1999 15 19.2018C15 19.2036 15 19.2054 15 19.2072C15 19.209 15 19.2109 15 19.2127C15 19.2145 15 19.2163 15 19.2182C15 19.22 15 19.2218 15 19.2236C15 19.2254 15 19.2273 15 19.2291C15 19.2309 15 19.2327 15 19.2346C15 19.2364 15 19.2382 15 19.24C15 19.2419 15 19.2437 15 19.2455C15 19.2473 15 19.2492 15 19.251C15 19.2528 15 19.2546 15 19.2565C15 19.2583 15 19.2601 15 19.262C15 19.2638 15 19.2656 15 19.2674C15 19.2693 15 19.2711 15 19.2729C15 19.2748 15 19.2766 15 19.2784C15 19.2802 15 19.2821 15 19.2839C15 19.2857 15 19.2876 15 19.2894C15 19.2912 15 19.2931 15 19.2949C15 19.2967 15 19.2986 15 19.3004C15 19.3022 15 19.3041 15 19.3059C15 19.3077 15 19.3096 15 19.3114C15 19.3132 15 19.3151 15 19.3169C15 19.3187 15 19.3206 15 19.3224C15 19.3242 15 19.3261 15 19.3279C15 19.3297 15 19.3316 15 19.3334C15 19.3353 15 19.3371 15 19.3389C15 19.3408 15 19.3426 15 19.3444C15 19.3463 15 19.3481 15 19.35C15 19.3518 15 19.3536 15 19.3555C15 19.3573 15 19.3592 15 19.361C15 19.3628 15 19.3647 15 19.3665C15 19.3684 15 19.3702 15 19.372C15 19.3739 15 19.3757 15 19.3776C15 19.3794 15 19.3813 15 19.3831C15 19.3849 15 19.3868 15 19.3886C15 19.3905 15 19.3923 15 19.3942C15 19.396 15 19.3978 15 19.3997C15 19.4015 15 19.4034 15 19.4052C15 19.4071 15 19.4089 15 19.4108C15 19.4126 15 19.4145 15 19.4163C15 19.4182 15 19.42 15 19.4218C15 19.4237 15 19.4255 15 19.4274C15 19.4292 15 19.4311 15 19.4329C15 19.4348 15 19.4366 15 19.4385C15 19.4403 15 19.4422 15 19.444C15 19.4459 15 19.4477 15 19.4496C15 19.4514 15 19.4533 15 19.4551C15 19.457 15 19.4588 15 19.4607C15 19.4626 15 19.4644 15 19.4663C15 19.4681 15 19.47 15 19.4718C15 19.4737 15 19.4755 15 19.4774C15 19.4792 15 19.4811 15 19.4829C15 19.4848 15 19.4867 15 19.4885C15 19.4904 15 19.4922 15 19.4941C15 19.4959 15 19.4978 15 19.4997C15 19.5015 15 19.5034 15 19.5052C15 19.5071 15 19.5089 15 19.5108C15 19.5127 15 19.5145 15 19.5164C15 19.5182 15 19.5201 15 19.522C15 19.5238 15 19.5257 15 19.5275C15 19.5294 15 19.5313 15 19.5331C15 19.535 15 19.5368 15 19.5387C15 19.5406 15 19.5424 15 19.5443C15 19.5462 15 19.548 15 19.5499C15 19.5517 15 19.5536 15 19.5555C15 19.5573 15 19.5592 15 19.5611C15 19.5629 15 19.5648 15 19.5667C15 19.5685 15 19.5704 15 19.5723C15 19.5741 15 19.576 15 19.5778C15 19.5797 15 19.5816 15 19.5834C15 19.5853 15 19.5872 15 19.5891C15 19.5909 15 19.5928 15 19.5947C15 19.5965 15 19.5984 15 19.6003C15 19.6021 15 19.604 15 19.6059C15 19.6077 15 19.6096 15 19.6115C15 19.6134 15 19.6152 15 19.6171C15 19.619 15 19.6208 15 19.6227C15 19.6246 15 19.6265 15 19.6283C15 19.6302 15 19.6321 15 19.6339C15 19.6358 15 19.6377 15 19.6396C15 19.6414 15 19.6433 15 19.6452C15 19.6471 15 19.6489 15 19.6508C15 19.6527 15 19.6546 15 19.6564C15 19.6583 15 19.6602 15 19.6621C15 19.6639 15 19.6658 15 19.6677C15 19.6696 15 19.6714 15 19.6733C15 19.6752 15 19.6771 15 19.679C15 19.6808 15 19.6827 15 19.6846C15 19.6865 15 19.6884 15 19.6902C15 19.6921 15 19.694 15 19.6959C15 19.6978 15 19.6996 15 19.7015C15 19.7034 15 19.7053 15 19.7072C15 19.709 15 19.7109 15 19.7128C15 19.7147 15 19.7166 15 19.7184C15 19.7203 15 19.7222 15 19.7241C15 19.726 15 19.7279 15 19.7298C15 19.7316 15 19.7335 15 19.7354C15 19.7373 15 19.7392 15 19.7411C15 19.7429 15 19.7448 15 19.7467C15 19.7486 15 19.7505 15 19.7524C15 19.7543 15 19.7561 15 19.758C15 19.7599 15 19.7618 15 19.7637C15 19.7656 15 19.7675 15 19.7694C15 19.7713 15 19.7731 15 19.775C15 19.7769 15 19.7788 15 19.7807C15 19.7826 15 19.7845 15 19.7864C15 19.7883 15 19.7901 15 19.792C15 19.7939 15 19.7958 15 19.7977C15 19.7996 15 19.8015 15 19.8034C15 19.8053 15 19.8072 15 19.8091C15 19.811 15 19.8129 15 19.8147C15 19.8166 15 19.8185 15 19.8204C15 19.8223 15 19.8242 15 19.8261C15 19.828 15 19.8299 15 19.8318C15 19.8337 15 19.8356 15 19.8375C15 19.8394 15 19.8413 15 19.8432C15 19.8451 15 19.847 15 19.8489C15 19.8508 15 19.8527 15 19.8546C15 19.8565 15 19.8584 15 19.8603C15 19.8622 15 19.8641 15 19.866C15 19.8679 15 19.8698 15 19.8717C15 19.8736 15 19.8755 15 19.8774C15 19.8793 15 19.8812 15 19.8831C15 19.885 15 19.8869 15 19.8888C15 19.8907 15 19.8926 15 19.8945C15 19.8964 15 19.8983 15 19.9002C15 19.9021 15 19.904 15 19.9059C15 19.9078 15 19.9097 15 19.9116C15 19.9135 15 19.9154 15 19.9173C15 19.9192 15 19.9211 15 19.923C15 19.9249 15 19.9268 15 19.9287C15 19.9307 15 19.9326 15 19.9345C15 19.9364 15 19.9383 15 19.9402C15 19.9421 15 19.944 15 19.9459C15 19.9478 15 19.9497 15 19.9516C15 19.9535 15 19.9555 15 19.9574C15 19.9593 15 19.9612 15 19.9631C15 19.965 15 19.9669 15 19.9688C15 19.9707 15 19.9726 15 19.9746C15 19.9765 15 19.9784 15 19.9803C15 19.9822 15 19.9841 15 19.986C15 19.9879 15 19.9898 15 19.9918C15 19.9937 15 19.9956 15 19.9975C15 19.9994 15 20.0013 15 20.0032C15 20.0052 15 20.0071 15 20.009C15 20.0109 15 20.0128 15 20.0147C15 20.0166 15 20.0186 15 20.0205C15 20.0224 15 20.0243 15 20.0262C15 20.0281 15 20.0301 15 20.032C15 20.0339 15 20.0358 15 20.0377C15 20.0396 15 20.0416 15 20.0435C15 20.0454 15 20.0473 15 20.0492C15 20.0512 15 20.0531 15 20.055C15 20.0569 15 20.0588 15 20.0608C15 20.0627 15 20.0646 15 20.0665C15 20.0684 15 20.0704 15 20.0723C15 20.0742 15 20.0761 15 20.078C15 20.08 15 20.0819 15 20.0838C15 20.0857 15 20.0877 15 20.0896C15 20.0915 15 20.0934 15 20.0954C15 20.0973 15 20.0992 15 20.1011C15 20.1031 15 20.105 15 20.1069C15 20.1088 15 20.1108 15 20.1127C15 20.1146 15 20.1165 15 20.1185C15 20.1204 15 20.1223 15 20.1242C15 20.1262 15 20.1281 15 20.13C15 20.1319 15 20.1339 15 20.1358C15 20.1377 15 20.1397 15 20.1416C15 20.1435 15 20.1454 15 20.1474C15 20.1493 15 20.1512 15 20.1532C15 20.1551 15 20.157 15 20.1589C15 20.1609 15 20.1628 15 20.1647C15 20.1667 15 20.1686 15 20.1705C15 20.1725 15 20.1744 15 20.1763C15 20.1783 15 20.1802 15 20.1821C15 20.1841 15 20.186 15 20.1879C15 20.1899 15 20.1918 15 20.1937C15 20.1957 15 20.1976 15 20.1995C15 20.2015 15 20.2034 15 20.2053C15 20.2073 15 20.2092 15 20.2111C15 20.2131 15 20.215 15 20.217C15 20.2189 15 20.2208 15 20.2228C15 20.2247 15 20.2266 15 20.2286C15 20.2305 15 20.2324 15 20.2344C15 20.2363 15 20.2383 15 20.2402C15 20.2421 15 20.2441 15 20.246C15 20.248 15 20.2499 15 20.2518C15 20.2538 15 20.2557 15 20.2577C15 20.2596 15 20.2615 15 20.2635C15 20.2654 15 20.2674 15 20.2693C15 20.2712 15 20.2732 15 20.2751C15 20.2771 15 20.279 15 20.281C15 20.2829 15 20.2848 15 20.2868C15 20.2887 15 20.2907 15 20.2926C15 20.2946 15 20.2965 15 20.2984C15 20.3004 15 20.3023 15 20.3043C15 20.3062 15 20.3082 15 20.3101C15 20.3121 15 20.314 15 20.316C15 20.3179 15 20.3198 15 20.3218C15 20.3237 15 20.3257 15 20.3276C15 20.3296 15 20.3315 15 20.3335C15 20.3354 15 20.3374 15 20.3393C15 20.3413 15 20.3432 15 20.3452C15 20.3471 15 20.3491 15 20.351C15 20.353 15 20.3549 15 20.3569C15 20.3588 15 20.3608 15 20.3627C15 20.3647 15 20.3666 15 20.3686C15 20.3705 15 20.3725 15 20.3744C15 20.3764 15 20.3783 15 20.3803C15 20.3822 15 20.3842 15 20.3861C15 20.3881 15 20.39 15 20.392C15 20.394 15 20.3959 15 20.3979C15 20.3998 15 20.4018 15 20.4037C15 20.4057 15 20.4076 15 20.4096C15 20.4115 15 20.4135 15 20.4155C15 20.4174 15 20.4194 15 20.4213C15 20.4233 15 20.4252 15 20.4272C15 20.4292 15 20.4311 15 20.4331C15 20.435 15 20.437 15 20.4389C15 20.4409 15 20.4429 15 20.4448C15 20.4468 15 20.4487 15 20.4507C15 20.4527 15 20.4546 15 20.4566C15 20.4585 15 20.4605 15 20.4625C15 20.4644 15 20.4664 15 20.4683C15 20.4703 15 20.4723 15 20.4742C15 20.4762 15 20.4781 15 20.4801C15 20.4821 15 20.484 15 20.486C15 20.488 15 20.4899 15 20.4919C15 20.4938 15 20.4958 15 20.4978C15 20.4997 15 20.5017 15 20.5037C15 20.5056 15 20.5076 15 20.5096C15 20.5115 15 20.5135 15 20.5155C15 20.5174 15 20.5194 15 20.5213C15 20.5233 15 20.5253 15 20.5272C15 20.5292 15 20.5312 15 20.5331C15 20.5351 15 20.5371 15 20.5391C15 20.541 15 20.543 15 20.545C15 20.5469 15 20.5489 15 20.5509C15 20.5528 15 20.5548 15 20.5568C15 20.5587 15 20.5607 15 20.5627C15 20.5646 15 20.5666 15 20.5686C15 20.5706 15 20.5725 15 20.5745C15 20.5765 15 20.5784 15 20.5804C15 20.5824 15 20.5844 15 20.5863C15 20.5883 15 20.5903 15 20.5922C15 20.5942 15 20.5962 15 20.5982C15 20.6001 15 20.6021 15 20.6041C15 20.6061 15 20.608 15 20.61C15 20.612 15 20.614 15 20.6159C15 20.6179 15 20.6199 15 20.6219C15 20.6238 15 20.6258 15 20.6278C15 20.6298 15 20.6317 15 20.6337C15 20.6357 15 20.6377 15 20.6396C15 20.6416 15 20.6436 15 20.6456C15 20.6475 15 20.6495 15 20.6515C15 20.6535 15 20.6555 15 20.6574C15 20.6594 15 20.6614 15 20.6634C15 20.6654 15 20.6673 15 20.6693C15 20.6713 15 20.6733 15 20.6752C15 20.6772 15 20.6792 15 20.6812C15 20.6832 15 20.6852 15 20.6871C15 20.6891 15 20.6911 15 20.6931C15 20.6951 15 20.697 15 20.699C15 20.701 15 20.703 15 20.705C15 20.707 15 20.7089 15 20.7109C15 20.7129 15 20.7149 15 20.7169C15 20.7189 15 20.7208 15 20.7228C15 20.7248 15 20.7268 15 20.7288C15 20.7308 15 20.7327 15 20.7347C15 20.7367 15 20.7387 15 20.7407C15 20.7427 15 20.7447 15 20.7466C15 20.7486 15 20.7506 15 20.7526C15 20.7546 15 20.7566 15 20.7586C15 20.7606 15 20.7625 15 20.7645C15 20.7665 15 20.7685 15 20.7705C15 20.7725 15 20.7745 15 20.7765C15 20.7785 15 20.7804 15 20.7824C15 20.7844 15 20.7864 15 20.7884C15 20.7904 15 20.7924 15 20.7944C15 20.7964 15 20.7984 15 20.8003C15 20.8023 15 20.8043 15 20.8063C15 20.8083 15 20.8103 15 20.8123C15 20.8143 15 20.8163 15 20.8183C15 20.8203 15 20.8223 15 20.8243C15 20.8262 15 20.8282 15 20.8302C15 20.8322 15 20.8342 15 20.8362C15 20.8382 15 20.8402 15 20.8422C15 20.8442 15 20.8462 15 20.8482C15 20.8502 15 20.8522 15 20.8542C15 20.8562 15 20.8582 15 20.8602C15 20.8622 15 20.8642 15 20.8662C15 20.8681 15 20.8701 15 20.8721C15 20.8741 15 20.8761 15 20.8781C15 20.8801 15 20.8821 15 20.8841C15 20.8861 15 20.8881 15 20.8901C15 20.8921 15 20.8941 15 20.8961C15 20.8981 15 20.9001 15 20.9021C15 20.9041 15 20.9061 15 20.9081C15 20.9101 15 20.9121 15 20.9141C15 20.9161 15 20.9181 15 20.9201C15 20.9221 15 20.9241 15 20.9261C15 20.9281 15 20.9301 15 20.9321C15 20.9341 15 20.9361 15 20.9382C15 20.9402 15 20.9422 15 20.9442C15 20.9462 15 20.9482 15 20.9502C15 20.9522 15 20.9542 15 20.9562C15 20.9582 15 20.9602 15 20.9622C15 20.9642 15 20.9662 15 20.9682C15 20.9702 15 20.9722 15 20.9742C15 20.9762 15 20.9782 15 20.9803C15 20.9823 15 20.9843 15 20.9863C15 20.9883 15 20.9903 15 20.9923C15 20.9943 15 20.9963 15 20.9983C15 21.0003 15 21.0023 15 21.0043C15 21.0064 15 21.0084 15 21.0104C15 21.0124 15 21.0144 15 21.0164C15 21.0184 15 21.0204 15 21.0224C15 21.0244 15 21.0264 15 21.0285C15 21.0305 15 21.0325 15 21.0345C15 21.0365 15 21.0385 15 21.0405C15 21.0425 15 21.0445 15 21.0466C15 21.0486 15 21.0506 15 21.0526C15 21.0546 15 21.0566 15 21.0586C15 21.0606 15 21.0627 15 21.0647C15 21.0667 15 21.0687 15 21.0707C15 21.0727 15 21.0747 15 21.0768C15 21.0788 15 21.0808 15 21.0828C15 21.0848 15 21.0868 15 21.0888C15 21.0909 15 21.0929 15 21.0949C15 21.0969 15 21.0989 15 21.1009C15 21.103 15 21.105 15 21.107C15 21.109 15 21.111 15 21.113C15 21.1151 15 21.1171 15 21.1191C15 21.1211 15 21.1231 15 21.1252C15 21.1272 15 21.1292 15 21.1312C15 21.1332 15 21.1352 15 21.1373C15 21.1393 15 21.1413 15 21.1433C15 21.1453 15 21.1474 15 21.1494C15 21.1514 15 21.1534 15 21.1554C15 21.1575 15 21.1595 15 21.1615C15 21.1635 15 21.1656 15 21.1676C15 21.1696 15 21.1716 15 21.1736C15 21.1757 15 21.1777 15 21.1797C15 21.1817 15 21.1838 15 21.1858C15 21.1878 15 21.1898 15 21.1919C15 21.1939 15 21.1959 15 21.1979C15 21.1999 15 21.202 15 21.204C15 21.206 15 21.208 15 21.2101C15 21.2121 15 21.2141 15 21.2161C15 21.2182 15 21.2202 15 21.2222C15 21.2243 15 21.2263 15 21.2283C15 21.2303 15 21.2324 15 21.2344C15 21.2364 15 21.2384 15 21.2405C15 21.2425 15 21.2445 15 21.2466C15 21.2486 15 21.2506 15 21.2526C15 21.2547 15 21.2567 15 21.2587C15 21.2608 15 21.2628 15 21.2648C15 21.2668 15 21.2689 15 21.2709C15 21.2729 15 21.275 15 21.277C15 21.279 15 21.2811 15 21.2831C15 21.2851 15 21.2871 15 21.2892C15 21.2912 15 21.2932 15 21.2953C15 21.2973 15 21.2993 15 21.3014C15 21.3034 15 21.3054 15 21.3075C15 21.3095 15 21.3115 15 21.3136C15 21.3156 15 21.3176 15 21.3197C15 21.3217 15 21.3237 15 21.3258C15 21.3278 15 21.3298 15 21.3319C15 21.3339 15 21.3359 15 21.338C15 21.34 15 21.342 15 21.3441C15 21.3461 15 21.3482 15 21.3502C15 21.3522 15 21.3543 15 21.3563C15 21.3583 15 21.3604 15 21.3624C15 21.3644 15 21.3665 15 21.3685C15 21.3706 15 21.3726 15 21.3746C15 21.3767 15 21.3787 15 21.3807C15 21.3828 15 21.3848 15 21.3869C15 21.3889 15 21.3909 15 21.393C15 21.395 15 21.3971 15 21.3991C15 21.4011 15 21.4032 15 21.4052C15 21.4073 15 21.4093 15 21.4113C15 21.4134 15 21.4154 15 21.4175C15 21.4195 15 21.4215 15 21.4236C15 21.4256 15 21.4277 15 21.4297C15 21.4317 15 21.4338 15 21.4358C15 21.4379 15 21.4399 15 21.442C15 21.444 15 21.446 15 21.4481C15 21.4501 15 21.4522 15 21.4542C15 21.4563 15 21.4583 15 21.4604C15 21.4624 15 21.4644 15 21.4665C15 21.4685 15 21.4706 15 21.4726C15 21.4747 15 21.4767 15 21.4788C15 21.4808 15 21.4828 15 21.4849C15 21.4869 15 21.489 15 21.491C15 21.4931 15 21.4951 15 21.4972C15 21.4992 15 21.5013 15 21.5033C15 21.5054 15 21.5074 15 21.5095C15 21.5115 15 21.5136 15 21.5156C15 21.5177 15 21.5197 15 21.5217C15 21.5238 15 21.5258 15 21.5279C15 21.5299 15 21.532 15 21.534C15 21.5361 15 21.5381 15 21.5402C15 21.5422 15 21.5443 15 21.5463C15 21.5484 15 21.5504 15 21.5525C15 21.5545 15 21.5566 15 21.5586C15 21.5607 15 21.5628 15 21.5648C15 21.5669 15 21.5689 15 21.571C15 21.573 15 21.5751 15 21.5771C15 21.5792 15 21.5812 15 21.5833C15 21.5853 15 21.5874 15 21.5894C15 21.5915 15 21.5935 15 21.5956C15 21.5977 15 21.5997 15 21.6018C15 21.6038 15 21.6059 15 21.6079C15 21.61 15 21.612 15 21.6141C15 21.6161 15 21.6182 15 21.6203C15 21.6223 15 21.6244 15 21.6264C15 21.6285 15 21.6305 15 21.6326C15 21.6346 15 21.6367 15 21.6388C15 21.6408 15 21.6429 15 21.6449C15 21.647 15 21.6491 15 21.6511C15 21.6532 15 21.6552 15 21.6573C15 21.6593 15 21.6614 15 21.6635C15 21.6655 15 21.6676 15 21.6696C15 21.6717 15 21.6738 15 21.6758C15 21.6779 15 21.6799 15 21.682C15 21.6841 15 21.6861 15 21.6882C15 21.6902 15 21.6923 15 21.6944C15 21.6964 15 21.6985 15 21.7005C15 21.7026 15 21.7047 15 21.7067C15 21.7088 15 21.7108 15 21.7129C15 21.715 15 21.717 15 21.7191C15 21.7212 15 21.7232 15 21.7253C15 21.7273 15 21.7294 15 21.7315C15 21.7335 15 21.7356 15 21.7377C15 21.7397 15 21.7418 15 21.7439C15 21.7459 15 21.748 15 21.7501C15 21.7521 15 21.7542 15 21.7562C15 21.7583 15 21.7604 15 21.7624C15 21.7645 15 21.7666 15 21.7686C15 21.7707 15 21.7728 15 21.7748C15 21.7769 15 21.779 15 21.781C15 21.7831 15 21.7852 15 21.7872C15 21.7893 15 21.7914 15 21.7934C15 21.7955 15 21.7976 15 21.7996C15 21.8017 15 21.8038 15 21.8058C15 21.8079 15 21.81 15 21.8121C15 21.8141 15 21.8162 15 21.8183C15 21.8203 15 21.8224 15 21.8245C15 21.8265 15 21.8286 15 21.8307C15 21.8328 15 21.8348 15 21.8369C15 21.839 15 21.841 15 21.8431C15 21.8452 15 21.8472 15 21.8493C15 21.8514 15 21.8535 15 21.8555C15 21.8576 15 21.8597 15 21.8617C15 21.8638 15 21.8659 15 21.868C15 21.87 15 21.8721 15 21.8742C15 21.8763 15 21.8783 15 21.8804C15 21.8825 15 21.8846 15 21.8866C15 21.8887 15 21.8908 15 21.8928C15 21.8949 15 21.897 15 21.8991C15 21.9011 15 21.9032 15 21.9053C15 21.9074 15 21.9094 15 21.9115C15 21.9136 15 21.9157 15 21.9177C15 21.9198 15 21.9219 15 21.924C15 21.9261 15 21.9281 15 21.9302C15 21.9323 15 21.9344 15 21.9364C15 21.9385 15 21.9406 15 21.9427C15 21.9447 15 21.9468 15 21.9489C15 21.951 15 21.9531 15 21.9551C15 21.9572 15 21.9593 15 21.9614C15 21.9634 15 21.9655 15 21.9676C15 21.9697 15 21.9718 15 21.9738C15 21.9759 15 21.978 15 21.9801C15 21.9822 15 21.9842 15 21.9863H17C17 21.9842 17 21.9822 17 21.9801C17 21.978 17 21.9759 17 21.9738C17 21.9718 17 21.9697 17 21.9676C17 21.9655 17 21.9634 17 21.9614C17 21.9593 17 21.9572 17 21.9551C17 21.9531 17 21.951 17 21.9489C17 21.9468 17 21.9447 17 21.9427C17 21.9406 17 21.9385 17 21.9364C17 21.9344 17 21.9323 17 21.9302C17 21.9281 17 21.9261 17 21.924C17 21.9219 17 21.9198 17 21.9177C17 21.9157 17 21.9136 17 21.9115C17 21.9094 17 21.9074 17 21.9053C17 21.9032 17 21.9011 17 21.8991C17 21.897 17 21.8949 17 21.8928C17 21.8908 17 21.8887 17 21.8866C17 21.8846 17 21.8825 17 21.8804C17 21.8783 17 21.8763 17 21.8742C17 21.8721 17 21.87 17 21.868C17 21.8659 17 21.8638 17 21.8617C17 21.8597 17 21.8576 17 21.8555C17 21.8535 17 21.8514 17 21.8493C17 21.8472 17 21.8452 17 21.8431C17 21.841 17 21.839 17 21.8369C17 21.8348 17 21.8328 17 21.8307C17 21.8286 17 21.8265 17 21.8245C17 21.8224 17 21.8203 17 21.8183C17 21.8162 17 21.8141 17 21.8121C17 21.81 17 21.8079 17 21.8058C17 21.8038 17 21.8017 17 21.7996C17 21.7976 17 21.7955 17 21.7934C17 21.7914 17 21.7893 17 21.7872C17 21.7852 17 21.7831 17 21.781C17 21.779 17 21.7769 17 21.7748C17 21.7728 17 21.7707 17 21.7686C17 21.7666 17 21.7645 17 21.7624C17 21.7604 17 21.7583 17 21.7562C17 21.7542 17 21.7521 17 21.7501C17 21.748 17 21.7459 17 21.7439C17 21.7418 17 21.7397 17 21.7377C17 21.7356 17 21.7335 17 21.7315C17 21.7294 17 21.7273 17 21.7253C17 21.7232 17 21.7212 17 21.7191C17 21.717 17 21.715 17 21.7129C17 21.7108 17 21.7088 17 21.7067C17 21.7047 17 21.7026 17 21.7005C17 21.6985 17 21.6964 17 21.6944C17 21.6923 17 21.6902 17 21.6882C17 21.6861 17 21.6841 17 21.682C17 21.6799 17 21.6779 17 21.6758C17 21.6738 17 21.6717 17 21.6696C17 21.6676 17 21.6655 17 21.6635C17 21.6614 17 21.6593 17 21.6573C17 21.6552 17 21.6532 17 21.6511C17 21.6491 17 21.647 17 21.6449C17 21.6429 17 21.6408 17 21.6388C17 21.6367 17 21.6346 17 21.6326C17 21.6305 17 21.6285 17 21.6264C17 21.6244 17 21.6223 17 21.6203C17 21.6182 17 21.6161 17 21.6141C17 21.612 17 21.61 17 21.6079C17 21.6059 17 21.6038 17 21.6018C17 21.5997 17 21.5977 17 21.5956C17 21.5935 17 21.5915 17 21.5894C17 21.5874 17 21.5853 17 21.5833C17 21.5812 17 21.5792 17 21.5771C17 21.5751 17 21.573 17 21.571C17 21.5689 17 21.5669 17 21.5648C17 21.5628 17 21.5607 17 21.5586C17 21.5566 17 21.5545 17 21.5525C17 21.5504 17 21.5484 17 21.5463C17 21.5443 17 21.5422 17 21.5402C17 21.5381 17 21.5361 17 21.534C17 21.532 17 21.5299 17 21.5279C17 21.5258 17 21.5238 17 21.5217C17 21.5197 17 21.5177 17 21.5156C17 21.5136 17 21.5115 17 21.5095C17 21.5074 17 21.5054 17 21.5033C17 21.5013 17 21.4992 17 21.4972C17 21.4951 17 21.4931 17 21.491C17 21.489 17 21.4869 17 21.4849C17 21.4828 17 21.4808 17 21.4788C17 21.4767 17 21.4747 17 21.4726C17 21.4706 17 21.4685 17 21.4665C17 21.4644 17 21.4624 17 21.4604C17 21.4583 17 21.4563 17 21.4542C17 21.4522 17 21.4501 17 21.4481C17 21.446 17 21.444 17 21.442C17 21.4399 17 21.4379 17 21.4358C17 21.4338 17 21.4317 17 21.4297C17 21.4277 17 21.4256 17 21.4236C17 21.4215 17 21.4195 17 21.4175C17 21.4154 17 21.4134 17 21.4113C17 21.4093 17 21.4073 17 21.4052C17 21.4032 17 21.4011 17 21.3991C17 21.3971 17 21.395 17 21.393C17 21.3909 17 21.3889 17 21.3869C17 21.3848 17 21.3828 17 21.3807C17 21.3787 17 21.3767 17 21.3746C17 21.3726 17 21.3706 17 21.3685C17 21.3665 17 21.3644 17 21.3624C17 21.3604 17 21.3583 17 21.3563C17 21.3543 17 21.3522 17 21.3502C17 21.3482 17 21.3461 17 21.3441C17 21.342 17 21.34 17 21.338C17 21.3359 17 21.3339 17 21.3319C17 21.3298 17 21.3278 17 21.3258C17 21.3237 17 21.3217 17 21.3197C17 21.3176 17 21.3156 17 21.3136C17 21.3115 17 21.3095 17 21.3075C17 21.3054 17 21.3034 17 21.3014C17 21.2993 17 21.2973 17 21.2953C17 21.2932 17 21.2912 17 21.2892C17 21.2871 17 21.2851 17 21.2831C17 21.2811 17 21.279 17 21.277C17 21.275 17 21.2729 17 21.2709C17 21.2689 17 21.2668 17 21.2648C17 21.2628 17 21.2608 17 21.2587C17 21.2567 17 21.2547 17 21.2526C17 21.2506 17 21.2486 17 21.2466C17 21.2445 17 21.2425 17 21.2405C17 21.2384 17 21.2364 17 21.2344C17 21.2324 17 21.2303 17 21.2283C17 21.2263 17 21.2243 17 21.2222C17 21.2202 17 21.2182 17 21.2161C17 21.2141 17 21.2121 17 21.2101C17 21.208 17 21.206 17 21.204C17 21.202 17 21.1999 17 21.1979C17 21.1959 17 21.1939 17 21.1919C17 21.1898 17 21.1878 17 21.1858C17 21.1838 17 21.1817 17 21.1797C17 21.1777 17 21.1757 17 21.1736C17 21.1716 17 21.1696 17 21.1676C17 21.1656 17 21.1635 17 21.1615C17 21.1595 17 21.1575 17 21.1554C17 21.1534 17 21.1514 17 21.1494C17 21.1474 17 21.1453 17 21.1433C17 21.1413 17 21.1393 17 21.1373C17 21.1352 17 21.1332 17 21.1312C17 21.1292 17 21.1272 17 21.1252C17 21.1231 17 21.1211 17 21.1191C17 21.1171 17 21.1151 17 21.113C17 21.111 17 21.109 17 21.107C17 21.105 17 21.103 17 21.1009C17 21.0989 17 21.0969 17 21.0949C17 21.0929 17 21.0909 17 21.0888C17 21.0868 17 21.0848 17 21.0828C17 21.0808 17 21.0788 17 21.0768C17 21.0747 17 21.0727 17 21.0707C17 21.0687 17 21.0667 17 21.0647C17 21.0627 17 21.0606 17 21.0586C17 21.0566 17 21.0546 17 21.0526C17 21.0506 17 21.0486 17 21.0466C17 21.0445 17 21.0425 17 21.0405C17 21.0385 17 21.0365 17 21.0345C17 21.0325 17 21.0305 17 21.0285C17 21.0264 17 21.0244 17 21.0224C17 21.0204 17 21.0184 17 21.0164C17 21.0144 17 21.0124 17 21.0104C17 21.0084 17 21.0064 17 21.0043C17 21.0023 17 21.0003 17 20.9983C17 20.9963 17 20.9943 17 20.9923C17 20.9903 17 20.9883 17 20.9863C17 20.9843 17 20.9823 17 20.9803C17 20.9782 17 20.9762 17 20.9742C17 20.9722 17 20.9702 17 20.9682C17 20.9662 17 20.9642 17 20.9622C17 20.9602 17 20.9582 17 20.9562C17 20.9542 17 20.9522 17 20.9502C17 20.9482 17 20.9462 17 20.9442C17 20.9422 17 20.9402 17 20.9382C17 20.9361 17 20.9341 17 20.9321C17 20.9301 17 20.9281 17 20.9261C17 20.9241 17 20.9221 17 20.9201C17 20.9181 17 20.9161 17 20.9141C17 20.9121 17 20.9101 17 20.9081C17 20.9061 17 20.9041 17 20.9021C17 20.9001 17 20.8981 17 20.8961C17 20.8941 17 20.8921 17 20.8901C17 20.8881 17 20.8861 17 20.8841C17 20.8821 17 20.8801 17 20.8781C17 20.8761 17 20.8741 17 20.8721C17 20.8701 17 20.8681 17 20.8662C17 20.8642 17 20.8622 17 20.8602C17 20.8582 17 20.8562 17 20.8542C17 20.8522 17 20.8502 17 20.8482C17 20.8462 17 20.8442 17 20.8422C17 20.8402 17 20.8382 17 20.8362C17 20.8342 17 20.8322 17 20.8302C17 20.8282 17 20.8262 17 20.8243C17 20.8223 17 20.8203 17 20.8183C17 20.8163 17 20.8143 17 20.8123C17 20.8103 17 20.8083 17 20.8063C17 20.8043 17 20.8023 17 20.8003C17 20.7984 17 20.7964 17 20.7944C17 20.7924 17 20.7904 17 20.7884C17 20.7864 17 20.7844 17 20.7824C17 20.7804 17 20.7785 17 20.7765C17 20.7745 17 20.7725 17 20.7705C17 20.7685 17 20.7665 17 20.7645C17 20.7625 17 20.7606 17 20.7586C17 20.7566 17 20.7546 17 20.7526C17 20.7506 17 20.7486 17 20.7466C17 20.7447 17 20.7427 17 20.7407C17 20.7387 17 20.7367 17 20.7347C17 20.7327 17 20.7308 17 20.7288C17 20.7268 17 20.7248 17 20.7228C17 20.7208 17 20.7189 17 20.7169C17 20.7149 17 20.7129 17 20.7109C17 20.7089 17 20.707 17 20.705C17 20.703 17 20.701 17 20.699C17 20.697 17 20.6951 17 20.6931C17 20.6911 17 20.6891 17 20.6871C17 20.6852 17 20.6832 17 20.6812C17 20.6792 17 20.6772 17 20.6752C17 20.6733 17 20.6713 17 20.6693C17 20.6673 17 20.6654 17 20.6634C17 20.6614 17 20.6594 17 20.6574C17 20.6555 17 20.6535 17 20.6515C17 20.6495 17 20.6475 17 20.6456C17 20.6436 17 20.6416 17 20.6396C17 20.6377 17 20.6357 17 20.6337C17 20.6317 17 20.6298 17 20.6278C17 20.6258 17 20.6238 17 20.6219C17 20.6199 17 20.6179 17 20.6159C17 20.614 17 20.612 17 20.61C17 20.608 17 20.6061 17 20.6041C17 20.6021 17 20.6001 17 20.5982C17 20.5962 17 20.5942 17 20.5922C17 20.5903 17 20.5883 17 20.5863C17 20.5844 17 20.5824 17 20.5804C17 20.5784 17 20.5765 17 20.5745C17 20.5725 17 20.5706 17 20.5686C17 20.5666 17 20.5646 17 20.5627C17 20.5607 17 20.5587 17 20.5568C17 20.5548 17 20.5528 17 20.5509C17 20.5489 17 20.5469 17 20.545C17 20.543 17 20.541 17 20.5391C17 20.5371 17 20.5351 17 20.5331C17 20.5312 17 20.5292 17 20.5272C17 20.5253 17 20.5233 17 20.5213C17 20.5194 17 20.5174 17 20.5155C17 20.5135 17 20.5115 17 20.5096C17 20.5076 17 20.5056 17 20.5037C17 20.5017 17 20.4997 17 20.4978C17 20.4958 17 20.4938 17 20.4919C17 20.4899 17 20.488 17 20.486C17 20.484 17 20.4821 17 20.4801C17 20.4781 17 20.4762 17 20.4742C17 20.4723 17 20.4703 17 20.4683C17 20.4664 17 20.4644 17 20.4625C17 20.4605 17 20.4585 17 20.4566C17 20.4546 17 20.4527 17 20.4507C17 20.4487 17 20.4468 17 20.4448C17 20.4429 17 20.4409 17 20.4389C17 20.437 17 20.435 17 20.4331C17 20.4311 17 20.4292 17 20.4272C17 20.4252 17 20.4233 17 20.4213C17 20.4194 17 20.4174 17 20.4155C17 20.4135 17 20.4115 17 20.4096C17 20.4076 17 20.4057 17 20.4037C17 20.4018 17 20.3998 17 20.3979C17 20.3959 17 20.394 17 20.392C17 20.39 17 20.3881 17 20.3861C17 20.3842 17 20.3822 17 20.3803C17 20.3783 17 20.3764 17 20.3744C17 20.3725 17 20.3705 17 20.3686C17 20.3666 17 20.3647 17 20.3627C17 20.3608 17 20.3588 17 20.3569C17 20.3549 17 20.353 17 20.351C17 20.3491 17 20.3471 17 20.3452C17 20.3432 17 20.3413 17 20.3393C17 20.3374 17 20.3354 17 20.3335C17 20.3315 17 20.3296 17 20.3276C17 20.3257 17 20.3237 17 20.3218C17 20.3198 17 20.3179 17 20.316C17 20.314 17 20.3121 17 20.3101C17 20.3082 17 20.3062 17 20.3043C17 20.3023 17 20.3004 17 20.2984C17 20.2965 17 20.2946 17 20.2926C17 20.2907 17 20.2887 17 20.2868C17 20.2848 17 20.2829 17 20.281C17 20.279 17 20.2771 17 20.2751C17 20.2732 17 20.2712 17 20.2693C17 20.2674 17 20.2654 17 20.2635C17 20.2615 17 20.2596 17 20.2577C17 20.2557 17 20.2538 17 20.2518C17 20.2499 17 20.248 17 20.246C17 20.2441 17 20.2421 17 20.2402C17 20.2383 17 20.2363 17 20.2344C17 20.2324 17 20.2305 17 20.2286C17 20.2266 17 20.2247 17 20.2228C17 20.2208 17 20.2189 17 20.217C17 20.215 17 20.2131 17 20.2111C17 20.2092 17 20.2073 17 20.2053C17 20.2034 17 20.2015 17 20.1995C17 20.1976 17 20.1957 17 20.1937C17 20.1918 17 20.1899 17 20.1879C17 20.186 17 20.1841 17 20.1821C17 20.1802 17 20.1783 17 20.1763C17 20.1744 17 20.1725 17 20.1705C17 20.1686 17 20.1667 17 20.1647C17 20.1628 17 20.1609 17 20.1589C17 20.157 17 20.1551 17 20.1532C17 20.1512 17 20.1493 17 20.1474C17 20.1454 17 20.1435 17 20.1416C17 20.1397 17 20.1377 17 20.1358C17 20.1339 17 20.1319 17 20.13C17 20.1281 17 20.1262 17 20.1242C17 20.1223 17 20.1204 17 20.1185C17 20.1165 17 20.1146 17 20.1127C17 20.1108 17 20.1088 17 20.1069C17 20.105 17 20.1031 17 20.1011C17 20.0992 17 20.0973 17 20.0954C17 20.0934 17 20.0915 17 20.0896C17 20.0877 17 20.0857 17 20.0838C17 20.0819 17 20.08 17 20.078C17 20.0761 17 20.0742 17 20.0723C17 20.0704 17 20.0684 17 20.0665C17 20.0646 17 20.0627 17 20.0608C17 20.0588 17 20.0569 17 20.055C17 20.0531 17 20.0512 17 20.0492C17 20.0473 17 20.0454 17 20.0435C17 20.0416 17 20.0396 17 20.0377C17 20.0358 17 20.0339 17 20.032C17 20.0301 17 20.0281 17 20.0262C17 20.0243 17 20.0224 17 20.0205C17 20.0186 17 20.0166 17 20.0147C17 20.0128 17 20.0109 17 20.009C17 20.0071 17 20.0052 17 20.0032C17 20.0013 17 19.9994 17 19.9975C17 19.9956 17 19.9937 17 19.9918C17 19.9898 17 19.9879 17 19.986C17 19.9841 17 19.9822 17 19.9803C17 19.9784 17 19.9765 17 19.9746C17 19.9726 17 19.9707 17 19.9688C17 19.9669 17 19.965 17 19.9631C17 19.9612 17 19.9593 17 19.9574C17 19.9555 17 19.9535 17 19.9516C17 19.9497 17 19.9478 17 19.9459C17 19.944 17 19.9421 17 19.9402C17 19.9383 17 19.9364 17 19.9345C17 19.9326 17 19.9307 17 19.9287C17 19.9268 17 19.9249 17 19.923C17 19.9211 17 19.9192 17 19.9173C17 19.9154 17 19.9135 17 19.9116C17 19.9097 17 19.9078 17 19.9059C17 19.904 17 19.9021 17 19.9002C17 19.8983 17 19.8964 17 19.8945C17 19.8926 17 19.8907 17 19.8888C17 19.8869 17 19.885 17 19.8831C17 19.8812 17 19.8793 17 19.8774C17 19.8755 17 19.8736 17 19.8717C17 19.8698 17 19.8679 17 19.866C17 19.8641 17 19.8622 17 19.8603C17 19.8584 17 19.8565 17 19.8546C17 19.8527 17 19.8508 17 19.8489C17 19.847 17 19.8451 17 19.8432C17 19.8413 17 19.8394 17 19.8375C17 19.8356 17 19.8337 17 19.8318C17 19.8299 17 19.828 17 19.8261C17 19.8242 17 19.8223 17 19.8204C17 19.8185 17 19.8166 17 19.8147C17 19.8129 17 19.811 17 19.8091C17 19.8072 17 19.8053 17 19.8034C17 19.8015 17 19.7996 17 19.7977C17 19.7958 17 19.7939 17 19.792C17 19.7901 17 19.7883 17 19.7864C17 19.7845 17 19.7826 17 19.7807C17 19.7788 17 19.7769 17 19.775C17 19.7731 17 19.7713 17 19.7694C17 19.7675 17 19.7656 17 19.7637C17 19.7618 17 19.7599 17 19.758C17 19.7561 17 19.7543 17 19.7524C17 19.7505 17 19.7486 17 19.7467C17 19.7448 17 19.7429 17 19.7411C17 19.7392 17 19.7373 17 19.7354C17 19.7335 17 19.7316 17 19.7298C17 19.7279 17 19.726 17 19.7241C17 19.7222 17 19.7203 17 19.7184C17 19.7166 17 19.7147 17 19.7128C17 19.7109 17 19.709 17 19.7072C17 19.7053 17 19.7034 17 19.7015C17 19.6996 17 19.6978 17 19.6959C17 19.694 17 19.6921 17 19.6902C17 19.6884 17 19.6865 17 19.6846C17 19.6827 17 19.6808 17 19.679C17 19.6771 17 19.6752 17 19.6733C17 19.6714 17 19.6696 17 19.6677C17 19.6658 17 19.6639 17 19.6621C17 19.6602 17 19.6583 17 19.6564C17 19.6546 17 19.6527 17 19.6508C17 19.6489 17 19.6471 17 19.6452C17 19.6433 17 19.6414 17 19.6396C17 19.6377 17 19.6358 17 19.6339C17 19.6321 17 19.6302 17 19.6283C17 19.6265 17 19.6246 17 19.6227C17 19.6208 17 19.619 17 19.6171C17 19.6152 17 19.6134 17 19.6115C17 19.6096 17 19.6077 17 19.6059C17 19.604 17 19.6021 17 19.6003C17 19.5984 17 19.5965 17 19.5947C17 19.5928 17 19.5909 17 19.5891C17 19.5872 17 19.5853 17 19.5834C17 19.5816 17 19.5797 17 19.5778C17 19.576 17 19.5741 17 19.5723C17 19.5704 17 19.5685 17 19.5667C17 19.5648 17 19.5629 17 19.5611C17 19.5592 17 19.5573 17 19.5555C17 19.5536 17 19.5517 17 19.5499C17 19.548 17 19.5462 17 19.5443C17 19.5424 17 19.5406 17 19.5387C17 19.5368 17 19.535 17 19.5331C17 19.5313 17 19.5294 17 19.5275C17 19.5257 17 19.5238 17 19.522C17 19.5201 17 19.5182 17 19.5164C17 19.5145 17 19.5127 17 19.5108C17 19.5089 17 19.5071 17 19.5052C17 19.5034 17 19.5015 17 19.4997C17 19.4978 17 19.4959 17 19.4941C17 19.4922 17 19.4904 17 19.4885C17 19.4867 17 19.4848 17 19.4829C17 19.4811 17 19.4792 17 19.4774C17 19.4755 17 19.4737 17 19.4718C17 19.47 17 19.4681 17 19.4663C17 19.4644 17 19.4626 17 19.4607C17 19.4588 17 19.457 17 19.4551C17 19.4533 17 19.4514 17 19.4496C17 19.4477 17 19.4459 17 19.444C17 19.4422 17 19.4403 17 19.4385C17 19.4366 17 19.4348 17 19.4329C17 19.4311 17 19.4292 17 19.4274C17 19.4255 17 19.4237 17 19.4218C17 19.42 17 19.4182 17 19.4163C17 19.4145 17 19.4126 17 19.4108C17 19.4089 17 19.4071 17 19.4052C17 19.4034 17 19.4015 17 19.3997C17 19.3978 17 19.396 17 19.3942C17 19.3923 17 19.3905 17 19.3886C17 19.3868 17 19.3849 17 19.3831C17 19.3813 17 19.3794 17 19.3776C17 19.3757 17 19.3739 17 19.372C17 19.3702 17 19.3684 17 19.3665C17 19.3647 17 19.3628 17 19.361C17 19.3592 17 19.3573 17 19.3555C17 19.3536 17 19.3518 17 19.35C17 19.3481 17 19.3463 17 19.3444C17 19.3426 17 19.3408 17 19.3389C17 19.3371 17 19.3353 17 19.3334C17 19.3316 17 19.3297 17 19.3279C17 19.3261 17 19.3242 17 19.3224C17 19.3206 17 19.3187 17 19.3169C17 19.3151 17 19.3132 17 19.3114C17 19.3096 17 19.3077 17 19.3059C17 19.3041 17 19.3022 17 19.3004C17 19.2986 17 19.2967 17 19.2949C17 19.2931 17 19.2912 17 19.2894C17 19.2876 17 19.2857 17 19.2839C17 19.2821 17 19.2802 17 19.2784C17 19.2766 17 19.2748 17 19.2729C17 19.2711 17 19.2693 17 19.2674C17 19.2656 17 19.2638 17 19.262C17 19.2601 17 19.2583 17 19.2565C17 19.2546 17 19.2528 17 19.251C17 19.2492 17 19.2473 17 19.2455C17 19.2437 17 19.2419 17 19.24C17 19.2382 17 19.2364 17 19.2346C17 19.2327 17 19.2309 17 19.2291C17 19.2273 17 19.2254 17 19.2236C17 19.2218 17 19.22 17 19.2182C17 19.2163 17 19.2145 17 19.2127C17 19.2109 17 19.209 17 19.2072C17 19.2054 17 19.2036 17 19.2018C17 19.1999 17 19.1981 17 19.1963C17 19.1945 17 19.1927 17 19.1908C17 19.189 17 19.1872 17 19.1854C17 19.1836 17 19.1818 17 19.1799C17 19.1781 17 19.1763 17 19.1745C17 19.1727 17 19.1709 17 19.169C17 19.1672 17 19.1654 17 19.1636C17 19.1618 17 19.16 17 19.1582C17 19.1563 17 19.1545 17 19.1527C17 19.1509 17 19.1491 17 19.1473C17 19.1455 17 19.1436 17 19.1418C17 19.14 17 19.1382 17 19.1364C17 19.1346 17 19.1328 17 19.131C17 19.1292 17 19.1273 17 19.1255C17 19.1237 17 19.1219 17 19.1201C17 19.1183 17 19.1165 17 19.1147C17 19.1129 17 19.1111 17 19.1092C17 19.1074 17 19.1056 17 19.1038C17 19.102 17 19.1002 17 19.0984C17 19.0966 17 19.0948 17 19.093C17 19.0912 17 19.0894 17 19.0876C17 19.0858 17 19.084 17 19.0822C17 19.0804 17 19.0785 17 19.0767C17 19.0749 17 19.0731 17 19.0713C17 19.0695 17 19.0677 17 19.0659C17 19.0641 17 19.0623 17 19.0605C17 19.0587 17 19.0569 17 19.0551C17 19.0533 17 19.0515 17 19.0497C17 19.0479 17 19.0461 17 19.0443C17 19.0425 17 19.0407 17 19.0389C17 19.0371 17 19.0353 17 19.0335C17 19.0317 17 19.0299 17 19.0281C17 19.0263 17 19.0245 17 19.0227C17 19.0209 17 19.0191 17 19.0174C17 19.0156 17 19.0138 17 19.012C17 19.0102 17 19.0084 17 19.0066C17 19.0048 17 19.003 17 19.0012C17 18.9994 17 18.9976 17 18.9958C17 18.994 17 18.9922 17 18.9904H15ZM11.5 15.4912C13.4332 15.4912 15 17.0577 15 18.9904H17C17 15.9527 14.5373 13.4912 11.5 13.4912V15.4912ZM2 18.9904C2 17.0577 3.56678 15.4912 5.5 15.4912V13.4912C2.46266 13.4912 0 15.9527 0 18.9904H2ZM21 19.75V22H23V19.75H21ZM22 21H18.25V23H22V21ZM18.25 17C19.7688 17 21 18.2312 21 19.75H23C23 17.1266 20.8734 15 18.25 15V17ZM17.5 12C16.3954 12 15.5 11.1046 15.5 10H13.5C13.5 12.2091 15.2909 14 17.5 14V12ZM19.5 10C19.5 11.1046 18.6046 12 17.5 12V14C19.7091 14 21.5 12.2091 21.5 10H19.5ZM17.5 8C18.6046 8 19.5 8.89543 19.5 10H21.5C21.5 7.79086 19.7091 6 17.5 6V8ZM17.5 6C15.2909 6 13.5 7.79086 13.5 10H15.5C15.5 8.89543 16.3954 8 17.5 8V6Z" fill="#ECEDF1" fill-opacity="0.75"/>
</svg>
