<svg width="22" height="22" viewBox="0 0 22 22" fill="none" xmlns="http://www.w3.org/2000/svg">
<path fill-rule="evenodd" clip-rule="evenodd" d="M11 22C4.92487 22 0 17.0751 0 11C0 4.92487 4.92487 0 11 0C17.0751 0 22 4.92487 22 11C22 17.0751 17.0751 22 11 22ZM18.3995 16.1247C19.4086 14.6703 20 12.9042 20 11C20 6.02941 15.9706 1.99997 11 1.99997C6.02944 1.99997 2 6.02941 2 11C2 12.9042 2.5914 14.6703 3.60053 16.1247C4.726 14.6381 7.37063 14 11 14C14.6294 14 17.274 14.6381 18.3995 16.1247ZM16.9647 17.7398C16.6719 16.6874 14.5693 16 11 16C7.43069 16 5.32809 16.6874 5.03534 17.7398C6.62332 19.1462 8.71195 20 11 20C13.2881 20 15.3767 19.1462 16.9647 17.7398ZM11 5.00002C8.5791 5.00002 7 6.75578 7 9.00002C7 12.4274 8.76086 14 11 14C13.2181 14 15 12.4796 15 9.20002C15 6.9216 13.4142 5.00002 11 5.00002ZM9 8.99999C9 11.2693 9.81821 12 11 12C12.1777 12 13 11.2984 13 9.2C13 7.95041 12.2157 6.99999 11 6.99999C9.73374 6.99999 9 7.81582 9 8.99999Z" fill="#ECEDF1" fill-opacity="0.65"/>
</svg>
