<svg width="21" height="21" viewBox="0 0 21 21" fill="none" xmlns="http://www.w3.org/2000/svg">
<path d="M14.5714 19.9876V20.6376H15.2214V19.9876H14.5714ZM1 19.9876H0.35V20.6376H1V19.9876ZM20 20V20.65H20.65V20H20ZM11.2071 5.06877C11.2071 6.95671 9.67591 8.48755 7.78571 8.48755V9.78755C10.3931 9.78755 12.5071 7.67548 12.5071 5.06877H11.2071ZM7.78571 8.48755C5.89551 8.48755 4.36429 6.95671 4.36429 5.06877H3.06429C3.06429 7.67548 5.17834 9.78755 7.78571 9.78755V8.48755ZM4.36429 5.06877C4.36429 3.18084 5.89551 1.65 7.78571 1.65V0.35C5.17834 0.35 3.06429 2.46207 3.06429 5.06877H4.36429ZM7.78571 1.65C9.67591 1.65 11.2071 3.18084 11.2071 5.06877H12.5071C12.5071 2.46207 10.3931 0.35 7.78571 0.35V1.65ZM14.5714 19.3376H1V20.6376H14.5714V19.3376ZM1.65 19.9876C1.65 19.9857 1.65 19.9839 1.65 19.982C1.65 19.9801 1.65 19.9782 1.65 19.9763C1.65 19.9745 1.65 19.9726 1.65 19.9707C1.65 19.9688 1.65 19.9669 1.65 19.965C1.65 19.9632 1.65 19.9613 1.65 19.9594C1.65 19.9575 1.65 19.9556 1.65 19.9538C1.65 19.9519 1.65 19.95 1.65 19.9481C1.65 19.9462 1.65 19.9444 1.65 19.9425C1.65 19.9406 1.65 19.9387 1.65 19.9369C1.65 19.935 1.65 19.9331 1.65 19.9312C1.65 19.9293 1.65 19.9275 1.65 19.9256C1.65 19.9237 1.65 19.9218 1.65 19.9199C1.65 19.9181 1.65 19.9162 1.65 19.9143C1.65 19.9124 1.65 19.9106 1.65 19.9087C1.65 19.9068 1.65 19.9049 1.65 19.9031C1.65 19.9012 1.65 19.8993 1.65 19.8974C1.65 19.8955 1.65 19.8937 1.65 19.8918C1.65 19.8899 1.65 19.888 1.65 19.8862C1.65 19.8843 1.65 19.8824 1.65 19.8805C1.65 19.8787 1.65 19.8768 1.65 19.8749C1.65 19.873 1.65 19.8712 1.65 19.8693C1.65 19.8674 1.65 19.8655 1.65 19.8637C1.65 19.8618 1.65 19.8599 1.65 19.858C1.65 19.8562 1.65 19.8543 1.65 19.8524C1.65 19.8506 1.65 19.8487 1.65 19.8468C1.65 19.8449 1.65 19.8431 1.65 19.8412C1.65 19.8393 1.65 19.8374 1.65 19.8356C1.65 19.8337 1.65 19.8318 1.65 19.83C1.65 19.8281 1.65 19.8262 1.65 19.8243C1.65 19.8225 1.65 19.8206 1.65 19.8187C1.65 19.8169 1.65 19.815 1.65 19.8131C1.65 19.8112 1.65 19.8094 1.65 19.8075C1.65 19.8056 1.65 19.8038 1.65 19.8019C1.65 19.8 1.65 19.7982 1.65 19.7963C1.65 19.7944 1.65 19.7925 1.65 19.7907C1.65 19.7888 1.65 19.7869 1.65 19.7851C1.65 19.7832 1.65 19.7813 1.65 19.7795C1.65 19.7776 1.65 19.7757 1.65 19.7739C1.65 19.772 1.65 19.7701 1.65 19.7683C1.65 19.7664 1.65 19.7645 1.65 19.7627C1.65 19.7608 1.65 19.7589 1.65 19.757C1.65 19.7552 1.65 19.7533 1.65 19.7514C1.65 19.7496 1.65 19.7477 1.65 19.7459C1.65 19.744 1.65 19.7421 1.65 19.7403C1.65 19.7384 1.65 19.7365 1.65 19.7347C1.65 19.7328 1.65 19.7309 1.65 19.7291C1.65 19.7272 1.65 19.7253 1.65 19.7235C1.65 19.7216 1.65 19.7197 1.65 19.7179C1.65 19.716 1.65 19.7141 1.65 19.7123C1.65 19.7104 1.65 19.7086 1.65 19.7067C1.65 19.7048 1.65 19.703 1.65 19.7011C1.65 19.6992 1.65 19.6974 1.65 19.6955C1.65 19.6936 1.65 19.6918 1.65 19.6899C1.65 19.6881 1.65 19.6862 1.65 19.6843C1.65 19.6825 1.65 19.6806 1.65 19.6788C1.65 19.6769 1.65 19.675 1.65 19.6732C1.65 19.6713 1.65 19.6694 1.65 19.6676C1.65 19.6657 1.65 19.6639 1.65 19.662C1.65 19.6601 1.65 19.6583 1.65 19.6564C1.65 19.6546 1.65 19.6527 1.65 19.6508C1.65 19.649 1.65 19.6471 1.65 19.6453C1.65 19.6434 1.65 19.6415 1.65 19.6397C1.65 19.6378 1.65 19.636 1.65 19.6341C1.65 19.6323 1.65 19.6304 1.65 19.6285C1.65 19.6267 1.65 19.6248 1.65 19.623C1.65 19.6211 1.65 19.6192 1.65 19.6174C1.65 19.6155 1.65 19.6137 1.65 19.6118C1.65 19.61 1.65 19.6081 1.65 19.6063C1.65 19.6044 1.65 19.6025 1.65 19.6007C1.65 19.5988 1.65 19.597 1.65 19.5951C1.65 19.5933 1.65 19.5914 1.65 19.5895C1.65 19.5877 1.65 19.5858 1.65 19.584C1.65 19.5821 1.65 19.5803 1.65 19.5784C1.65 19.5766 1.65 19.5747 1.65 19.5729C1.65 19.571 1.65 19.5692 1.65 19.5673C1.65 19.5654 1.65 19.5636 1.65 19.5617C1.65 19.5599 1.65 19.558 1.65 19.5562C1.65 19.5543 1.65 19.5525 1.65 19.5506C1.65 19.5488 1.65 19.5469 1.65 19.5451C1.65 19.5432 1.65 19.5414 1.65 19.5395C1.65 19.5377 1.65 19.5358 1.65 19.534C1.65 19.5321 1.65 19.5303 1.65 19.5284C1.65 19.5266 1.65 19.5247 1.65 19.5228C1.65 19.521 1.65 19.5191 1.65 19.5173C1.65 19.5154 1.65 19.5136 1.65 19.5117C1.65 19.5099 1.65 19.5081 1.65 19.5062C1.65 19.5044 1.65 19.5025 1.65 19.5007C1.65 19.4988 1.65 19.497 1.65 19.4951C1.65 19.4933 1.65 19.4914 1.65 19.4896C1.65 19.4877 1.65 19.4859 1.65 19.484C1.65 19.4822 1.65 19.4803 1.65 19.4785C1.65 19.4766 1.65 19.4748 1.65 19.4729C1.65 19.4711 1.65 19.4692 1.65 19.4674C1.65 19.4656 1.65 19.4637 1.65 19.4619C1.65 19.46 1.65 19.4582 1.65 19.4563C1.65 19.4545 1.65 19.4526 1.65 19.4508C1.65 19.4489 1.65 19.4471 1.65 19.4453C1.65 19.4434 1.65 19.4416 1.65 19.4397C1.65 19.4379 1.65 19.436 1.65 19.4342C1.65 19.4323 1.65 19.4305 1.65 19.4287C1.65 19.4268 1.65 19.425 1.65 19.4231C1.65 19.4213 1.65 19.4194 1.65 19.4176C1.65 19.4158 1.65 19.4139 1.65 19.4121C1.65 19.4102 1.65 19.4084 1.65 19.4065C1.65 19.4047 1.65 19.4029 1.65 19.401C1.65 19.3992 1.65 19.3973 1.65 19.3955C1.65 19.3937 1.65 19.3918 1.65 19.39C1.65 19.3881 1.65 19.3863 1.65 19.3845C1.65 19.3826 1.65 19.3808 1.65 19.3789C1.65 19.3771 1.65 19.3753 1.65 19.3734C1.65 19.3716 1.65 19.3697 1.65 19.3679C1.65 19.3661 1.65 19.3642 1.65 19.3624C1.65 19.3605 1.65 19.3587 1.65 19.3569C1.65 19.355 1.65 19.3532 1.65 19.3514C1.65 19.3495 1.65 19.3477 1.65 19.3458C1.65 19.344 1.65 19.3422 1.65 19.3403C1.65 19.3385 1.65 19.3367 1.65 19.3348C1.65 19.333 1.65 19.3312 1.65 19.3293C1.65 19.3275 1.65 19.3256 1.65 19.3238C1.65 19.322 1.65 19.3201 1.65 19.3183C1.65 19.3165 1.65 19.3146 1.65 19.3128C1.65 19.311 1.65 19.3091 1.65 19.3073C1.65 19.3055 1.65 19.3036 1.65 19.3018C1.65 19.3 1.65 19.2981 1.65 19.2963C1.65 19.2945 1.65 19.2926 1.65 19.2908C1.65 19.289 1.65 19.2871 1.65 19.2853C1.65 19.2835 1.65 19.2816 1.65 19.2798C1.65 19.278 1.65 19.2761 1.65 19.2743C1.65 19.2725 1.65 19.2706 1.65 19.2688C1.65 19.267 1.65 19.2652 1.65 19.2633C1.65 19.2615 1.65 19.2597 1.65 19.2578C1.65 19.256 1.65 19.2542 1.65 19.2523C1.65 19.2505 1.65 19.2487 1.65 19.2469C1.65 19.245 1.65 19.2432 1.65 19.2414C1.65 19.2395 1.65 19.2377 1.65 19.2359C1.65 19.2341 1.65 19.2322 1.65 19.2304C1.65 19.2286 1.65 19.2267 1.65 19.2249C1.65 19.2231 1.65 19.2213 1.65 19.2194C1.65 19.2176 1.65 19.2158 1.65 19.214C1.65 19.2121 1.65 19.2103 1.65 19.2085C1.65 19.2066 1.65 19.2048 1.65 19.203C1.65 19.2012 1.65 19.1993 1.65 19.1975C1.65 19.1957 1.65 19.1939 1.65 19.192C1.65 19.1902 1.65 19.1884 1.65 19.1866C1.65 19.1847 1.65 19.1829 1.65 19.1811C1.65 19.1793 1.65 19.1774 1.65 19.1756C1.65 19.1738 1.65 19.172 1.65 19.1702C1.65 19.1683 1.65 19.1665 1.65 19.1647C1.65 19.1629 1.65 19.161 1.65 19.1592C1.65 19.1574 1.65 19.1556 1.65 19.1538C1.65 19.1519 1.65 19.1501 1.65 19.1483C1.65 19.1465 1.65 19.1446 1.65 19.1428C1.65 19.141 1.65 19.1392 1.65 19.1374C1.65 19.1355 1.65 19.1337 1.65 19.1319C1.65 19.1301 1.65 19.1283 1.65 19.1264C1.65 19.1246 1.65 19.1228 1.65 19.121C1.65 19.1192 1.65 19.1173 1.65 19.1155C1.65 19.1137 1.65 19.1119 1.65 19.1101C1.65 19.1083 1.65 19.1064 1.65 19.1046C1.65 19.1028 1.65 19.101 1.65 19.0992C1.65 19.0974 1.65 19.0955 1.65 19.0937C1.65 19.0919 1.65 19.0901 1.65 19.0883C1.65 19.0864 1.65 19.0846 1.65 19.0828C1.65 19.081 1.65 19.0792 1.65 19.0774C1.65 19.0756 1.65 19.0737 1.65 19.0719C1.65 19.0701 1.65 19.0683 1.65 19.0665C1.65 19.0647 1.65 19.0629 1.65 19.061C1.65 19.0592 1.65 19.0574 1.65 19.0556C1.65 19.0538 1.65 19.052 1.65 19.0502C1.65 19.0483 1.65 19.0465 1.65 19.0447C1.65 19.0429 1.65 19.0411 1.65 19.0393C1.65 19.0375 1.65 19.0357 1.65 19.0338C1.65 19.032 1.65 19.0302 1.65 19.0284C1.65 19.0266 1.65 19.0248 1.65 19.023C1.65 19.0212 1.65 19.0194 1.65 19.0175C1.65 19.0157 1.65 19.0139 1.65 19.0121C1.65 19.0103 1.65 19.0085 1.65 19.0067C1.65 19.0049 1.65 19.0031 1.65 19.0013C1.65 18.9994 1.65 18.9976 1.65 18.9958C1.65 18.994 1.65 18.9922 1.65 18.9904C1.65 18.9886 1.65 18.9868 1.65 18.985C1.65 18.9832 1.65 18.9814 1.65 18.9796C1.65 18.9778 1.65 18.9759 1.65 18.9741C1.65 18.9723 1.65 18.9705 1.65 18.9687C1.65 18.9669 1.65 18.9651 1.65 18.9633C1.65 18.9615 1.65 18.9597 1.65 18.9579C1.65 18.9561 1.65 18.9543 1.65 18.9525C1.65 18.9507 1.65 18.9489 1.65 18.9471C1.65 18.9452 1.65 18.9434 1.65 18.9416C1.65 18.9398 1.65 18.938 1.65 18.9362C1.65 18.9344 1.65 18.9326 1.65 18.9308C1.65 18.929 1.65 18.9272 1.65 18.9254C1.65 18.9236 1.65 18.9218 1.65 18.92C1.65 18.9182 1.65 18.9164 1.65 18.9146C1.65 18.9128 1.65 18.911 1.65 18.9092C1.65 18.9074 1.65 18.9056 1.65 18.9038C1.65 18.902 1.65 18.9002 1.65 18.8984C1.65 18.8966 1.65 18.8948 1.65 18.893C1.65 18.8912 1.65 18.8894 1.65 18.8876C1.65 18.8858 1.65 18.884 1.65 18.8822C1.65 18.8804 1.65 18.8786 1.65 18.8768C1.65 18.875 1.65 18.8732 1.65 18.8714C1.65 18.8696 1.65 18.8678 1.65 18.866C1.65 18.8642 1.65 18.8624 1.65 18.8606C1.65 18.8588 1.65 18.857 1.65 18.8552C1.65 18.8534 1.65 18.8516 1.65 18.8498C1.65 18.848 1.65 18.8463 1.65 18.8445C1.65 18.8427 1.65 18.8409 1.65 18.8391C1.65 18.8373 1.65 18.8355 1.65 18.8337C1.65 18.8319 1.65 18.8301 1.65 18.8283C1.65 18.8265 1.65 18.8247 1.65 18.8229C1.65 18.8211 1.65 18.8193 1.65 18.8175C1.65 18.8158 1.65 18.814 1.65 18.8122C1.65 18.8104 1.65 18.8086 1.65 18.8068C1.65 18.805 1.65 18.8032 1.65 18.8014C1.65 18.7996 1.65 18.7978 1.65 18.796C1.65 18.7943 1.65 18.7925 1.65 18.7907C1.65 18.7889 1.65 18.7871 1.65 18.7853C1.65 18.7835 1.65 18.7817 1.65 18.7799C1.65 18.7781 1.65 18.7764 1.65 18.7746C1.65 18.7728 1.65 18.771 1.65 18.7692C1.65 18.7674 1.65 18.7656 1.65 18.7638C1.65 18.762 1.65 18.7603 1.65 18.7585C1.65 18.7567 1.65 18.7549 1.65 18.7531C1.65 18.7513 1.65 18.7495 1.65 18.7477C1.65 18.746 1.65 18.7442 1.65 18.7424C1.65 18.7406 1.65 18.7388 1.65 18.737C1.65 18.7352 1.65 18.7335 1.65 18.7317C1.65 18.7299 1.65 18.7281 1.65 18.7263C1.65 18.7245 1.65 18.7227 1.65 18.721C1.65 18.7192 1.65 18.7174 1.65 18.7156C1.65 18.7138 1.65 18.712 1.65 18.7103C1.65 18.7085 1.65 18.7067 1.65 18.7049C1.65 18.7031 1.65 18.7013 1.65 18.6996C1.65 18.6978 1.65 18.696 1.65 18.6942C1.65 18.6924 1.65 18.6907 1.65 18.6889C1.65 18.6871 1.65 18.6853 1.65 18.6835C1.65 18.6817 1.65 18.68 1.65 18.6782C1.65 18.6764 1.65 18.6746 1.65 18.6728C1.65 18.6711 1.65 18.6693 1.65 18.6675C1.65 18.6657 1.65 18.664 1.65 18.6622C1.65 18.6604 1.65 18.6586 1.65 18.6568C1.65 18.6551 1.65 18.6533 1.65 18.6515C1.65 18.6497 1.65 18.6479 1.65 18.6462C1.65 18.6444 1.65 18.6426 1.65 18.6408C1.65 18.6391 1.65 18.6373 1.65 18.6355C1.65 18.6337 1.65 18.632 1.65 18.6302C1.65 18.6284 1.65 18.6266 1.65 18.6249C1.65 18.6231 1.65 18.6213 1.65 18.6195C1.65 18.6178 1.65 18.616 1.65 18.6142C1.65 18.6124 1.65 18.6107 1.65 18.6089C1.65 18.6071 1.65 18.6053 1.65 18.6036C1.65 18.6018 1.65 18.6 1.65 18.5982C1.65 18.5965 1.65 18.5947 1.65 18.5929C1.65 18.5912 1.65 18.5894 1.65 18.5876C1.65 18.5858 1.65 18.5841 1.65 18.5823C1.65 18.5805 1.65 18.5788 1.65 18.577C1.65 18.5752 1.65 18.5734 1.65 18.5717C1.65 18.5699 1.65 18.5681 1.65 18.5664C1.65 18.5646 1.65 18.5628 1.65 18.5611C1.65 18.5593 1.65 18.5575 1.65 18.5558C1.65 18.554 1.65 18.5522 1.65 18.5504C1.65 18.5487 1.65 18.5469 1.65 18.5451C1.65 18.5434 1.65 18.5416 1.65 18.5398C1.65 18.5381 1.65 18.5363 1.65 18.5345C1.65 18.5328 1.65 18.531 1.65 18.5292C1.65 18.5275 1.65 18.5257 1.65 18.5239C1.65 18.5222 1.65 18.5204 1.65 18.5187C1.65 18.5169 1.65 18.5151 1.65 18.5134C1.65 18.5116 1.65 18.5098 1.65 18.5081C1.65 18.5063 1.65 18.5045 1.65 18.5028C1.65 18.501 1.65 18.4992 1.65 18.4975C1.65 18.4957 1.65 18.494 1.65 18.4922C1.65 18.4904 1.65 18.4887 1.65 18.4869C1.65 18.4851 1.65 18.4834 1.65 18.4816C1.65 18.4799 1.65 18.4781 1.65 18.4763C1.65 18.4746 1.65 18.4728 1.65 18.4711C1.65 18.4693 1.65 18.4675 1.65 18.4658C1.65 18.464 1.65 18.4623 1.65 18.4605C1.65 18.4587 1.65 18.457 1.65 18.4552C1.65 18.4535 1.65 18.4517 1.65 18.4499C1.65 18.4482 1.65 18.4464 1.65 18.4447C1.65 18.4429 1.65 18.4412 1.65 18.4394C1.65 18.4376 1.65 18.4359 1.65 18.4341C1.65 18.4324 1.65 18.4306 1.65 18.4289C1.65 18.4271 1.65 18.4253 1.65 18.4236C1.65 18.4218 1.65 18.4201 1.65 18.4183C1.65 18.4166 1.65 18.4148 1.65 18.4131C1.65 18.4113 1.65 18.4096 1.65 18.4078C1.65 18.406 1.65 18.4043 1.65 18.4025C1.65 18.4008 1.65 18.399 1.65 18.3973C1.65 18.3955 1.65 18.3938 1.65 18.392C1.65 18.3903 1.65 18.3885 1.65 18.3868C1.65 18.385 1.65 18.3833 1.65 18.3815C1.65 18.3798 1.65 18.378 1.65 18.3763C1.65 18.3745 1.65 18.3728 1.65 18.371C1.65 18.3693 1.65 18.3675 1.65 18.3658C1.65 18.364 1.65 18.3623 1.65 18.3605C1.65 18.3588 1.65 18.357 1.65 18.3553C1.65 18.3535 1.65 18.3518 1.65 18.35C1.65 18.3483 1.65 18.3465 1.65 18.3448C1.65 18.343 1.65 18.3413 1.65 18.3395C1.65 18.3378 1.65 18.336 1.65 18.3343C1.65 18.3325 1.65 18.3308 1.65 18.329C1.65 18.3273 1.65 18.3256 1.65 18.3238C1.65 18.3221 1.65 18.3203 1.65 18.3186C1.65 18.3168 1.65 18.3151 1.65 18.3133C1.65 18.3116 1.65 18.3099 1.65 18.3081C1.65 18.3064 1.65 18.3046 1.65 18.3029C1.65 18.3011 1.65 18.2994 1.65 18.2976C1.65 18.2959 1.65 18.2942 1.65 18.2924C1.65 18.2907 1.65 18.2889 1.65 18.2872C1.65 18.2855 1.65 18.2837 1.65 18.282C1.65 18.2802 1.65 18.2785 1.65 18.2767C1.65 18.275 1.65 18.2733 1.65 18.2715C1.65 18.2698 1.65 18.268 1.65 18.2663C1.65 18.2646 1.65 18.2628 1.65 18.2611C1.65 18.2594 1.65 18.2576 1.65 18.2559C1.65 18.2541 1.65 18.2524 1.65 18.2507C1.65 18.2489 1.65 18.2472 1.65 18.2454C1.65 18.2437 1.65 18.242 1.65 18.2402C1.65 18.2385 1.65 18.2368 1.65 18.235C1.65 18.2333 1.65 18.2316 1.65 18.2298C1.65 18.2281 1.65 18.2263 1.65 18.2246C1.65 18.2229 1.65 18.2211 1.65 18.2194C1.65 18.2177 1.65 18.2159 1.65 18.2142C1.65 18.2125 1.65 18.2107 1.65 18.209C1.65 18.2073 1.65 18.2055 1.65 18.2038C1.65 18.2021 1.65 18.2003 1.65 18.1986C1.65 18.1969 1.65 18.1951 1.65 18.1934C1.65 18.1917 1.65 18.1899 1.65 18.1882C1.65 18.1865 1.65 18.1848 1.65 18.183C1.65 18.1813 1.65 18.1796 1.65 18.1778C1.65 18.1761 1.65 18.1744 1.65 18.1726C1.65 18.1709 1.65 18.1692 1.65 18.1675C1.65 18.1657 1.65 18.164 1.65 18.1623C1.65 18.1605 1.65 18.1588 1.65 18.1571C1.65 18.1554 1.65 18.1536 1.65 18.1519C1.65 18.1502 1.65 18.1484 1.65 18.1467C1.65 18.145 1.65 18.1433 1.65 18.1415C1.65 18.1398 1.65 18.1381 1.65 18.1364C1.65 18.1346 1.65 18.1329 1.65 18.1312C1.65 18.1295 1.65 18.1277 1.65 18.126C1.65 18.1243 1.65 18.1226 1.65 18.1208C1.65 18.1191 1.65 18.1174 1.65 18.1157C1.65 18.1139 1.65 18.1122 1.65 18.1105C1.65 18.1088 1.65 18.107 1.65 18.1053C1.65 18.1036 1.65 18.1019 1.65 18.1002C1.65 18.0984 1.65 18.0967 1.65 18.095C1.65 18.0933 1.65 18.0916 1.65 18.0898C1.65 18.0881 1.65 18.0864 1.65 18.0847C1.65 18.083 1.65 18.0812 1.65 18.0795C1.65 18.0778 1.65 18.0761 1.65 18.0744C1.65 18.0726 1.65 18.0709 1.65 18.0692C1.65 18.0675 1.65 18.0658 1.65 18.064C1.65 18.0623 1.65 18.0606 1.65 18.0589C1.65 18.0572 1.65 18.0555 1.65 18.0537C1.65 18.052 1.65 18.0503 1.65 18.0486C1.65 18.0469 1.65 18.0452 1.65 18.0434C1.65 18.0417 1.65 18.04 1.65 18.0383C1.65 18.0366 1.65 18.0349 1.65 18.0332C1.65 18.0314 1.65 18.0297 1.65 18.028C1.65 18.0263 1.65 18.0246 1.65 18.0229C1.65 18.0212 1.65 18.0194 1.65 18.0177C1.65 18.016 1.65 18.0143 1.65 18.0126C1.65 18.0109 1.65 18.0092 1.65 18.0075C1.65 18.0057 1.65 18.004 1.65 18.0023C1.65 18.0006 1.65 17.9989 1.65 17.9972C1.65 17.9955 1.65 17.9938 1.65 17.9921C1.65 17.9904 1.65 17.9886 1.65 17.9869C1.65 17.9852 1.65 17.9835 1.65 17.9818C1.65 17.9801 1.65 17.9784 1.65 17.9767C1.65 17.975 1.65 17.9733 1.65 17.9716C1.65 17.9698 1.65 17.9681 1.65 17.9664C1.65 17.9647 1.65 17.963 1.65 17.9613C1.65 17.9596 1.65 17.9579 1.65 17.9562C1.65 17.9545 1.65 17.9528 1.65 17.9511C1.65 17.9494 1.65 17.9477 1.65 17.946C1.65 17.9443 1.65 17.9426 1.65 17.9409C1.65 17.9391 1.65 17.9374 1.65 17.9357C1.65 17.934 1.65 17.9323 1.65 17.9306C1.65 17.9289 1.65 17.9272 1.65 17.9255C1.65 17.9238 1.65 17.9221 1.65 17.9204C1.65 17.9187 1.65 17.917 1.65 17.9153C1.65 17.9136 1.65 17.9119 1.65 17.9102C1.65 17.9085 1.65 17.9068 1.65 17.9051C1.65 17.9034 1.65 17.9017 1.65 17.9C1.65 17.8983 1.65 17.8966 1.65 17.8949C1.65 17.8932 1.65 17.8915 1.65 17.8898C1.65 17.8881 1.65 17.8864 1.65 17.8847C1.65 17.883 1.65 17.8813 1.65 17.8796C1.65 17.8779 1.65 17.8762 1.65 17.8745C1.65 17.8728 1.65 17.8711 1.65 17.8695C1.65 17.8678 1.65 17.8661 1.65 17.8644C1.65 17.8627 1.65 17.861 1.65 17.8593C1.65 17.8576 1.65 17.8559 1.65 17.8542C1.65 17.8525 1.65 17.8508 1.65 17.8491C1.65 17.8474 1.65 17.8457 1.65 17.844C1.65 17.8423 1.65 17.8407 1.65 17.839C1.65 17.8373 1.65 17.8356 1.65 17.8339C1.65 17.8322 1.65 17.8305 1.65 17.8288C1.65 17.8271 1.65 17.8254 1.65 17.8237C1.65 17.822 1.65 17.8204 1.65 17.8187C1.65 17.817 1.65 17.8153 1.65 17.8136C1.65 17.8119 1.65 17.8102 1.65 17.8085C1.65 17.8068 1.65 17.8052 1.65 17.8035C1.65 17.8018 1.65 17.8001 1.65 17.7984C1.65 17.7967 1.65 17.795 1.65 17.7933C1.65 17.7917 1.65 17.79 1.65 17.7883C1.65 17.7866 1.65 17.7849 1.65 17.7832C1.65 17.7815 1.65 17.7799 1.65 17.7782C1.65 17.7765 1.65 17.7748 1.65 17.7731C1.65 17.7714 1.65 17.7697 1.65 17.7681C1.65 17.7664 1.65 17.7647 1.65 17.763C1.65 17.7613 1.65 17.7596 1.65 17.758C1.65 17.7563 1.65 17.7546 1.65 17.7529C1.65 17.7512 1.65 17.7495 1.65 17.7479C1.65 17.7462 1.65 17.7445 1.65 17.7428C1.65 17.7411 1.65 17.7395 1.65 17.7378C1.65 17.7361 1.65 17.7344 1.65 17.7327C1.65 17.7311 1.65 17.7294 1.65 17.7277C1.65 17.726 1.65 17.7243 1.65 17.7227C1.65 17.721 1.65 17.7193 1.65 17.7176C1.65 17.716 1.65 17.7143 1.65 17.7126C1.65 17.7109 1.65 17.7092 1.65 17.7076C1.65 17.7059 1.65 17.7042 1.65 17.7025C1.65 17.7009 1.65 17.6992 1.65 17.6975C1.65 17.6958 1.65 17.6942 1.65 17.6925C1.65 17.6908 1.65 17.6891 1.65 17.6875C1.65 17.6858 1.65 17.6841 1.65 17.6824C1.65 17.6808 1.65 17.6791 1.65 17.6774C1.65 17.6757 1.65 17.6741 1.65 17.6724C1.65 17.6707 1.65 17.6691 1.65 17.6674C1.65 17.6657 1.65 17.664 1.65 17.6624C1.65 17.6607 1.65 17.659 1.65 17.6574C1.65 17.6557 1.65 17.654 1.65 17.6523C1.65 17.6507 1.65 17.649 1.65 17.6473C1.65 17.6457 1.65 17.644 1.65 17.6423C1.65 17.6407 1.65 17.639 1.65 17.6373C1.65 17.6357 1.65 17.634 1.65 17.6323C1.65 17.6307 1.65 17.629 1.65 17.6273C1.65 17.6257 1.65 17.624 1.65 17.6223C1.65 17.6207 1.65 17.619 1.65 17.6173C1.65 17.6157 1.65 17.614 1.65 17.6123C1.65 17.6107 1.65 17.609 1.65 17.6073C1.65 17.6057 1.65 17.604 1.65 17.6023C1.65 17.6007 1.65 17.599 1.65 17.5974C1.65 17.5957 1.65 17.594 1.65 17.5924C1.65 17.5907 1.65 17.589 1.65 17.5874C1.65 17.5857 1.65 17.5841 1.65 17.5824C1.65 17.5807 1.65 17.5791 1.65 17.5774C1.65 17.5757 1.65 17.5741 1.65 17.5724C1.65 17.5708 1.65 17.5691 1.65 17.5675C1.65 17.5658 1.65 17.5641 1.65 17.5625C1.65 17.5608 1.65 17.5592 1.65 17.5575C1.65 17.5558 1.65 17.5542 1.65 17.5525C1.65 17.5509 1.65 17.5492 1.65 17.5476C1.65 17.5459 1.65 17.5442 1.65 17.5426C1.65 17.5409 1.65 17.5393 1.65 17.5376C1.65 17.536 1.65 17.5343 1.65 17.5326C1.65 17.531 1.65 17.5293 1.65 17.5277C1.65 17.526 1.65 17.5244 1.65 17.5227C1.65 17.5211 1.65 17.5194 1.65 17.5178C1.65 17.5161 1.65 17.5145 1.65 17.5128C1.65 17.5112 1.65 17.5095 1.65 17.5078C1.65 17.5062 1.65 17.5045 1.65 17.5029C1.65 17.5012 1.65 17.4996 1.65 17.4979C1.65 17.4963 1.65 17.4946 1.65 17.493C1.65 17.4913 1.65 17.4897 1.65 17.488C1.65 17.4864 1.65 17.4847 1.65 17.4831C1.65 17.4814 1.65 17.4798 1.65 17.4781C1.65 17.4765 1.65 17.4749 1.65 17.4732C1.65 17.4716 1.65 17.4699 1.65 17.4683C1.65 17.4666 1.65 17.465 1.65 17.4633C1.65 17.4617 1.65 17.46 1.65 17.4584C1.65 17.4567 1.65 17.4551 1.65 17.4535C1.65 17.4518 1.65 17.4502 1.65 17.4485C1.65 17.4469 1.65 17.4452 1.65 17.4436C1.65 17.4419 1.65 17.4403 1.65 17.4387C1.65 17.437 1.65 17.4354 1.65 17.4337C1.65 17.4321 1.65 17.4304 1.65 17.4288C1.65 17.4272 1.65 17.4255 1.65 17.4239C1.65 17.4222 1.65 17.4206 1.65 17.419C1.65 17.4173 1.65 17.4157 1.65 17.414C1.65 17.4124 1.65 17.4108 1.65 17.4091C1.65 17.4075 1.65 17.4058 1.65 17.4042C1.65 17.4026 1.65 17.4009 1.65 17.3993C1.65 17.3977 1.65 17.396 1.65 17.3944C1.65 17.3927 1.65 17.3911 1.65 17.3895C1.65 17.3878 1.65 17.3862 1.65 17.3846C1.65 17.3829 1.65 17.3813 1.65 17.3797C1.65 17.378 1.65 17.3764 1.65 17.3747C1.65 17.3731 1.65 17.3715 1.65 17.3698C1.65 17.3682 1.65 17.3666 1.65 17.3649C1.65 17.3633 1.65 17.3617 1.65 17.36C1.65 17.3584 1.65 17.3568 1.65 17.3551C1.65 17.3535 1.65 17.3519 1.65 17.3503C1.65 17.3486 1.65 17.347 1.65 17.3454C1.65 17.3437 1.65 17.3421 1.65 17.3405C1.65 17.3388 1.65 17.3372 1.65 17.3356C1.65 17.334 1.65 17.3323 1.65 17.3307C1.65 17.3291 1.65 17.3274 1.65 17.3258C1.65 17.3242 1.65 17.3226 1.65 17.3209C1.65 17.3193 1.65 17.3177 1.65 17.316C1.65 17.3144 1.65 17.3128 1.65 17.3112C1.65 17.3095 1.65 17.3079 1.65 17.3063C1.65 17.3047 1.65 17.303 1.65 17.3014C1.65 17.2998 1.65 17.2982 1.65 17.2965C1.65 17.2949 1.65 17.2933 1.65 17.2917C1.65 17.29 1.65 17.2884 1.65 17.2868C1.65 17.2852 1.65 17.2836 1.65 17.2819C1.65 17.2803 1.65 17.2787 1.65 17.2771H0.35C0.35 17.2787 0.35 17.2803 0.35 17.2819C0.35 17.2836 0.35 17.2852 0.35 17.2868C0.35 17.2884 0.35 17.29 0.35 17.2917C0.35 17.2933 0.35 17.2949 0.35 17.2965C0.35 17.2982 0.35 17.2998 0.35 17.3014C0.35 17.303 0.35 17.3047 0.35 17.3063C0.35 17.3079 0.35 17.3095 0.35 17.3112C0.35 17.3128 0.35 17.3144 0.35 17.316C0.35 17.3177 0.35 17.3193 0.35 17.3209C0.35 17.3226 0.35 17.3242 0.35 17.3258C0.35 17.3274 0.35 17.3291 0.35 17.3307C0.35 17.3323 0.35 17.334 0.35 17.3356C0.35 17.3372 0.35 17.3388 0.35 17.3405C0.35 17.3421 0.35 17.3437 0.35 17.3454C0.35 17.347 0.35 17.3486 0.35 17.3503C0.35 17.3519 0.35 17.3535 0.35 17.3551C0.35 17.3568 0.35 17.3584 0.35 17.36C0.35 17.3617 0.35 17.3633 0.35 17.3649C0.35 17.3666 0.35 17.3682 0.35 17.3698C0.35 17.3715 0.35 17.3731 0.35 17.3747C0.35 17.3764 0.35 17.378 0.35 17.3797C0.35 17.3813 0.35 17.3829 0.35 17.3846C0.35 17.3862 0.35 17.3878 0.35 17.3895C0.35 17.3911 0.35 17.3927 0.35 17.3944C0.35 17.396 0.35 17.3977 0.35 17.3993C0.35 17.4009 0.35 17.4026 0.35 17.4042C0.35 17.4058 0.35 17.4075 0.35 17.4091C0.35 17.4108 0.35 17.4124 0.35 17.414C0.35 17.4157 0.35 17.4173 0.35 17.419C0.35 17.4206 0.35 17.4222 0.35 17.4239C0.35 17.4255 0.35 17.4272 0.35 17.4288C0.35 17.4304 0.35 17.4321 0.35 17.4337C0.35 17.4354 0.35 17.437 0.35 17.4387C0.35 17.4403 0.35 17.4419 0.35 17.4436C0.35 17.4452 0.35 17.4469 0.35 17.4485C0.35 17.4502 0.35 17.4518 0.35 17.4535C0.35 17.4551 0.35 17.4567 0.35 17.4584C0.35 17.46 0.35 17.4617 0.35 17.4633C0.35 17.465 0.35 17.4666 0.35 17.4683C0.35 17.4699 0.35 17.4716 0.35 17.4732C0.35 17.4749 0.35 17.4765 0.35 17.4781C0.35 17.4798 0.35 17.4814 0.35 17.4831C0.35 17.4847 0.35 17.4864 0.35 17.488C0.35 17.4897 0.35 17.4913 0.35 17.493C0.35 17.4946 0.35 17.4963 0.35 17.4979C0.35 17.4996 0.35 17.5012 0.35 17.5029C0.35 17.5045 0.35 17.5062 0.35 17.5078C0.35 17.5095 0.35 17.5112 0.35 17.5128C0.35 17.5145 0.35 17.5161 0.35 17.5178C0.35 17.5194 0.35 17.5211 0.35 17.5227C0.35 17.5244 0.35 17.526 0.35 17.5277C0.35 17.5293 0.35 17.531 0.35 17.5326C0.35 17.5343 0.35 17.536 0.35 17.5376C0.35 17.5393 0.35 17.5409 0.35 17.5426C0.35 17.5442 0.35 17.5459 0.35 17.5476C0.35 17.5492 0.35 17.5509 0.35 17.5525C0.35 17.5542 0.35 17.5558 0.35 17.5575C0.35 17.5592 0.35 17.5608 0.35 17.5625C0.35 17.5641 0.35 17.5658 0.35 17.5675C0.35 17.5691 0.35 17.5708 0.35 17.5724C0.35 17.5741 0.35 17.5757 0.35 17.5774C0.35 17.5791 0.35 17.5807 0.35 17.5824C0.35 17.5841 0.35 17.5857 0.35 17.5874C0.35 17.589 0.35 17.5907 0.35 17.5924C0.35 17.594 0.35 17.5957 0.35 17.5974C0.35 17.599 0.35 17.6007 0.35 17.6023C0.35 17.604 0.35 17.6057 0.35 17.6073C0.35 17.609 0.35 17.6107 0.35 17.6123C0.35 17.614 0.35 17.6157 0.35 17.6173C0.35 17.619 0.35 17.6207 0.35 17.6223C0.35 17.624 0.35 17.6257 0.35 17.6273C0.35 17.629 0.35 17.6307 0.35 17.6323C0.35 17.634 0.35 17.6357 0.35 17.6373C0.35 17.639 0.35 17.6407 0.35 17.6423C0.35 17.644 0.35 17.6457 0.35 17.6473C0.35 17.649 0.35 17.6507 0.35 17.6523C0.35 17.654 0.35 17.6557 0.35 17.6574C0.35 17.659 0.35 17.6607 0.35 17.6624C0.35 17.664 0.35 17.6657 0.35 17.6674C0.35 17.6691 0.35 17.6707 0.35 17.6724C0.35 17.6741 0.35 17.6757 0.35 17.6774C0.35 17.6791 0.35 17.6808 0.35 17.6824C0.35 17.6841 0.35 17.6858 0.35 17.6875C0.35 17.6891 0.35 17.6908 0.35 17.6925C0.35 17.6942 0.35 17.6958 0.35 17.6975C0.35 17.6992 0.35 17.7009 0.35 17.7025C0.35 17.7042 0.35 17.7059 0.35 17.7076C0.35 17.7092 0.35 17.7109 0.35 17.7126C0.35 17.7143 0.35 17.716 0.35 17.7176C0.35 17.7193 0.35 17.721 0.35 17.7227C0.35 17.7243 0.35 17.726 0.35 17.7277C0.35 17.7294 0.35 17.7311 0.35 17.7327C0.35 17.7344 0.35 17.7361 0.35 17.7378C0.35 17.7395 0.35 17.7411 0.35 17.7428C0.35 17.7445 0.35 17.7462 0.35 17.7479C0.35 17.7495 0.35 17.7512 0.35 17.7529C0.35 17.7546 0.35 17.7563 0.35 17.758C0.35 17.7596 0.35 17.7613 0.35 17.763C0.35 17.7647 0.35 17.7664 0.35 17.7681C0.35 17.7697 0.35 17.7714 0.35 17.7731C0.35 17.7748 0.35 17.7765 0.35 17.7782C0.35 17.7799 0.35 17.7815 0.35 17.7832C0.35 17.7849 0.35 17.7866 0.35 17.7883C0.35 17.79 0.35 17.7917 0.35 17.7933C0.35 17.795 0.35 17.7967 0.35 17.7984C0.35 17.8001 0.35 17.8018 0.35 17.8035C0.35 17.8052 0.35 17.8068 0.35 17.8085C0.35 17.8102 0.35 17.8119 0.35 17.8136C0.35 17.8153 0.35 17.817 0.35 17.8187C0.35 17.8204 0.35 17.822 0.35 17.8237C0.35 17.8254 0.35 17.8271 0.35 17.8288C0.35 17.8305 0.35 17.8322 0.35 17.8339C0.35 17.8356 0.35 17.8373 0.35 17.839C0.35 17.8407 0.35 17.8423 0.35 17.844C0.35 17.8457 0.35 17.8474 0.35 17.8491C0.35 17.8508 0.35 17.8525 0.35 17.8542C0.35 17.8559 0.35 17.8576 0.35 17.8593C0.35 17.861 0.35 17.8627 0.35 17.8644C0.35 17.8661 0.35 17.8678 0.35 17.8695C0.35 17.8711 0.35 17.8728 0.35 17.8745C0.35 17.8762 0.35 17.8779 0.35 17.8796C0.35 17.8813 0.35 17.883 0.35 17.8847C0.35 17.8864 0.35 17.8881 0.35 17.8898C0.35 17.8915 0.35 17.8932 0.35 17.8949C0.35 17.8966 0.35 17.8983 0.35 17.9C0.35 17.9017 0.35 17.9034 0.35 17.9051C0.35 17.9068 0.35 17.9085 0.35 17.9102C0.35 17.9119 0.35 17.9136 0.35 17.9153C0.35 17.917 0.35 17.9187 0.35 17.9204C0.35 17.9221 0.35 17.9238 0.35 17.9255C0.35 17.9272 0.35 17.9289 0.35 17.9306C0.35 17.9323 0.35 17.934 0.35 17.9357C0.35 17.9374 0.35 17.9391 0.35 17.9409C0.35 17.9426 0.35 17.9443 0.35 17.946C0.35 17.9477 0.35 17.9494 0.35 17.9511C0.35 17.9528 0.35 17.9545 0.35 17.9562C0.35 17.9579 0.35 17.9596 0.35 17.9613C0.35 17.963 0.35 17.9647 0.35 17.9664C0.35 17.9681 0.35 17.9698 0.35 17.9716C0.35 17.9733 0.35 17.975 0.35 17.9767C0.35 17.9784 0.35 17.9801 0.35 17.9818C0.35 17.9835 0.35 17.9852 0.35 17.9869C0.35 17.9886 0.35 17.9904 0.35 17.9921C0.35 17.9938 0.35 17.9955 0.35 17.9972C0.35 17.9989 0.35 18.0006 0.35 18.0023C0.35 18.004 0.35 18.0057 0.35 18.0075C0.35 18.0092 0.35 18.0109 0.35 18.0126C0.35 18.0143 0.35 18.016 0.35 18.0177C0.35 18.0194 0.35 18.0212 0.35 18.0229C0.35 18.0246 0.35 18.0263 0.35 18.028C0.35 18.0297 0.35 18.0314 0.35 18.0332C0.35 18.0349 0.35 18.0366 0.35 18.0383C0.35 18.04 0.35 18.0417 0.35 18.0434C0.35 18.0452 0.35 18.0469 0.35 18.0486C0.35 18.0503 0.35 18.052 0.35 18.0537C0.35 18.0555 0.35 18.0572 0.35 18.0589C0.35 18.0606 0.35 18.0623 0.35 18.064C0.35 18.0658 0.35 18.0675 0.35 18.0692C0.35 18.0709 0.35 18.0726 0.35 18.0744C0.35 18.0761 0.35 18.0778 0.35 18.0795C0.35 18.0812 0.35 18.083 0.35 18.0847C0.35 18.0864 0.35 18.0881 0.35 18.0898C0.35 18.0916 0.35 18.0933 0.35 18.095C0.35 18.0967 0.35 18.0984 0.35 18.1002C0.35 18.1019 0.35 18.1036 0.35 18.1053C0.35 18.107 0.35 18.1088 0.35 18.1105C0.35 18.1122 0.35 18.1139 0.35 18.1157C0.35 18.1174 0.35 18.1191 0.35 18.1208C0.35 18.1226 0.35 18.1243 0.35 18.126C0.35 18.1277 0.35 18.1295 0.35 18.1312C0.35 18.1329 0.35 18.1346 0.35 18.1364C0.35 18.1381 0.35 18.1398 0.35 18.1415C0.35 18.1433 0.35 18.145 0.35 18.1467C0.35 18.1484 0.35 18.1502 0.35 18.1519C0.35 18.1536 0.35 18.1554 0.35 18.1571C0.35 18.1588 0.35 18.1605 0.35 18.1623C0.35 18.164 0.35 18.1657 0.35 18.1675C0.35 18.1692 0.35 18.1709 0.35 18.1726C0.35 18.1744 0.35 18.1761 0.35 18.1778C0.35 18.1796 0.35 18.1813 0.35 18.183C0.35 18.1848 0.35 18.1865 0.35 18.1882C0.35 18.1899 0.35 18.1917 0.35 18.1934C0.35 18.1951 0.35 18.1969 0.35 18.1986C0.35 18.2003 0.35 18.2021 0.35 18.2038C0.35 18.2055 0.35 18.2073 0.35 18.209C0.35 18.2107 0.35 18.2125 0.35 18.2142C0.35 18.2159 0.35 18.2177 0.35 18.2194C0.35 18.2211 0.35 18.2229 0.35 18.2246C0.35 18.2263 0.35 18.2281 0.35 18.2298C0.35 18.2316 0.35 18.2333 0.35 18.235C0.35 18.2368 0.35 18.2385 0.35 18.2402C0.35 18.242 0.35 18.2437 0.35 18.2454C0.35 18.2472 0.35 18.2489 0.35 18.2507C0.35 18.2524 0.35 18.2541 0.35 18.2559C0.35 18.2576 0.35 18.2594 0.35 18.2611C0.35 18.2628 0.35 18.2646 0.35 18.2663C0.35 18.268 0.35 18.2698 0.35 18.2715C0.35 18.2733 0.35 18.275 0.35 18.2767C0.35 18.2785 0.35 18.2802 0.35 18.282C0.35 18.2837 0.35 18.2855 0.35 18.2872C0.35 18.2889 0.35 18.2907 0.35 18.2924C0.35 18.2942 0.35 18.2959 0.35 18.2976C0.35 18.2994 0.35 18.3011 0.35 18.3029C0.35 18.3046 0.35 18.3064 0.35 18.3081C0.35 18.3099 0.35 18.3116 0.35 18.3133C0.35 18.3151 0.35 18.3168 0.35 18.3186C0.35 18.3203 0.35 18.3221 0.35 18.3238C0.35 18.3256 0.35 18.3273 0.35 18.329C0.35 18.3308 0.35 18.3325 0.35 18.3343C0.35 18.336 0.35 18.3378 0.35 18.3395C0.35 18.3413 0.35 18.343 0.35 18.3448C0.35 18.3465 0.35 18.3483 0.35 18.35C0.35 18.3518 0.35 18.3535 0.35 18.3553C0.35 18.357 0.35 18.3588 0.35 18.3605C0.35 18.3623 0.35 18.364 0.35 18.3658C0.35 18.3675 0.35 18.3693 0.35 18.371C0.35 18.3728 0.35 18.3745 0.35 18.3763C0.35 18.378 0.35 18.3798 0.35 18.3815C0.35 18.3833 0.35 18.385 0.35 18.3868C0.35 18.3885 0.35 18.3903 0.35 18.392C0.35 18.3938 0.35 18.3955 0.35 18.3973C0.35 18.399 0.35 18.4008 0.35 18.4025C0.35 18.4043 0.35 18.406 0.35 18.4078C0.35 18.4096 0.35 18.4113 0.35 18.4131C0.35 18.4148 0.35 18.4166 0.35 18.4183C0.35 18.4201 0.35 18.4218 0.35 18.4236C0.35 18.4253 0.35 18.4271 0.35 18.4289C0.35 18.4306 0.35 18.4324 0.35 18.4341C0.35 18.4359 0.35 18.4376 0.35 18.4394C0.35 18.4412 0.35 18.4429 0.35 18.4447C0.35 18.4464 0.35 18.4482 0.35 18.4499C0.35 18.4517 0.35 18.4535 0.35 18.4552C0.35 18.457 0.35 18.4587 0.35 18.4605C0.35 18.4623 0.35 18.464 0.35 18.4658C0.35 18.4675 0.35 18.4693 0.35 18.4711C0.35 18.4728 0.35 18.4746 0.35 18.4763C0.35 18.4781 0.35 18.4799 0.35 18.4816C0.35 18.4834 0.35 18.4851 0.35 18.4869C0.35 18.4887 0.35 18.4904 0.35 18.4922C0.35 18.494 0.35 18.4957 0.35 18.4975C0.35 18.4992 0.35 18.501 0.35 18.5028C0.35 18.5045 0.35 18.5063 0.35 18.5081C0.35 18.5098 0.35 18.5116 0.35 18.5134C0.35 18.5151 0.35 18.5169 0.35 18.5187C0.35 18.5204 0.35 18.5222 0.35 18.5239C0.35 18.5257 0.35 18.5275 0.35 18.5292C0.35 18.531 0.35 18.5328 0.35 18.5345C0.35 18.5363 0.35 18.5381 0.35 18.5398C0.35 18.5416 0.35 18.5434 0.35 18.5451C0.35 18.5469 0.35 18.5487 0.35 18.5504C0.35 18.5522 0.35 18.554 0.35 18.5558C0.35 18.5575 0.35 18.5593 0.35 18.5611C0.35 18.5628 0.35 18.5646 0.35 18.5664C0.35 18.5681 0.35 18.5699 0.35 18.5717C0.35 18.5734 0.35 18.5752 0.35 18.577C0.35 18.5788 0.35 18.5805 0.35 18.5823C0.35 18.5841 0.35 18.5858 0.35 18.5876C0.35 18.5894 0.35 18.5912 0.35 18.5929C0.35 18.5947 0.35 18.5965 0.35 18.5982C0.35 18.6 0.35 18.6018 0.35 18.6036C0.35 18.6053 0.35 18.6071 0.35 18.6089C0.35 18.6107 0.35 18.6124 0.35 18.6142C0.35 18.616 0.35 18.6178 0.35 18.6195C0.35 18.6213 0.35 18.6231 0.35 18.6249C0.35 18.6266 0.35 18.6284 0.35 18.6302C0.35 18.632 0.35 18.6337 0.35 18.6355C0.35 18.6373 0.35 18.6391 0.35 18.6408C0.35 18.6426 0.35 18.6444 0.35 18.6462C0.35 18.6479 0.35 18.6497 0.35 18.6515C0.35 18.6533 0.35 18.6551 0.35 18.6568C0.35 18.6586 0.35 18.6604 0.35 18.6622C0.35 18.664 0.35 18.6657 0.35 18.6675C0.35 18.6693 0.35 18.6711 0.35 18.6728C0.35 18.6746 0.35 18.6764 0.35 18.6782C0.35 18.68 0.35 18.6817 0.35 18.6835C0.35 18.6853 0.35 18.6871 0.35 18.6889C0.35 18.6907 0.35 18.6924 0.35 18.6942C0.35 18.696 0.35 18.6978 0.35 18.6996C0.35 18.7013 0.35 18.7031 0.35 18.7049C0.35 18.7067 0.35 18.7085 0.35 18.7103C0.35 18.712 0.35 18.7138 0.35 18.7156C0.35 18.7174 0.35 18.7192 0.35 18.721C0.35 18.7227 0.35 18.7245 0.35 18.7263C0.35 18.7281 0.35 18.7299 0.35 18.7317C0.35 18.7335 0.35 18.7352 0.35 18.737C0.35 18.7388 0.35 18.7406 0.35 18.7424C0.35 18.7442 0.35 18.746 0.35 18.7477C0.35 18.7495 0.35 18.7513 0.35 18.7531C0.35 18.7549 0.35 18.7567 0.35 18.7585C0.35 18.7603 0.35 18.762 0.35 18.7638C0.35 18.7656 0.35 18.7674 0.35 18.7692C0.35 18.771 0.35 18.7728 0.35 18.7746C0.35 18.7764 0.35 18.7781 0.35 18.7799C0.35 18.7817 0.35 18.7835 0.35 18.7853C0.35 18.7871 0.35 18.7889 0.35 18.7907C0.35 18.7925 0.35 18.7943 0.35 18.796C0.35 18.7978 0.35 18.7996 0.35 18.8014C0.35 18.8032 0.35 18.805 0.35 18.8068C0.35 18.8086 0.35 18.8104 0.35 18.8122C0.35 18.814 0.35 18.8158 0.35 18.8175C0.35 18.8193 0.35 18.8211 0.35 18.8229C0.35 18.8247 0.35 18.8265 0.35 18.8283C0.35 18.8301 0.35 18.8319 0.35 18.8337C0.35 18.8355 0.35 18.8373 0.35 18.8391C0.35 18.8409 0.35 18.8427 0.35 18.8445C0.35 18.8463 0.35 18.848 0.35 18.8498C0.35 18.8516 0.35 18.8534 0.35 18.8552C0.35 18.857 0.35 18.8588 0.35 18.8606C0.35 18.8624 0.35 18.8642 0.35 18.866C0.35 18.8678 0.35 18.8696 0.35 18.8714C0.35 18.8732 0.35 18.875 0.35 18.8768C0.35 18.8786 0.35 18.8804 0.35 18.8822C0.35 18.884 0.35 18.8858 0.35 18.8876C0.35 18.8894 0.35 18.8912 0.35 18.893C0.35 18.8948 0.35 18.8966 0.35 18.8984C0.35 18.9002 0.35 18.902 0.35 18.9038C0.35 18.9056 0.35 18.9074 0.35 18.9092C0.35 18.911 0.35 18.9128 0.35 18.9146C0.35 18.9164 0.35 18.9182 0.35 18.92C0.35 18.9218 0.35 18.9236 0.35 18.9254C0.35 18.9272 0.35 18.929 0.35 18.9308C0.35 18.9326 0.35 18.9344 0.35 18.9362C0.35 18.938 0.35 18.9398 0.35 18.9416C0.35 18.9434 0.35 18.9452 0.35 18.9471C0.35 18.9489 0.35 18.9507 0.35 18.9525C0.35 18.9543 0.35 18.9561 0.35 18.9579C0.35 18.9597 0.35 18.9615 0.35 18.9633C0.35 18.9651 0.35 18.9669 0.35 18.9687C0.35 18.9705 0.35 18.9723 0.35 18.9741C0.35 18.9759 0.35 18.9778 0.35 18.9796C0.35 18.9814 0.35 18.9832 0.35 18.985C0.35 18.9868 0.35 18.9886 0.35 18.9904C0.35 18.9922 0.35 18.994 0.35 18.9958C0.35 18.9976 0.35 18.9994 0.35 19.0013C0.35 19.0031 0.35 19.0049 0.35 19.0067C0.35 19.0085 0.35 19.0103 0.35 19.0121C0.35 19.0139 0.35 19.0157 0.35 19.0175C0.35 19.0194 0.35 19.0212 0.35 19.023C0.35 19.0248 0.35 19.0266 0.35 19.0284C0.35 19.0302 0.35 19.032 0.35 19.0338C0.35 19.0357 0.35 19.0375 0.35 19.0393C0.35 19.0411 0.35 19.0429 0.35 19.0447C0.35 19.0465 0.35 19.0483 0.35 19.0502C0.35 19.052 0.35 19.0538 0.35 19.0556C0.35 19.0574 0.35 19.0592 0.35 19.061C0.35 19.0629 0.35 19.0647 0.35 19.0665C0.35 19.0683 0.35 19.0701 0.35 19.0719C0.35 19.0737 0.35 19.0756 0.35 19.0774C0.35 19.0792 0.35 19.081 0.35 19.0828C0.35 19.0846 0.35 19.0864 0.35 19.0883C0.35 19.0901 0.35 19.0919 0.35 19.0937C0.35 19.0955 0.35 19.0974 0.35 19.0992C0.35 19.101 0.35 19.1028 0.35 19.1046C0.35 19.1064 0.35 19.1083 0.35 19.1101C0.35 19.1119 0.35 19.1137 0.35 19.1155C0.35 19.1173 0.35 19.1192 0.35 19.121C0.35 19.1228 0.35 19.1246 0.35 19.1264C0.35 19.1283 0.35 19.1301 0.35 19.1319C0.35 19.1337 0.35 19.1355 0.35 19.1374C0.35 19.1392 0.35 19.141 0.35 19.1428C0.35 19.1446 0.35 19.1465 0.35 19.1483C0.35 19.1501 0.35 19.1519 0.35 19.1538C0.35 19.1556 0.35 19.1574 0.35 19.1592C0.35 19.161 0.35 19.1629 0.35 19.1647C0.35 19.1665 0.35 19.1683 0.35 19.1702C0.35 19.172 0.35 19.1738 0.35 19.1756C0.35 19.1774 0.35 19.1793 0.35 19.1811C0.35 19.1829 0.35 19.1847 0.35 19.1866C0.35 19.1884 0.35 19.1902 0.35 19.192C0.35 19.1939 0.35 19.1957 0.35 19.1975C0.35 19.1993 0.35 19.2012 0.35 19.203C0.35 19.2048 0.35 19.2066 0.35 19.2085C0.35 19.2103 0.35 19.2121 0.35 19.214C0.35 19.2158 0.35 19.2176 0.35 19.2194C0.35 19.2213 0.35 19.2231 0.35 19.2249C0.35 19.2267 0.35 19.2286 0.35 19.2304C0.35 19.2322 0.35 19.2341 0.35 19.2359C0.35 19.2377 0.35 19.2395 0.35 19.2414C0.35 19.2432 0.35 19.245 0.35 19.2469C0.35 19.2487 0.35 19.2505 0.35 19.2523C0.35 19.2542 0.35 19.256 0.35 19.2578C0.35 19.2597 0.35 19.2615 0.35 19.2633C0.35 19.2652 0.35 19.267 0.35 19.2688C0.35 19.2706 0.35 19.2725 0.35 19.2743C0.35 19.2761 0.35 19.278 0.35 19.2798C0.35 19.2816 0.35 19.2835 0.35 19.2853C0.35 19.2871 0.35 19.289 0.35 19.2908C0.35 19.2926 0.35 19.2945 0.35 19.2963C0.35 19.2981 0.35 19.3 0.35 19.3018C0.35 19.3036 0.35 19.3055 0.35 19.3073C0.35 19.3091 0.35 19.311 0.35 19.3128C0.35 19.3146 0.35 19.3165 0.35 19.3183C0.35 19.3201 0.35 19.322 0.35 19.3238C0.35 19.3256 0.35 19.3275 0.35 19.3293C0.35 19.3312 0.35 19.333 0.35 19.3348C0.35 19.3367 0.35 19.3385 0.35 19.3403C0.35 19.3422 0.35 19.344 0.35 19.3458C0.35 19.3477 0.35 19.3495 0.35 19.3514C0.35 19.3532 0.35 19.355 0.35 19.3569C0.35 19.3587 0.35 19.3605 0.35 19.3624C0.35 19.3642 0.35 19.3661 0.35 19.3679C0.35 19.3697 0.35 19.3716 0.35 19.3734C0.35 19.3753 0.35 19.3771 0.35 19.3789C0.35 19.3808 0.35 19.3826 0.35 19.3845C0.35 19.3863 0.35 19.3881 0.35 19.39C0.35 19.3918 0.35 19.3937 0.35 19.3955C0.35 19.3973 0.35 19.3992 0.35 19.401C0.35 19.4029 0.35 19.4047 0.35 19.4065C0.35 19.4084 0.35 19.4102 0.35 19.4121C0.35 19.4139 0.35 19.4158 0.35 19.4176C0.35 19.4194 0.35 19.4213 0.35 19.4231C0.35 19.425 0.35 19.4268 0.35 19.4287C0.35 19.4305 0.35 19.4323 0.35 19.4342C0.35 19.436 0.35 19.4379 0.35 19.4397C0.35 19.4416 0.35 19.4434 0.35 19.4453C0.35 19.4471 0.35 19.4489 0.35 19.4508C0.35 19.4526 0.35 19.4545 0.35 19.4563C0.35 19.4582 0.35 19.46 0.35 19.4619C0.35 19.4637 0.35 19.4656 0.35 19.4674C0.35 19.4692 0.35 19.4711 0.35 19.4729C0.35 19.4748 0.35 19.4766 0.35 19.4785C0.35 19.4803 0.35 19.4822 0.35 19.484C0.35 19.4859 0.35 19.4877 0.35 19.4896C0.35 19.4914 0.35 19.4933 0.35 19.4951C0.35 19.497 0.35 19.4988 0.35 19.5007C0.35 19.5025 0.35 19.5044 0.35 19.5062C0.35 19.5081 0.35 19.5099 0.35 19.5117C0.35 19.5136 0.35 19.5154 0.35 19.5173C0.35 19.5191 0.35 19.521 0.35 19.5228C0.35 19.5247 0.35 19.5266 0.35 19.5284C0.35 19.5303 0.35 19.5321 0.35 19.534C0.35 19.5358 0.35 19.5377 0.35 19.5395C0.35 19.5414 0.35 19.5432 0.35 19.5451C0.35 19.5469 0.35 19.5488 0.35 19.5506C0.35 19.5525 0.35 19.5543 0.35 19.5562C0.35 19.558 0.35 19.5599 0.35 19.5617C0.35 19.5636 0.35 19.5654 0.35 19.5673C0.35 19.5692 0.35 19.571 0.35 19.5729C0.35 19.5747 0.35 19.5766 0.35 19.5784C0.35 19.5803 0.35 19.5821 0.35 19.584C0.35 19.5858 0.35 19.5877 0.35 19.5895C0.35 19.5914 0.35 19.5933 0.35 19.5951C0.35 19.597 0.35 19.5988 0.35 19.6007C0.35 19.6025 0.35 19.6044 0.35 19.6063C0.35 19.6081 0.35 19.61 0.35 19.6118C0.35 19.6137 0.35 19.6155 0.35 19.6174C0.35 19.6192 0.35 19.6211 0.35 19.623C0.35 19.6248 0.35 19.6267 0.35 19.6285C0.35 19.6304 0.35 19.6323 0.35 19.6341C0.35 19.636 0.35 19.6378 0.35 19.6397C0.35 19.6415 0.35 19.6434 0.35 19.6453C0.35 19.6471 0.35 19.649 0.35 19.6508C0.35 19.6527 0.35 19.6546 0.35 19.6564C0.35 19.6583 0.35 19.6601 0.35 19.662C0.35 19.6639 0.35 19.6657 0.35 19.6676C0.35 19.6694 0.35 19.6713 0.35 19.6732C0.35 19.675 0.35 19.6769 0.35 19.6788C0.35 19.6806 0.35 19.6825 0.35 19.6843C0.35 19.6862 0.35 19.6881 0.35 19.6899C0.35 19.6918 0.35 19.6936 0.35 19.6955C0.35 19.6974 0.35 19.6992 0.35 19.7011C0.35 19.703 0.35 19.7048 0.35 19.7067C0.35 19.7086 0.35 19.7104 0.35 19.7123C0.35 19.7141 0.35 19.716 0.35 19.7179C0.35 19.7197 0.35 19.7216 0.35 19.7235C0.35 19.7253 0.35 19.7272 0.35 19.7291C0.35 19.7309 0.35 19.7328 0.35 19.7347C0.35 19.7365 0.35 19.7384 0.35 19.7403C0.35 19.7421 0.35 19.744 0.35 19.7459C0.35 19.7477 0.35 19.7496 0.35 19.7514C0.35 19.7533 0.35 19.7552 0.35 19.757C0.35 19.7589 0.35 19.7608 0.35 19.7627C0.35 19.7645 0.35 19.7664 0.35 19.7683C0.35 19.7701 0.35 19.772 0.35 19.7739C0.35 19.7757 0.35 19.7776 0.35 19.7795C0.35 19.7813 0.35 19.7832 0.35 19.7851C0.35 19.7869 0.35 19.7888 0.35 19.7907C0.35 19.7925 0.35 19.7944 0.35 19.7963C0.35 19.7982 0.35 19.8 0.35 19.8019C0.35 19.8038 0.35 19.8056 0.35 19.8075C0.35 19.8094 0.35 19.8112 0.35 19.8131C0.35 19.815 0.35 19.8169 0.35 19.8187C0.35 19.8206 0.35 19.8225 0.35 19.8243C0.35 19.8262 0.35 19.8281 0.35 19.83C0.35 19.8318 0.35 19.8337 0.35 19.8356C0.35 19.8374 0.35 19.8393 0.35 19.8412C0.35 19.8431 0.35 19.8449 0.35 19.8468C0.35 19.8487 0.35 19.8506 0.35 19.8524C0.35 19.8543 0.35 19.8562 0.35 19.858C0.35 19.8599 0.35 19.8618 0.35 19.8637C0.35 19.8655 0.35 19.8674 0.35 19.8693C0.35 19.8712 0.35 19.873 0.35 19.8749C0.35 19.8768 0.35 19.8787 0.35 19.8805C0.35 19.8824 0.35 19.8843 0.35 19.8862C0.35 19.888 0.35 19.8899 0.35 19.8918C0.35 19.8937 0.35 19.8955 0.35 19.8974C0.35 19.8993 0.35 19.9012 0.35 19.9031C0.35 19.9049 0.35 19.9068 0.35 19.9087C0.35 19.9106 0.35 19.9124 0.35 19.9143C0.35 19.9162 0.35 19.9181 0.35 19.9199C0.35 19.9218 0.35 19.9237 0.35 19.9256C0.35 19.9275 0.35 19.9293 0.35 19.9312C0.35 19.9331 0.35 19.935 0.35 19.9369C0.35 19.9387 0.35 19.9406 0.35 19.9425C0.35 19.9444 0.35 19.9462 0.35 19.9481C0.35 19.95 0.35 19.9519 0.35 19.9538C0.35 19.9556 0.35 19.9575 0.35 19.9594C0.35 19.9613 0.35 19.9632 0.35 19.965C0.35 19.9669 0.35 19.9688 0.35 19.9707C0.35 19.9726 0.35 19.9745 0.35 19.9763C0.35 19.9782 0.35 19.9801 0.35 19.982C0.35 19.9839 0.35 19.9857 0.35 19.9876H1.65ZM5.07143 13.8563H10.5V12.5563H5.07143V13.8563ZM13.9214 17.2771C13.9214 17.2787 13.9214 17.2803 13.9214 17.2819C13.9214 17.2836 13.9214 17.2852 13.9214 17.2868C13.9214 17.2884 13.9214 17.29 13.9214 17.2917C13.9214 17.2933 13.9214 17.2949 13.9214 17.2965C13.9214 17.2982 13.9214 17.2998 13.9214 17.3014C13.9214 17.303 13.9214 17.3047 13.9214 17.3063C13.9214 17.3079 13.9214 17.3095 13.9214 17.3112C13.9214 17.3128 13.9214 17.3144 13.9214 17.316C13.9214 17.3177 13.9214 17.3193 13.9214 17.3209C13.9214 17.3226 13.9214 17.3242 13.9214 17.3258C13.9214 17.3274 13.9214 17.3291 13.9214 17.3307C13.9214 17.3323 13.9214 17.334 13.9214 17.3356C13.9214 17.3372 13.9214 17.3388 13.9214 17.3405C13.9214 17.3421 13.9214 17.3437 13.9214 17.3454C13.9214 17.347 13.9214 17.3486 13.9214 17.3503C13.9214 17.3519 13.9214 17.3535 13.9214 17.3551C13.9214 17.3568 13.9214 17.3584 13.9214 17.36C13.9214 17.3617 13.9214 17.3633 13.9214 17.3649C13.9214 17.3666 13.9214 17.3682 13.9214 17.3698C13.9214 17.3715 13.9214 17.3731 13.9214 17.3747C13.9214 17.3764 13.9214 17.378 13.9214 17.3797C13.9214 17.3813 13.9214 17.3829 13.9214 17.3846C13.9214 17.3862 13.9214 17.3878 13.9214 17.3895C13.9214 17.3911 13.9214 17.3927 13.9214 17.3944C13.9214 17.396 13.9214 17.3977 13.9214 17.3993C13.9214 17.4009 13.9214 17.4026 13.9214 17.4042C13.9214 17.4058 13.9214 17.4075 13.9214 17.4091C13.9214 17.4108 13.9214 17.4124 13.9214 17.414C13.9214 17.4157 13.9214 17.4173 13.9214 17.419C13.9214 17.4206 13.9214 17.4222 13.9214 17.4239C13.9214 17.4255 13.9214 17.4272 13.9214 17.4288C13.9214 17.4304 13.9214 17.4321 13.9214 17.4337C13.9214 17.4354 13.9214 17.437 13.9214 17.4387C13.9214 17.4403 13.9214 17.4419 13.9214 17.4436C13.9214 17.4452 13.9214 17.4469 13.9214 17.4485C13.9214 17.4502 13.9214 17.4518 13.9214 17.4535C13.9214 17.4551 13.9214 17.4567 13.9214 17.4584C13.9214 17.46 13.9214 17.4617 13.9214 17.4633C13.9214 17.465 13.9214 17.4666 13.9214 17.4683C13.9214 17.4699 13.9214 17.4716 13.9214 17.4732C13.9214 17.4749 13.9214 17.4765 13.9214 17.4781C13.9214 17.4798 13.9214 17.4814 13.9214 17.4831C13.9214 17.4847 13.9214 17.4864 13.9214 17.488C13.9214 17.4897 13.9214 17.4913 13.9214 17.493C13.9214 17.4946 13.9214 17.4963 13.9214 17.4979C13.9214 17.4996 13.9214 17.5012 13.9214 17.5029C13.9214 17.5045 13.9214 17.5062 13.9214 17.5078C13.9214 17.5095 13.9214 17.5112 13.9214 17.5128C13.9214 17.5145 13.9214 17.5161 13.9214 17.5178C13.9214 17.5194 13.9214 17.5211 13.9214 17.5227C13.9214 17.5244 13.9214 17.526 13.9214 17.5277C13.9214 17.5293 13.9214 17.531 13.9214 17.5326C13.9214 17.5343 13.9214 17.536 13.9214 17.5376C13.9214 17.5393 13.9214 17.5409 13.9214 17.5426C13.9214 17.5442 13.9214 17.5459 13.9214 17.5476C13.9214 17.5492 13.9214 17.5509 13.9214 17.5525C13.9214 17.5542 13.9214 17.5558 13.9214 17.5575C13.9214 17.5592 13.9214 17.5608 13.9214 17.5625C13.9214 17.5641 13.9214 17.5658 13.9214 17.5675C13.9214 17.5691 13.9214 17.5708 13.9214 17.5724C13.9214 17.5741 13.9214 17.5757 13.9214 17.5774C13.9214 17.5791 13.9214 17.5807 13.9214 17.5824C13.9214 17.5841 13.9214 17.5857 13.9214 17.5874C13.9214 17.589 13.9214 17.5907 13.9214 17.5924C13.9214 17.594 13.9214 17.5957 13.9214 17.5974C13.9214 17.599 13.9214 17.6007 13.9214 17.6023C13.9214 17.604 13.9214 17.6057 13.9214 17.6073C13.9214 17.609 13.9214 17.6107 13.9214 17.6123C13.9214 17.614 13.9214 17.6157 13.9214 17.6173C13.9214 17.619 13.9214 17.6207 13.9214 17.6223C13.9214 17.624 13.9214 17.6257 13.9214 17.6273C13.9214 17.629 13.9214 17.6307 13.9214 17.6323C13.9214 17.634 13.9214 17.6357 13.9214 17.6373C13.9214 17.639 13.9214 17.6407 13.9214 17.6423C13.9214 17.644 13.9214 17.6457 13.9214 17.6473C13.9214 17.649 13.9214 17.6507 13.9214 17.6523C13.9214 17.654 13.9214 17.6557 13.9214 17.6574C13.9214 17.659 13.9214 17.6607 13.9214 17.6624C13.9214 17.664 13.9214 17.6657 13.9214 17.6674C13.9214 17.6691 13.9214 17.6707 13.9214 17.6724C13.9214 17.6741 13.9214 17.6757 13.9214 17.6774C13.9214 17.6791 13.9214 17.6808 13.9214 17.6824C13.9214 17.6841 13.9214 17.6858 13.9214 17.6875C13.9214 17.6891 13.9214 17.6908 13.9214 17.6925C13.9214 17.6942 13.9214 17.6958 13.9214 17.6975C13.9214 17.6992 13.9214 17.7009 13.9214 17.7025C13.9214 17.7042 13.9214 17.7059 13.9214 17.7076C13.9214 17.7092 13.9214 17.7109 13.9214 17.7126C13.9214 17.7143 13.9214 17.716 13.9214 17.7176C13.9214 17.7193 13.9214 17.721 13.9214 17.7227C13.9214 17.7243 13.9214 17.726 13.9214 17.7277C13.9214 17.7294 13.9214 17.7311 13.9214 17.7327C13.9214 17.7344 13.9214 17.7361 13.9214 17.7378C13.9214 17.7395 13.9214 17.7411 13.9214 17.7428C13.9214 17.7445 13.9214 17.7462 13.9214 17.7479C13.9214 17.7495 13.9214 17.7512 13.9214 17.7529C13.9214 17.7546 13.9214 17.7563 13.9214 17.758C13.9214 17.7596 13.9214 17.7613 13.9214 17.763C13.9214 17.7647 13.9214 17.7664 13.9214 17.7681C13.9214 17.7697 13.9214 17.7714 13.9214 17.7731C13.9214 17.7748 13.9214 17.7765 13.9214 17.7782C13.9214 17.7799 13.9214 17.7815 13.9214 17.7832C13.9214 17.7849 13.9214 17.7866 13.9214 17.7883C13.9214 17.79 13.9214 17.7917 13.9214 17.7933C13.9214 17.795 13.9214 17.7967 13.9214 17.7984C13.9214 17.8001 13.9214 17.8018 13.9214 17.8035C13.9214 17.8052 13.9214 17.8068 13.9214 17.8085C13.9214 17.8102 13.9214 17.8119 13.9214 17.8136C13.9214 17.8153 13.9214 17.817 13.9214 17.8187C13.9214 17.8204 13.9214 17.822 13.9214 17.8237C13.9214 17.8254 13.9214 17.8271 13.9214 17.8288C13.9214 17.8305 13.9214 17.8322 13.9214 17.8339C13.9214 17.8356 13.9214 17.8373 13.9214 17.839C13.9214 17.8407 13.9214 17.8423 13.9214 17.844C13.9214 17.8457 13.9214 17.8474 13.9214 17.8491C13.9214 17.8508 13.9214 17.8525 13.9214 17.8542C13.9214 17.8559 13.9214 17.8576 13.9214 17.8593C13.9214 17.861 13.9214 17.8627 13.9214 17.8644C13.9214 17.8661 13.9214 17.8678 13.9214 17.8695C13.9214 17.8711 13.9214 17.8728 13.9214 17.8745C13.9214 17.8762 13.9214 17.8779 13.9214 17.8796C13.9214 17.8813 13.9214 17.883 13.9214 17.8847C13.9214 17.8864 13.9214 17.8881 13.9214 17.8898C13.9214 17.8915 13.9214 17.8932 13.9214 17.8949C13.9214 17.8966 13.9214 17.8983 13.9214 17.9C13.9214 17.9017 13.9214 17.9034 13.9214 17.9051C13.9214 17.9068 13.9214 17.9085 13.9214 17.9102C13.9214 17.9119 13.9214 17.9136 13.9214 17.9153C13.9214 17.917 13.9214 17.9187 13.9214 17.9204C13.9214 17.9221 13.9214 17.9238 13.9214 17.9255C13.9214 17.9272 13.9214 17.9289 13.9214 17.9306C13.9214 17.9323 13.9214 17.934 13.9214 17.9357C13.9214 17.9374 13.9214 17.9391 13.9214 17.9409C13.9214 17.9426 13.9214 17.9443 13.9214 17.946C13.9214 17.9477 13.9214 17.9494 13.9214 17.9511C13.9214 17.9528 13.9214 17.9545 13.9214 17.9562C13.9214 17.9579 13.9214 17.9596 13.9214 17.9613C13.9214 17.963 13.9214 17.9647 13.9214 17.9664C13.9214 17.9681 13.9214 17.9698 13.9214 17.9716C13.9214 17.9733 13.9214 17.975 13.9214 17.9767C13.9214 17.9784 13.9214 17.9801 13.9214 17.9818C13.9214 17.9835 13.9214 17.9852 13.9214 17.9869C13.9214 17.9886 13.9214 17.9904 13.9214 17.9921C13.9214 17.9938 13.9214 17.9955 13.9214 17.9972C13.9214 17.9989 13.9214 18.0006 13.9214 18.0023C13.9214 18.004 13.9214 18.0057 13.9214 18.0075C13.9214 18.0092 13.9214 18.0109 13.9214 18.0126C13.9214 18.0143 13.9214 18.016 13.9214 18.0177C13.9214 18.0194 13.9214 18.0212 13.9214 18.0229C13.9214 18.0246 13.9214 18.0263 13.9214 18.028C13.9214 18.0297 13.9214 18.0314 13.9214 18.0332C13.9214 18.0349 13.9214 18.0366 13.9214 18.0383C13.9214 18.04 13.9214 18.0417 13.9214 18.0434C13.9214 18.0452 13.9214 18.0469 13.9214 18.0486C13.9214 18.0503 13.9214 18.052 13.9214 18.0537C13.9214 18.0555 13.9214 18.0572 13.9214 18.0589C13.9214 18.0606 13.9214 18.0623 13.9214 18.064C13.9214 18.0658 13.9214 18.0675 13.9214 18.0692C13.9214 18.0709 13.9214 18.0726 13.9214 18.0744C13.9214 18.0761 13.9214 18.0778 13.9214 18.0795C13.9214 18.0812 13.9214 18.083 13.9214 18.0847C13.9214 18.0864 13.9214 18.0881 13.9214 18.0898C13.9214 18.0916 13.9214 18.0933 13.9214 18.095C13.9214 18.0967 13.9214 18.0984 13.9214 18.1002C13.9214 18.1019 13.9214 18.1036 13.9214 18.1053C13.9214 18.107 13.9214 18.1088 13.9214 18.1105C13.9214 18.1122 13.9214 18.1139 13.9214 18.1157C13.9214 18.1174 13.9214 18.1191 13.9214 18.1208C13.9214 18.1226 13.9214 18.1243 13.9214 18.126C13.9214 18.1277 13.9214 18.1295 13.9214 18.1312C13.9214 18.1329 13.9214 18.1346 13.9214 18.1364C13.9214 18.1381 13.9214 18.1398 13.9214 18.1415C13.9214 18.1433 13.9214 18.145 13.9214 18.1467C13.9214 18.1484 13.9214 18.1502 13.9214 18.1519C13.9214 18.1536 13.9214 18.1554 13.9214 18.1571C13.9214 18.1588 13.9214 18.1605 13.9214 18.1623C13.9214 18.164 13.9214 18.1657 13.9214 18.1675C13.9214 18.1692 13.9214 18.1709 13.9214 18.1726C13.9214 18.1744 13.9214 18.1761 13.9214 18.1778C13.9214 18.1796 13.9214 18.1813 13.9214 18.183C13.9214 18.1848 13.9214 18.1865 13.9214 18.1882C13.9214 18.1899 13.9214 18.1917 13.9214 18.1934C13.9214 18.1951 13.9214 18.1969 13.9214 18.1986C13.9214 18.2003 13.9214 18.2021 13.9214 18.2038C13.9214 18.2055 13.9214 18.2073 13.9214 18.209C13.9214 18.2107 13.9214 18.2125 13.9214 18.2142C13.9214 18.2159 13.9214 18.2177 13.9214 18.2194C13.9214 18.2211 13.9214 18.2229 13.9214 18.2246C13.9214 18.2263 13.9214 18.2281 13.9214 18.2298C13.9214 18.2316 13.9214 18.2333 13.9214 18.235C13.9214 18.2368 13.9214 18.2385 13.9214 18.2402C13.9214 18.242 13.9214 18.2437 13.9214 18.2454C13.9214 18.2472 13.9214 18.2489 13.9214 18.2507C13.9214 18.2524 13.9214 18.2541 13.9214 18.2559C13.9214 18.2576 13.9214 18.2594 13.9214 18.2611C13.9214 18.2628 13.9214 18.2646 13.9214 18.2663C13.9214 18.268 13.9214 18.2698 13.9214 18.2715C13.9214 18.2733 13.9214 18.275 13.9214 18.2767C13.9214 18.2785 13.9214 18.2802 13.9214 18.282C13.9214 18.2837 13.9214 18.2855 13.9214 18.2872C13.9214 18.2889 13.9214 18.2907 13.9214 18.2924C13.9214 18.2942 13.9214 18.2959 13.9214 18.2976C13.9214 18.2994 13.9214 18.3011 13.9214 18.3029C13.9214 18.3046 13.9214 18.3064 13.9214 18.3081C13.9214 18.3099 13.9214 18.3116 13.9214 18.3133C13.9214 18.3151 13.9214 18.3168 13.9214 18.3186C13.9214 18.3203 13.9214 18.3221 13.9214 18.3238C13.9214 18.3256 13.9214 18.3273 13.9214 18.329C13.9214 18.3308 13.9214 18.3325 13.9214 18.3343C13.9214 18.336 13.9214 18.3378 13.9214 18.3395C13.9214 18.3413 13.9214 18.343 13.9214 18.3448C13.9214 18.3465 13.9214 18.3483 13.9214 18.35C13.9214 18.3518 13.9214 18.3535 13.9214 18.3553C13.9214 18.357 13.9214 18.3588 13.9214 18.3605C13.9214 18.3623 13.9214 18.364 13.9214 18.3658C13.9214 18.3675 13.9214 18.3693 13.9214 18.371C13.9214 18.3728 13.9214 18.3745 13.9214 18.3763C13.9214 18.378 13.9214 18.3798 13.9214 18.3815C13.9214 18.3833 13.9214 18.385 13.9214 18.3868C13.9214 18.3885 13.9214 18.3903 13.9214 18.392C13.9214 18.3938 13.9214 18.3955 13.9214 18.3973C13.9214 18.399 13.9214 18.4008 13.9214 18.4025C13.9214 18.4043 13.9214 18.406 13.9214 18.4078C13.9214 18.4096 13.9214 18.4113 13.9214 18.4131C13.9214 18.4148 13.9214 18.4166 13.9214 18.4183C13.9214 18.4201 13.9214 18.4218 13.9214 18.4236C13.9214 18.4253 13.9214 18.4271 13.9214 18.4289C13.9214 18.4306 13.9214 18.4324 13.9214 18.4341C13.9214 18.4359 13.9214 18.4376 13.9214 18.4394C13.9214 18.4412 13.9214 18.4429 13.9214 18.4447C13.9214 18.4464 13.9214 18.4482 13.9214 18.4499C13.9214 18.4517 13.9214 18.4535 13.9214 18.4552C13.9214 18.457 13.9214 18.4587 13.9214 18.4605C13.9214 18.4623 13.9214 18.464 13.9214 18.4658C13.9214 18.4675 13.9214 18.4693 13.9214 18.4711C13.9214 18.4728 13.9214 18.4746 13.9214 18.4763C13.9214 18.4781 13.9214 18.4799 13.9214 18.4816C13.9214 18.4834 13.9214 18.4851 13.9214 18.4869C13.9214 18.4887 13.9214 18.4904 13.9214 18.4922C13.9214 18.494 13.9214 18.4957 13.9214 18.4975C13.9214 18.4992 13.9214 18.501 13.9214 18.5028C13.9214 18.5045 13.9214 18.5063 13.9214 18.5081C13.9214 18.5098 13.9214 18.5116 13.9214 18.5134C13.9214 18.5151 13.9214 18.5169 13.9214 18.5187C13.9214 18.5204 13.9214 18.5222 13.9214 18.5239C13.9214 18.5257 13.9214 18.5275 13.9214 18.5292C13.9214 18.531 13.9214 18.5328 13.9214 18.5345C13.9214 18.5363 13.9214 18.5381 13.9214 18.5398C13.9214 18.5416 13.9214 18.5434 13.9214 18.5451C13.9214 18.5469 13.9214 18.5487 13.9214 18.5504C13.9214 18.5522 13.9214 18.554 13.9214 18.5558C13.9214 18.5575 13.9214 18.5593 13.9214 18.5611C13.9214 18.5628 13.9214 18.5646 13.9214 18.5664C13.9214 18.5681 13.9214 18.5699 13.9214 18.5717C13.9214 18.5734 13.9214 18.5752 13.9214 18.577C13.9214 18.5788 13.9214 18.5805 13.9214 18.5823C13.9214 18.5841 13.9214 18.5858 13.9214 18.5876C13.9214 18.5894 13.9214 18.5912 13.9214 18.5929C13.9214 18.5947 13.9214 18.5965 13.9214 18.5982C13.9214 18.6 13.9214 18.6018 13.9214 18.6036C13.9214 18.6053 13.9214 18.6071 13.9214 18.6089C13.9214 18.6107 13.9214 18.6124 13.9214 18.6142C13.9214 18.616 13.9214 18.6178 13.9214 18.6195C13.9214 18.6213 13.9214 18.6231 13.9214 18.6249C13.9214 18.6266 13.9214 18.6284 13.9214 18.6302C13.9214 18.632 13.9214 18.6337 13.9214 18.6355C13.9214 18.6373 13.9214 18.6391 13.9214 18.6408C13.9214 18.6426 13.9214 18.6444 13.9214 18.6462C13.9214 18.6479 13.9214 18.6497 13.9214 18.6515C13.9214 18.6533 13.9214 18.6551 13.9214 18.6568C13.9214 18.6586 13.9214 18.6604 13.9214 18.6622C13.9214 18.664 13.9214 18.6657 13.9214 18.6675C13.9214 18.6693 13.9214 18.6711 13.9214 18.6728C13.9214 18.6746 13.9214 18.6764 13.9214 18.6782C13.9214 18.68 13.9214 18.6817 13.9214 18.6835C13.9214 18.6853 13.9214 18.6871 13.9214 18.6889C13.9214 18.6907 13.9214 18.6924 13.9214 18.6942C13.9214 18.696 13.9214 18.6978 13.9214 18.6996C13.9214 18.7013 13.9214 18.7031 13.9214 18.7049C13.9214 18.7067 13.9214 18.7085 13.9214 18.7103C13.9214 18.712 13.9214 18.7138 13.9214 18.7156C13.9214 18.7174 13.9214 18.7192 13.9214 18.721C13.9214 18.7227 13.9214 18.7245 13.9214 18.7263C13.9214 18.7281 13.9214 18.7299 13.9214 18.7317C13.9214 18.7335 13.9214 18.7352 13.9214 18.737C13.9214 18.7388 13.9214 18.7406 13.9214 18.7424C13.9214 18.7442 13.9214 18.746 13.9214 18.7477C13.9214 18.7495 13.9214 18.7513 13.9214 18.7531C13.9214 18.7549 13.9214 18.7567 13.9214 18.7585C13.9214 18.7603 13.9214 18.762 13.9214 18.7638C13.9214 18.7656 13.9214 18.7674 13.9214 18.7692C13.9214 18.771 13.9214 18.7728 13.9214 18.7746C13.9214 18.7764 13.9214 18.7781 13.9214 18.7799C13.9214 18.7817 13.9214 18.7835 13.9214 18.7853C13.9214 18.7871 13.9214 18.7889 13.9214 18.7907C13.9214 18.7925 13.9214 18.7943 13.9214 18.796C13.9214 18.7978 13.9214 18.7996 13.9214 18.8014C13.9214 18.8032 13.9214 18.805 13.9214 18.8068C13.9214 18.8086 13.9214 18.8104 13.9214 18.8122C13.9214 18.814 13.9214 18.8158 13.9214 18.8175C13.9214 18.8193 13.9214 18.8211 13.9214 18.8229C13.9214 18.8247 13.9214 18.8265 13.9214 18.8283C13.9214 18.8301 13.9214 18.8319 13.9214 18.8337C13.9214 18.8355 13.9214 18.8373 13.9214 18.8391C13.9214 18.8409 13.9214 18.8427 13.9214 18.8445C13.9214 18.8463 13.9214 18.848 13.9214 18.8498C13.9214 18.8516 13.9214 18.8534 13.9214 18.8552C13.9214 18.857 13.9214 18.8588 13.9214 18.8606C13.9214 18.8624 13.9214 18.8642 13.9214 18.866C13.9214 18.8678 13.9214 18.8696 13.9214 18.8714C13.9214 18.8732 13.9214 18.875 13.9214 18.8768C13.9214 18.8786 13.9214 18.8804 13.9214 18.8822C13.9214 18.884 13.9214 18.8858 13.9214 18.8876C13.9214 18.8894 13.9214 18.8912 13.9214 18.893C13.9214 18.8948 13.9214 18.8966 13.9214 18.8984C13.9214 18.9002 13.9214 18.902 13.9214 18.9038C13.9214 18.9056 13.9214 18.9074 13.9214 18.9092C13.9214 18.911 13.9214 18.9128 13.9214 18.9146C13.9214 18.9164 13.9214 18.9182 13.9214 18.92C13.9214 18.9218 13.9214 18.9236 13.9214 18.9254C13.9214 18.9272 13.9214 18.929 13.9214 18.9308C13.9214 18.9326 13.9214 18.9344 13.9214 18.9362C13.9214 18.938 13.9214 18.9398 13.9214 18.9416C13.9214 18.9434 13.9214 18.9452 13.9214 18.9471C13.9214 18.9489 13.9214 18.9507 13.9214 18.9525C13.9214 18.9543 13.9214 18.9561 13.9214 18.9579C13.9214 18.9597 13.9214 18.9615 13.9214 18.9633C13.9214 18.9651 13.9214 18.9669 13.9214 18.9687C13.9214 18.9705 13.9214 18.9723 13.9214 18.9741C13.9214 18.9759 13.9214 18.9778 13.9214 18.9796C13.9214 18.9814 13.9214 18.9832 13.9214 18.985C13.9214 18.9868 13.9214 18.9886 13.9214 18.9904C13.9214 18.9922 13.9214 18.994 13.9214 18.9958C13.9214 18.9976 13.9214 18.9994 13.9214 19.0013C13.9214 19.0031 13.9214 19.0049 13.9214 19.0067C13.9214 19.0085 13.9214 19.0103 13.9214 19.0121C13.9214 19.0139 13.9214 19.0157 13.9214 19.0175C13.9214 19.0194 13.9214 19.0212 13.9214 19.023C13.9214 19.0248 13.9214 19.0266 13.9214 19.0284C13.9214 19.0302 13.9214 19.032 13.9214 19.0338C13.9214 19.0357 13.9214 19.0375 13.9214 19.0393C13.9214 19.0411 13.9214 19.0429 13.9214 19.0447C13.9214 19.0465 13.9214 19.0483 13.9214 19.0502C13.9214 19.052 13.9214 19.0538 13.9214 19.0556C13.9214 19.0574 13.9214 19.0592 13.9214 19.061C13.9214 19.0629 13.9214 19.0647 13.9214 19.0665C13.9214 19.0683 13.9214 19.0701 13.9214 19.0719C13.9214 19.0737 13.9214 19.0756 13.9214 19.0774C13.9214 19.0792 13.9214 19.081 13.9214 19.0828C13.9214 19.0846 13.9214 19.0864 13.9214 19.0883C13.9214 19.0901 13.9214 19.0919 13.9214 19.0937C13.9214 19.0955 13.9214 19.0974 13.9214 19.0992C13.9214 19.101 13.9214 19.1028 13.9214 19.1046C13.9214 19.1064 13.9214 19.1083 13.9214 19.1101C13.9214 19.1119 13.9214 19.1137 13.9214 19.1155C13.9214 19.1173 13.9214 19.1192 13.9214 19.121C13.9214 19.1228 13.9214 19.1246 13.9214 19.1264C13.9214 19.1283 13.9214 19.1301 13.9214 19.1319C13.9214 19.1337 13.9214 19.1355 13.9214 19.1374C13.9214 19.1392 13.9214 19.141 13.9214 19.1428C13.9214 19.1446 13.9214 19.1465 13.9214 19.1483C13.9214 19.1501 13.9214 19.1519 13.9214 19.1538C13.9214 19.1556 13.9214 19.1574 13.9214 19.1592C13.9214 19.161 13.9214 19.1629 13.9214 19.1647C13.9214 19.1665 13.9214 19.1683 13.9214 19.1702C13.9214 19.172 13.9214 19.1738 13.9214 19.1756C13.9214 19.1774 13.9214 19.1793 13.9214 19.1811C13.9214 19.1829 13.9214 19.1847 13.9214 19.1866C13.9214 19.1884 13.9214 19.1902 13.9214 19.192C13.9214 19.1939 13.9214 19.1957 13.9214 19.1975C13.9214 19.1993 13.9214 19.2012 13.9214 19.203C13.9214 19.2048 13.9214 19.2066 13.9214 19.2085C13.9214 19.2103 13.9214 19.2121 13.9214 19.214C13.9214 19.2158 13.9214 19.2176 13.9214 19.2194C13.9214 19.2213 13.9214 19.2231 13.9214 19.2249C13.9214 19.2267 13.9214 19.2286 13.9214 19.2304C13.9214 19.2322 13.9214 19.2341 13.9214 19.2359C13.9214 19.2377 13.9214 19.2395 13.9214 19.2414C13.9214 19.2432 13.9214 19.245 13.9214 19.2469C13.9214 19.2487 13.9214 19.2505 13.9214 19.2523C13.9214 19.2542 13.9214 19.256 13.9214 19.2578C13.9214 19.2597 13.9214 19.2615 13.9214 19.2633C13.9214 19.2652 13.9214 19.267 13.9214 19.2688C13.9214 19.2706 13.9214 19.2725 13.9214 19.2743C13.9214 19.2761 13.9214 19.278 13.9214 19.2798C13.9214 19.2816 13.9214 19.2835 13.9214 19.2853C13.9214 19.2871 13.9214 19.289 13.9214 19.2908C13.9214 19.2926 13.9214 19.2945 13.9214 19.2963C13.9214 19.2981 13.9214 19.3 13.9214 19.3018C13.9214 19.3036 13.9214 19.3055 13.9214 19.3073C13.9214 19.3091 13.9214 19.311 13.9214 19.3128C13.9214 19.3146 13.9214 19.3165 13.9214 19.3183C13.9214 19.3201 13.9214 19.322 13.9214 19.3238C13.9214 19.3256 13.9214 19.3275 13.9214 19.3293C13.9214 19.3312 13.9214 19.333 13.9214 19.3348C13.9214 19.3367 13.9214 19.3385 13.9214 19.3403C13.9214 19.3422 13.9214 19.344 13.9214 19.3458C13.9214 19.3477 13.9214 19.3495 13.9214 19.3514C13.9214 19.3532 13.9214 19.355 13.9214 19.3569C13.9214 19.3587 13.9214 19.3605 13.9214 19.3624C13.9214 19.3642 13.9214 19.3661 13.9214 19.3679C13.9214 19.3697 13.9214 19.3716 13.9214 19.3734C13.9214 19.3753 13.9214 19.3771 13.9214 19.3789C13.9214 19.3808 13.9214 19.3826 13.9214 19.3845C13.9214 19.3863 13.9214 19.3881 13.9214 19.39C13.9214 19.3918 13.9214 19.3937 13.9214 19.3955C13.9214 19.3973 13.9214 19.3992 13.9214 19.401C13.9214 19.4029 13.9214 19.4047 13.9214 19.4065C13.9214 19.4084 13.9214 19.4102 13.9214 19.4121C13.9214 19.4139 13.9214 19.4158 13.9214 19.4176C13.9214 19.4194 13.9214 19.4213 13.9214 19.4231C13.9214 19.425 13.9214 19.4268 13.9214 19.4287C13.9214 19.4305 13.9214 19.4323 13.9214 19.4342C13.9214 19.436 13.9214 19.4379 13.9214 19.4397C13.9214 19.4416 13.9214 19.4434 13.9214 19.4453C13.9214 19.4471 13.9214 19.4489 13.9214 19.4508C13.9214 19.4526 13.9214 19.4545 13.9214 19.4563C13.9214 19.4582 13.9214 19.46 13.9214 19.4619C13.9214 19.4637 13.9214 19.4656 13.9214 19.4674C13.9214 19.4692 13.9214 19.4711 13.9214 19.4729C13.9214 19.4748 13.9214 19.4766 13.9214 19.4785C13.9214 19.4803 13.9214 19.4822 13.9214 19.484C13.9214 19.4859 13.9214 19.4877 13.9214 19.4896C13.9214 19.4914 13.9214 19.4933 13.9214 19.4951C13.9214 19.497 13.9214 19.4988 13.9214 19.5007C13.9214 19.5025 13.9214 19.5044 13.9214 19.5062C13.9214 19.5081 13.9214 19.5099 13.9214 19.5117C13.9214 19.5136 13.9214 19.5154 13.9214 19.5173C13.9214 19.5191 13.9214 19.521 13.9214 19.5228C13.9214 19.5247 13.9214 19.5266 13.9214 19.5284C13.9214 19.5303 13.9214 19.5321 13.9214 19.534C13.9214 19.5358 13.9214 19.5377 13.9214 19.5395C13.9214 19.5414 13.9214 19.5432 13.9214 19.5451C13.9214 19.5469 13.9214 19.5488 13.9214 19.5506C13.9214 19.5525 13.9214 19.5543 13.9214 19.5562C13.9214 19.558 13.9214 19.5599 13.9214 19.5617C13.9214 19.5636 13.9214 19.5654 13.9214 19.5673C13.9214 19.5692 13.9214 19.571 13.9214 19.5729C13.9214 19.5747 13.9214 19.5766 13.9214 19.5784C13.9214 19.5803 13.9214 19.5821 13.9214 19.584C13.9214 19.5858 13.9214 19.5877 13.9214 19.5895C13.9214 19.5914 13.9214 19.5933 13.9214 19.5951C13.9214 19.597 13.9214 19.5988 13.9214 19.6007C13.9214 19.6025 13.9214 19.6044 13.9214 19.6063C13.9214 19.6081 13.9214 19.61 13.9214 19.6118C13.9214 19.6137 13.9214 19.6155 13.9214 19.6174C13.9214 19.6192 13.9214 19.6211 13.9214 19.623C13.9214 19.6248 13.9214 19.6267 13.9214 19.6285C13.9214 19.6304 13.9214 19.6323 13.9214 19.6341C13.9214 19.636 13.9214 19.6378 13.9214 19.6397C13.9214 19.6415 13.9214 19.6434 13.9214 19.6453C13.9214 19.6471 13.9214 19.649 13.9214 19.6508C13.9214 19.6527 13.9214 19.6546 13.9214 19.6564C13.9214 19.6583 13.9214 19.6601 13.9214 19.662C13.9214 19.6639 13.9214 19.6657 13.9214 19.6676C13.9214 19.6694 13.9214 19.6713 13.9214 19.6732C13.9214 19.675 13.9214 19.6769 13.9214 19.6788C13.9214 19.6806 13.9214 19.6825 13.9214 19.6843C13.9214 19.6862 13.9214 19.6881 13.9214 19.6899C13.9214 19.6918 13.9214 19.6936 13.9214 19.6955C13.9214 19.6974 13.9214 19.6992 13.9214 19.7011C13.9214 19.703 13.9214 19.7048 13.9214 19.7067C13.9214 19.7086 13.9214 19.7104 13.9214 19.7123C13.9214 19.7141 13.9214 19.716 13.9214 19.7179C13.9214 19.7197 13.9214 19.7216 13.9214 19.7235C13.9214 19.7253 13.9214 19.7272 13.9214 19.7291C13.9214 19.7309 13.9214 19.7328 13.9214 19.7347C13.9214 19.7365 13.9214 19.7384 13.9214 19.7403C13.9214 19.7421 13.9214 19.744 13.9214 19.7459C13.9214 19.7477 13.9214 19.7496 13.9214 19.7514C13.9214 19.7533 13.9214 19.7552 13.9214 19.757C13.9214 19.7589 13.9214 19.7608 13.9214 19.7627C13.9214 19.7645 13.9214 19.7664 13.9214 19.7683C13.9214 19.7701 13.9214 19.772 13.9214 19.7739C13.9214 19.7757 13.9214 19.7776 13.9214 19.7795C13.9214 19.7813 13.9214 19.7832 13.9214 19.7851C13.9214 19.7869 13.9214 19.7888 13.9214 19.7907C13.9214 19.7925 13.9214 19.7944 13.9214 19.7963C13.9214 19.7982 13.9214 19.8 13.9214 19.8019C13.9214 19.8038 13.9214 19.8056 13.9214 19.8075C13.9214 19.8094 13.9214 19.8112 13.9214 19.8131C13.9214 19.815 13.9214 19.8169 13.9214 19.8187C13.9214 19.8206 13.9214 19.8225 13.9214 19.8243C13.9214 19.8262 13.9214 19.8281 13.9214 19.83C13.9214 19.8318 13.9214 19.8337 13.9214 19.8356C13.9214 19.8374 13.9214 19.8393 13.9214 19.8412C13.9214 19.8431 13.9214 19.8449 13.9214 19.8468C13.9214 19.8487 13.9214 19.8506 13.9214 19.8524C13.9214 19.8543 13.9214 19.8562 13.9214 19.858C13.9214 19.8599 13.9214 19.8618 13.9214 19.8637C13.9214 19.8655 13.9214 19.8674 13.9214 19.8693C13.9214 19.8712 13.9214 19.873 13.9214 19.8749C13.9214 19.8768 13.9214 19.8787 13.9214 19.8805C13.9214 19.8824 13.9214 19.8843 13.9214 19.8862C13.9214 19.888 13.9214 19.8899 13.9214 19.8918C13.9214 19.8937 13.9214 19.8955 13.9214 19.8974C13.9214 19.8993 13.9214 19.9012 13.9214 19.9031C13.9214 19.9049 13.9214 19.9068 13.9214 19.9087C13.9214 19.9106 13.9214 19.9124 13.9214 19.9143C13.9214 19.9162 13.9214 19.9181 13.9214 19.9199C13.9214 19.9218 13.9214 19.9237 13.9214 19.9256C13.9214 19.9275 13.9214 19.9293 13.9214 19.9312C13.9214 19.9331 13.9214 19.935 13.9214 19.9369C13.9214 19.9387 13.9214 19.9406 13.9214 19.9425C13.9214 19.9444 13.9214 19.9462 13.9214 19.9481C13.9214 19.95 13.9214 19.9519 13.9214 19.9538C13.9214 19.9556 13.9214 19.9575 13.9214 19.9594C13.9214 19.9613 13.9214 19.9632 13.9214 19.965C13.9214 19.9669 13.9214 19.9688 13.9214 19.9707C13.9214 19.9726 13.9214 19.9745 13.9214 19.9763C13.9214 19.9782 13.9214 19.9801 13.9214 19.982C13.9214 19.9839 13.9214 19.9857 13.9214 19.9876H15.2214C15.2214 19.9857 15.2214 19.9839 15.2214 19.982C15.2214 19.9801 15.2214 19.9782 15.2214 19.9763C15.2214 19.9745 15.2214 19.9726 15.2214 19.9707C15.2214 19.9688 15.2214 19.9669 15.2214 19.965C15.2214 19.9632 15.2214 19.9613 15.2214 19.9594C15.2214 19.9575 15.2214 19.9556 15.2214 19.9538C15.2214 19.9519 15.2214 19.95 15.2214 19.9481C15.2214 19.9462 15.2214 19.9444 15.2214 19.9425C15.2214 19.9406 15.2214 19.9387 15.2214 19.9369C15.2214 19.935 15.2214 19.9331 15.2214 19.9312C15.2214 19.9293 15.2214 19.9275 15.2214 19.9256C15.2214 19.9237 15.2214 19.9218 15.2214 19.9199C15.2214 19.9181 15.2214 19.9162 15.2214 19.9143C15.2214 19.9124 15.2214 19.9106 15.2214 19.9087C15.2214 19.9068 15.2214 19.9049 15.2214 19.9031C15.2214 19.9012 15.2214 19.8993 15.2214 19.8974C15.2214 19.8955 15.2214 19.8937 15.2214 19.8918C15.2214 19.8899 15.2214 19.888 15.2214 19.8862C15.2214 19.8843 15.2214 19.8824 15.2214 19.8805C15.2214 19.8787 15.2214 19.8768 15.2214 19.8749C15.2214 19.873 15.2214 19.8712 15.2214 19.8693C15.2214 19.8674 15.2214 19.8655 15.2214 19.8637C15.2214 19.8618 15.2214 19.8599 15.2214 19.858C15.2214 19.8562 15.2214 19.8543 15.2214 19.8524C15.2214 19.8506 15.2214 19.8487 15.2214 19.8468C15.2214 19.8449 15.2214 19.8431 15.2214 19.8412C15.2214 19.8393 15.2214 19.8374 15.2214 19.8356C15.2214 19.8337 15.2214 19.8318 15.2214 19.83C15.2214 19.8281 15.2214 19.8262 15.2214 19.8243C15.2214 19.8225 15.2214 19.8206 15.2214 19.8187C15.2214 19.8169 15.2214 19.815 15.2214 19.8131C15.2214 19.8112 15.2214 19.8094 15.2214 19.8075C15.2214 19.8056 15.2214 19.8038 15.2214 19.8019C15.2214 19.8 15.2214 19.7982 15.2214 19.7963C15.2214 19.7944 15.2214 19.7925 15.2214 19.7907C15.2214 19.7888 15.2214 19.7869 15.2214 19.7851C15.2214 19.7832 15.2214 19.7813 15.2214 19.7795C15.2214 19.7776 15.2214 19.7757 15.2214 19.7739C15.2214 19.772 15.2214 19.7701 15.2214 19.7683C15.2214 19.7664 15.2214 19.7645 15.2214 19.7627C15.2214 19.7608 15.2214 19.7589 15.2214 19.757C15.2214 19.7552 15.2214 19.7533 15.2214 19.7514C15.2214 19.7496 15.2214 19.7477 15.2214 19.7459C15.2214 19.744 15.2214 19.7421 15.2214 19.7403C15.2214 19.7384 15.2214 19.7365 15.2214 19.7347C15.2214 19.7328 15.2214 19.7309 15.2214 19.7291C15.2214 19.7272 15.2214 19.7253 15.2214 19.7235C15.2214 19.7216 15.2214 19.7197 15.2214 19.7179C15.2214 19.716 15.2214 19.7141 15.2214 19.7123C15.2214 19.7104 15.2214 19.7086 15.2214 19.7067C15.2214 19.7048 15.2214 19.703 15.2214 19.7011C15.2214 19.6992 15.2214 19.6974 15.2214 19.6955C15.2214 19.6936 15.2214 19.6918 15.2214 19.6899C15.2214 19.6881 15.2214 19.6862 15.2214 19.6843C15.2214 19.6825 15.2214 19.6806 15.2214 19.6788C15.2214 19.6769 15.2214 19.675 15.2214 19.6732C15.2214 19.6713 15.2214 19.6694 15.2214 19.6676C15.2214 19.6657 15.2214 19.6639 15.2214 19.662C15.2214 19.6601 15.2214 19.6583 15.2214 19.6564C15.2214 19.6546 15.2214 19.6527 15.2214 19.6508C15.2214 19.649 15.2214 19.6471 15.2214 19.6453C15.2214 19.6434 15.2214 19.6415 15.2214 19.6397C15.2214 19.6378 15.2214 19.636 15.2214 19.6341C15.2214 19.6323 15.2214 19.6304 15.2214 19.6285C15.2214 19.6267 15.2214 19.6248 15.2214 19.623C15.2214 19.6211 15.2214 19.6192 15.2214 19.6174C15.2214 19.6155 15.2214 19.6137 15.2214 19.6118C15.2214 19.61 15.2214 19.6081 15.2214 19.6063C15.2214 19.6044 15.2214 19.6025 15.2214 19.6007C15.2214 19.5988 15.2214 19.597 15.2214 19.5951C15.2214 19.5933 15.2214 19.5914 15.2214 19.5895C15.2214 19.5877 15.2214 19.5858 15.2214 19.584C15.2214 19.5821 15.2214 19.5803 15.2214 19.5784C15.2214 19.5766 15.2214 19.5747 15.2214 19.5729C15.2214 19.571 15.2214 19.5692 15.2214 19.5673C15.2214 19.5654 15.2214 19.5636 15.2214 19.5617C15.2214 19.5599 15.2214 19.558 15.2214 19.5562C15.2214 19.5543 15.2214 19.5525 15.2214 19.5506C15.2214 19.5488 15.2214 19.5469 15.2214 19.5451C15.2214 19.5432 15.2214 19.5414 15.2214 19.5395C15.2214 19.5377 15.2214 19.5358 15.2214 19.534C15.2214 19.5321 15.2214 19.5303 15.2214 19.5284C15.2214 19.5266 15.2214 19.5247 15.2214 19.5228C15.2214 19.521 15.2214 19.5191 15.2214 19.5173C15.2214 19.5154 15.2214 19.5136 15.2214 19.5117C15.2214 19.5099 15.2214 19.5081 15.2214 19.5062C15.2214 19.5044 15.2214 19.5025 15.2214 19.5007C15.2214 19.4988 15.2214 19.497 15.2214 19.4951C15.2214 19.4933 15.2214 19.4914 15.2214 19.4896C15.2214 19.4877 15.2214 19.4859 15.2214 19.484C15.2214 19.4822 15.2214 19.4803 15.2214 19.4785C15.2214 19.4766 15.2214 19.4748 15.2214 19.4729C15.2214 19.4711 15.2214 19.4692 15.2214 19.4674C15.2214 19.4656 15.2214 19.4637 15.2214 19.4619C15.2214 19.46 15.2214 19.4582 15.2214 19.4563C15.2214 19.4545 15.2214 19.4526 15.2214 19.4508C15.2214 19.4489 15.2214 19.4471 15.2214 19.4453C15.2214 19.4434 15.2214 19.4416 15.2214 19.4397C15.2214 19.4379 15.2214 19.436 15.2214 19.4342C15.2214 19.4323 15.2214 19.4305 15.2214 19.4287C15.2214 19.4268 15.2214 19.425 15.2214 19.4231C15.2214 19.4213 15.2214 19.4194 15.2214 19.4176C15.2214 19.4158 15.2214 19.4139 15.2214 19.4121C15.2214 19.4102 15.2214 19.4084 15.2214 19.4065C15.2214 19.4047 15.2214 19.4029 15.2214 19.401C15.2214 19.3992 15.2214 19.3973 15.2214 19.3955C15.2214 19.3937 15.2214 19.3918 15.2214 19.39C15.2214 19.3881 15.2214 19.3863 15.2214 19.3845C15.2214 19.3826 15.2214 19.3808 15.2214 19.3789C15.2214 19.3771 15.2214 19.3753 15.2214 19.3734C15.2214 19.3716 15.2214 19.3697 15.2214 19.3679C15.2214 19.3661 15.2214 19.3642 15.2214 19.3624C15.2214 19.3605 15.2214 19.3587 15.2214 19.3569C15.2214 19.355 15.2214 19.3532 15.2214 19.3514C15.2214 19.3495 15.2214 19.3477 15.2214 19.3458C15.2214 19.344 15.2214 19.3422 15.2214 19.3403C15.2214 19.3385 15.2214 19.3367 15.2214 19.3348C15.2214 19.333 15.2214 19.3312 15.2214 19.3293C15.2214 19.3275 15.2214 19.3256 15.2214 19.3238C15.2214 19.322 15.2214 19.3201 15.2214 19.3183C15.2214 19.3165 15.2214 19.3146 15.2214 19.3128C15.2214 19.311 15.2214 19.3091 15.2214 19.3073C15.2214 19.3055 15.2214 19.3036 15.2214 19.3018C15.2214 19.3 15.2214 19.2981 15.2214 19.2963C15.2214 19.2945 15.2214 19.2926 15.2214 19.2908C15.2214 19.289 15.2214 19.2871 15.2214 19.2853C15.2214 19.2835 15.2214 19.2816 15.2214 19.2798C15.2214 19.278 15.2214 19.2761 15.2214 19.2743C15.2214 19.2725 15.2214 19.2706 15.2214 19.2688C15.2214 19.267 15.2214 19.2652 15.2214 19.2633C15.2214 19.2615 15.2214 19.2597 15.2214 19.2578C15.2214 19.256 15.2214 19.2542 15.2214 19.2523C15.2214 19.2505 15.2214 19.2487 15.2214 19.2469C15.2214 19.245 15.2214 19.2432 15.2214 19.2414C15.2214 19.2395 15.2214 19.2377 15.2214 19.2359C15.2214 19.2341 15.2214 19.2322 15.2214 19.2304C15.2214 19.2286 15.2214 19.2267 15.2214 19.2249C15.2214 19.2231 15.2214 19.2213 15.2214 19.2194C15.2214 19.2176 15.2214 19.2158 15.2214 19.214C15.2214 19.2121 15.2214 19.2103 15.2214 19.2085C15.2214 19.2066 15.2214 19.2048 15.2214 19.203C15.2214 19.2012 15.2214 19.1993 15.2214 19.1975C15.2214 19.1957 15.2214 19.1939 15.2214 19.192C15.2214 19.1902 15.2214 19.1884 15.2214 19.1866C15.2214 19.1847 15.2214 19.1829 15.2214 19.1811C15.2214 19.1793 15.2214 19.1774 15.2214 19.1756C15.2214 19.1738 15.2214 19.172 15.2214 19.1702C15.2214 19.1683 15.2214 19.1665 15.2214 19.1647C15.2214 19.1629 15.2214 19.161 15.2214 19.1592C15.2214 19.1574 15.2214 19.1556 15.2214 19.1538C15.2214 19.1519 15.2214 19.1501 15.2214 19.1483C15.2214 19.1465 15.2214 19.1446 15.2214 19.1428C15.2214 19.141 15.2214 19.1392 15.2214 19.1374C15.2214 19.1355 15.2214 19.1337 15.2214 19.1319C15.2214 19.1301 15.2214 19.1283 15.2214 19.1264C15.2214 19.1246 15.2214 19.1228 15.2214 19.121C15.2214 19.1192 15.2214 19.1173 15.2214 19.1155C15.2214 19.1137 15.2214 19.1119 15.2214 19.1101C15.2214 19.1083 15.2214 19.1064 15.2214 19.1046C15.2214 19.1028 15.2214 19.101 15.2214 19.0992C15.2214 19.0974 15.2214 19.0955 15.2214 19.0937C15.2214 19.0919 15.2214 19.0901 15.2214 19.0883C15.2214 19.0864 15.2214 19.0846 15.2214 19.0828C15.2214 19.081 15.2214 19.0792 15.2214 19.0774C15.2214 19.0756 15.2214 19.0737 15.2214 19.0719C15.2214 19.0701 15.2214 19.0683 15.2214 19.0665C15.2214 19.0647 15.2214 19.0629 15.2214 19.061C15.2214 19.0592 15.2214 19.0574 15.2214 19.0556C15.2214 19.0538 15.2214 19.052 15.2214 19.0502C15.2214 19.0483 15.2214 19.0465 15.2214 19.0447C15.2214 19.0429 15.2214 19.0411 15.2214 19.0393C15.2214 19.0375 15.2214 19.0357 15.2214 19.0338C15.2214 19.032 15.2214 19.0302 15.2214 19.0284C15.2214 19.0266 15.2214 19.0248 15.2214 19.023C15.2214 19.0212 15.2214 19.0194 15.2214 19.0175C15.2214 19.0157 15.2214 19.0139 15.2214 19.0121C15.2214 19.0103 15.2214 19.0085 15.2214 19.0067C15.2214 19.0049 15.2214 19.0031 15.2214 19.0013C15.2214 18.9994 15.2214 18.9976 15.2214 18.9958C15.2214 18.994 15.2214 18.9922 15.2214 18.9904C15.2214 18.9886 15.2214 18.9868 15.2214 18.985C15.2214 18.9832 15.2214 18.9814 15.2214 18.9796C15.2214 18.9778 15.2214 18.9759 15.2214 18.9741C15.2214 18.9723 15.2214 18.9705 15.2214 18.9687C15.2214 18.9669 15.2214 18.9651 15.2214 18.9633C15.2214 18.9615 15.2214 18.9597 15.2214 18.9579C15.2214 18.9561 15.2214 18.9543 15.2214 18.9525C15.2214 18.9507 15.2214 18.9489 15.2214 18.9471C15.2214 18.9452 15.2214 18.9434 15.2214 18.9416C15.2214 18.9398 15.2214 18.938 15.2214 18.9362C15.2214 18.9344 15.2214 18.9326 15.2214 18.9308C15.2214 18.929 15.2214 18.9272 15.2214 18.9254C15.2214 18.9236 15.2214 18.9218 15.2214 18.92C15.2214 18.9182 15.2214 18.9164 15.2214 18.9146C15.2214 18.9128 15.2214 18.911 15.2214 18.9092C15.2214 18.9074 15.2214 18.9056 15.2214 18.9038C15.2214 18.902 15.2214 18.9002 15.2214 18.8984C15.2214 18.8966 15.2214 18.8948 15.2214 18.893C15.2214 18.8912 15.2214 18.8894 15.2214 18.8876C15.2214 18.8858 15.2214 18.884 15.2214 18.8822C15.2214 18.8804 15.2214 18.8786 15.2214 18.8768C15.2214 18.875 15.2214 18.8732 15.2214 18.8714C15.2214 18.8696 15.2214 18.8678 15.2214 18.866C15.2214 18.8642 15.2214 18.8624 15.2214 18.8606C15.2214 18.8588 15.2214 18.857 15.2214 18.8552C15.2214 18.8534 15.2214 18.8516 15.2214 18.8498C15.2214 18.848 15.2214 18.8463 15.2214 18.8445C15.2214 18.8427 15.2214 18.8409 15.2214 18.8391C15.2214 18.8373 15.2214 18.8355 15.2214 18.8337C15.2214 18.8319 15.2214 18.8301 15.2214 18.8283C15.2214 18.8265 15.2214 18.8247 15.2214 18.8229C15.2214 18.8211 15.2214 18.8193 15.2214 18.8175C15.2214 18.8158 15.2214 18.814 15.2214 18.8122C15.2214 18.8104 15.2214 18.8086 15.2214 18.8068C15.2214 18.805 15.2214 18.8032 15.2214 18.8014C15.2214 18.7996 15.2214 18.7978 15.2214 18.796C15.2214 18.7943 15.2214 18.7925 15.2214 18.7907C15.2214 18.7889 15.2214 18.7871 15.2214 18.7853C15.2214 18.7835 15.2214 18.7817 15.2214 18.7799C15.2214 18.7781 15.2214 18.7764 15.2214 18.7746C15.2214 18.7728 15.2214 18.771 15.2214 18.7692C15.2214 18.7674 15.2214 18.7656 15.2214 18.7638C15.2214 18.762 15.2214 18.7603 15.2214 18.7585C15.2214 18.7567 15.2214 18.7549 15.2214 18.7531C15.2214 18.7513 15.2214 18.7495 15.2214 18.7477C15.2214 18.746 15.2214 18.7442 15.2214 18.7424C15.2214 18.7406 15.2214 18.7388 15.2214 18.737C15.2214 18.7352 15.2214 18.7335 15.2214 18.7317C15.2214 18.7299 15.2214 18.7281 15.2214 18.7263C15.2214 18.7245 15.2214 18.7227 15.2214 18.721C15.2214 18.7192 15.2214 18.7174 15.2214 18.7156C15.2214 18.7138 15.2214 18.712 15.2214 18.7103C15.2214 18.7085 15.2214 18.7067 15.2214 18.7049C15.2214 18.7031 15.2214 18.7013 15.2214 18.6996C15.2214 18.6978 15.2214 18.696 15.2214 18.6942C15.2214 18.6924 15.2214 18.6907 15.2214 18.6889C15.2214 18.6871 15.2214 18.6853 15.2214 18.6835C15.2214 18.6817 15.2214 18.68 15.2214 18.6782C15.2214 18.6764 15.2214 18.6746 15.2214 18.6728C15.2214 18.6711 15.2214 18.6693 15.2214 18.6675C15.2214 18.6657 15.2214 18.664 15.2214 18.6622C15.2214 18.6604 15.2214 18.6586 15.2214 18.6568C15.2214 18.6551 15.2214 18.6533 15.2214 18.6515C15.2214 18.6497 15.2214 18.6479 15.2214 18.6462C15.2214 18.6444 15.2214 18.6426 15.2214 18.6408C15.2214 18.6391 15.2214 18.6373 15.2214 18.6355C15.2214 18.6337 15.2214 18.632 15.2214 18.6302C15.2214 18.6284 15.2214 18.6266 15.2214 18.6249C15.2214 18.6231 15.2214 18.6213 15.2214 18.6195C15.2214 18.6178 15.2214 18.616 15.2214 18.6142C15.2214 18.6124 15.2214 18.6107 15.2214 18.6089C15.2214 18.6071 15.2214 18.6053 15.2214 18.6036C15.2214 18.6018 15.2214 18.6 15.2214 18.5982C15.2214 18.5965 15.2214 18.5947 15.2214 18.5929C15.2214 18.5912 15.2214 18.5894 15.2214 18.5876C15.2214 18.5858 15.2214 18.5841 15.2214 18.5823C15.2214 18.5805 15.2214 18.5788 15.2214 18.577C15.2214 18.5752 15.2214 18.5734 15.2214 18.5717C15.2214 18.5699 15.2214 18.5681 15.2214 18.5664C15.2214 18.5646 15.2214 18.5628 15.2214 18.5611C15.2214 18.5593 15.2214 18.5575 15.2214 18.5558C15.2214 18.554 15.2214 18.5522 15.2214 18.5504C15.2214 18.5487 15.2214 18.5469 15.2214 18.5451C15.2214 18.5434 15.2214 18.5416 15.2214 18.5398C15.2214 18.5381 15.2214 18.5363 15.2214 18.5345C15.2214 18.5328 15.2214 18.531 15.2214 18.5292C15.2214 18.5275 15.2214 18.5257 15.2214 18.5239C15.2214 18.5222 15.2214 18.5204 15.2214 18.5187C15.2214 18.5169 15.2214 18.5151 15.2214 18.5134C15.2214 18.5116 15.2214 18.5098 15.2214 18.5081C15.2214 18.5063 15.2214 18.5045 15.2214 18.5028C15.2214 18.501 15.2214 18.4992 15.2214 18.4975C15.2214 18.4957 15.2214 18.494 15.2214 18.4922C15.2214 18.4904 15.2214 18.4887 15.2214 18.4869C15.2214 18.4851 15.2214 18.4834 15.2214 18.4816C15.2214 18.4799 15.2214 18.4781 15.2214 18.4763C15.2214 18.4746 15.2214 18.4728 15.2214 18.4711C15.2214 18.4693 15.2214 18.4675 15.2214 18.4658C15.2214 18.464 15.2214 18.4623 15.2214 18.4605C15.2214 18.4587 15.2214 18.457 15.2214 18.4552C15.2214 18.4535 15.2214 18.4517 15.2214 18.4499C15.2214 18.4482 15.2214 18.4464 15.2214 18.4447C15.2214 18.4429 15.2214 18.4412 15.2214 18.4394C15.2214 18.4376 15.2214 18.4359 15.2214 18.4341C15.2214 18.4324 15.2214 18.4306 15.2214 18.4289C15.2214 18.4271 15.2214 18.4253 15.2214 18.4236C15.2214 18.4218 15.2214 18.4201 15.2214 18.4183C15.2214 18.4166 15.2214 18.4148 15.2214 18.4131C15.2214 18.4113 15.2214 18.4096 15.2214 18.4078C15.2214 18.406 15.2214 18.4043 15.2214 18.4025C15.2214 18.4008 15.2214 18.399 15.2214 18.3973C15.2214 18.3955 15.2214 18.3938 15.2214 18.392C15.2214 18.3903 15.2214 18.3885 15.2214 18.3868C15.2214 18.385 15.2214 18.3833 15.2214 18.3815C15.2214 18.3798 15.2214 18.378 15.2214 18.3763C15.2214 18.3745 15.2214 18.3728 15.2214 18.371C15.2214 18.3693 15.2214 18.3675 15.2214 18.3658C15.2214 18.364 15.2214 18.3623 15.2214 18.3605C15.2214 18.3588 15.2214 18.357 15.2214 18.3553C15.2214 18.3535 15.2214 18.3518 15.2214 18.35C15.2214 18.3483 15.2214 18.3465 15.2214 18.3448C15.2214 18.343 15.2214 18.3413 15.2214 18.3395C15.2214 18.3378 15.2214 18.336 15.2214 18.3343C15.2214 18.3325 15.2214 18.3308 15.2214 18.329C15.2214 18.3273 15.2214 18.3256 15.2214 18.3238C15.2214 18.3221 15.2214 18.3203 15.2214 18.3186C15.2214 18.3168 15.2214 18.3151 15.2214 18.3133C15.2214 18.3116 15.2214 18.3099 15.2214 18.3081C15.2214 18.3064 15.2214 18.3046 15.2214 18.3029C15.2214 18.3011 15.2214 18.2994 15.2214 18.2976C15.2214 18.2959 15.2214 18.2942 15.2214 18.2924C15.2214 18.2907 15.2214 18.2889 15.2214 18.2872C15.2214 18.2855 15.2214 18.2837 15.2214 18.282C15.2214 18.2802 15.2214 18.2785 15.2214 18.2767C15.2214 18.275 15.2214 18.2733 15.2214 18.2715C15.2214 18.2698 15.2214 18.268 15.2214 18.2663C15.2214 18.2646 15.2214 18.2628 15.2214 18.2611C15.2214 18.2594 15.2214 18.2576 15.2214 18.2559C15.2214 18.2541 15.2214 18.2524 15.2214 18.2507C15.2214 18.2489 15.2214 18.2472 15.2214 18.2454C15.2214 18.2437 15.2214 18.242 15.2214 18.2402C15.2214 18.2385 15.2214 18.2368 15.2214 18.235C15.2214 18.2333 15.2214 18.2316 15.2214 18.2298C15.2214 18.2281 15.2214 18.2263 15.2214 18.2246C15.2214 18.2229 15.2214 18.2211 15.2214 18.2194C15.2214 18.2177 15.2214 18.2159 15.2214 18.2142C15.2214 18.2125 15.2214 18.2107 15.2214 18.209C15.2214 18.2073 15.2214 18.2055 15.2214 18.2038C15.2214 18.2021 15.2214 18.2003 15.2214 18.1986C15.2214 18.1969 15.2214 18.1951 15.2214 18.1934C15.2214 18.1917 15.2214 18.1899 15.2214 18.1882C15.2214 18.1865 15.2214 18.1848 15.2214 18.183C15.2214 18.1813 15.2214 18.1796 15.2214 18.1778C15.2214 18.1761 15.2214 18.1744 15.2214 18.1726C15.2214 18.1709 15.2214 18.1692 15.2214 18.1675C15.2214 18.1657 15.2214 18.164 15.2214 18.1623C15.2214 18.1605 15.2214 18.1588 15.2214 18.1571C15.2214 18.1554 15.2214 18.1536 15.2214 18.1519C15.2214 18.1502 15.2214 18.1484 15.2214 18.1467C15.2214 18.145 15.2214 18.1433 15.2214 18.1415C15.2214 18.1398 15.2214 18.1381 15.2214 18.1364C15.2214 18.1346 15.2214 18.1329 15.2214 18.1312C15.2214 18.1295 15.2214 18.1277 15.2214 18.126C15.2214 18.1243 15.2214 18.1226 15.2214 18.1208C15.2214 18.1191 15.2214 18.1174 15.2214 18.1157C15.2214 18.1139 15.2214 18.1122 15.2214 18.1105C15.2214 18.1088 15.2214 18.107 15.2214 18.1053C15.2214 18.1036 15.2214 18.1019 15.2214 18.1002C15.2214 18.0984 15.2214 18.0967 15.2214 18.095C15.2214 18.0933 15.2214 18.0916 15.2214 18.0898C15.2214 18.0881 15.2214 18.0864 15.2214 18.0847C15.2214 18.083 15.2214 18.0812 15.2214 18.0795C15.2214 18.0778 15.2214 18.0761 15.2214 18.0744C15.2214 18.0726 15.2214 18.0709 15.2214 18.0692C15.2214 18.0675 15.2214 18.0658 15.2214 18.064C15.2214 18.0623 15.2214 18.0606 15.2214 18.0589C15.2214 18.0572 15.2214 18.0555 15.2214 18.0537C15.2214 18.052 15.2214 18.0503 15.2214 18.0486C15.2214 18.0469 15.2214 18.0452 15.2214 18.0434C15.2214 18.0417 15.2214 18.04 15.2214 18.0383C15.2214 18.0366 15.2214 18.0349 15.2214 18.0332C15.2214 18.0314 15.2214 18.0297 15.2214 18.028C15.2214 18.0263 15.2214 18.0246 15.2214 18.0229C15.2214 18.0212 15.2214 18.0194 15.2214 18.0177C15.2214 18.016 15.2214 18.0143 15.2214 18.0126C15.2214 18.0109 15.2214 18.0092 15.2214 18.0075C15.2214 18.0057 15.2214 18.004 15.2214 18.0023C15.2214 18.0006 15.2214 17.9989 15.2214 17.9972C15.2214 17.9955 15.2214 17.9938 15.2214 17.9921C15.2214 17.9904 15.2214 17.9886 15.2214 17.9869C15.2214 17.9852 15.2214 17.9835 15.2214 17.9818C15.2214 17.9801 15.2214 17.9784 15.2214 17.9767C15.2214 17.975 15.2214 17.9733 15.2214 17.9716C15.2214 17.9698 15.2214 17.9681 15.2214 17.9664C15.2214 17.9647 15.2214 17.963 15.2214 17.9613C15.2214 17.9596 15.2214 17.9579 15.2214 17.9562C15.2214 17.9545 15.2214 17.9528 15.2214 17.9511C15.2214 17.9494 15.2214 17.9477 15.2214 17.946C15.2214 17.9443 15.2214 17.9426 15.2214 17.9409C15.2214 17.9391 15.2214 17.9374 15.2214 17.9357C15.2214 17.934 15.2214 17.9323 15.2214 17.9306C15.2214 17.9289 15.2214 17.9272 15.2214 17.9255C15.2214 17.9238 15.2214 17.9221 15.2214 17.9204C15.2214 17.9187 15.2214 17.917 15.2214 17.9153C15.2214 17.9136 15.2214 17.9119 15.2214 17.9102C15.2214 17.9085 15.2214 17.9068 15.2214 17.9051C15.2214 17.9034 15.2214 17.9017 15.2214 17.9C15.2214 17.8983 15.2214 17.8966 15.2214 17.8949C15.2214 17.8932 15.2214 17.8915 15.2214 17.8898C15.2214 17.8881 15.2214 17.8864 15.2214 17.8847C15.2214 17.883 15.2214 17.8813 15.2214 17.8796C15.2214 17.8779 15.2214 17.8762 15.2214 17.8745C15.2214 17.8728 15.2214 17.8711 15.2214 17.8695C15.2214 17.8678 15.2214 17.8661 15.2214 17.8644C15.2214 17.8627 15.2214 17.861 15.2214 17.8593C15.2214 17.8576 15.2214 17.8559 15.2214 17.8542C15.2214 17.8525 15.2214 17.8508 15.2214 17.8491C15.2214 17.8474 15.2214 17.8457 15.2214 17.844C15.2214 17.8423 15.2214 17.8407 15.2214 17.839C15.2214 17.8373 15.2214 17.8356 15.2214 17.8339C15.2214 17.8322 15.2214 17.8305 15.2214 17.8288C15.2214 17.8271 15.2214 17.8254 15.2214 17.8237C15.2214 17.822 15.2214 17.8204 15.2214 17.8187C15.2214 17.817 15.2214 17.8153 15.2214 17.8136C15.2214 17.8119 15.2214 17.8102 15.2214 17.8085C15.2214 17.8068 15.2214 17.8052 15.2214 17.8035C15.2214 17.8018 15.2214 17.8001 15.2214 17.7984C15.2214 17.7967 15.2214 17.795 15.2214 17.7933C15.2214 17.7917 15.2214 17.79 15.2214 17.7883C15.2214 17.7866 15.2214 17.7849 15.2214 17.7832C15.2214 17.7815 15.2214 17.7799 15.2214 17.7782C15.2214 17.7765 15.2214 17.7748 15.2214 17.7731C15.2214 17.7714 15.2214 17.7697 15.2214 17.7681C15.2214 17.7664 15.2214 17.7647 15.2214 17.763C15.2214 17.7613 15.2214 17.7596 15.2214 17.758C15.2214 17.7563 15.2214 17.7546 15.2214 17.7529C15.2214 17.7512 15.2214 17.7495 15.2214 17.7479C15.2214 17.7462 15.2214 17.7445 15.2214 17.7428C15.2214 17.7411 15.2214 17.7395 15.2214 17.7378C15.2214 17.7361 15.2214 17.7344 15.2214 17.7327C15.2214 17.7311 15.2214 17.7294 15.2214 17.7277C15.2214 17.726 15.2214 17.7243 15.2214 17.7227C15.2214 17.721 15.2214 17.7193 15.2214 17.7176C15.2214 17.716 15.2214 17.7143 15.2214 17.7126C15.2214 17.7109 15.2214 17.7092 15.2214 17.7076C15.2214 17.7059 15.2214 17.7042 15.2214 17.7025C15.2214 17.7009 15.2214 17.6992 15.2214 17.6975C15.2214 17.6958 15.2214 17.6942 15.2214 17.6925C15.2214 17.6908 15.2214 17.6891 15.2214 17.6875C15.2214 17.6858 15.2214 17.6841 15.2214 17.6824C15.2214 17.6808 15.2214 17.6791 15.2214 17.6774C15.2214 17.6757 15.2214 17.6741 15.2214 17.6724C15.2214 17.6707 15.2214 17.6691 15.2214 17.6674C15.2214 17.6657 15.2214 17.664 15.2214 17.6624C15.2214 17.6607 15.2214 17.659 15.2214 17.6574C15.2214 17.6557 15.2214 17.654 15.2214 17.6523C15.2214 17.6507 15.2214 17.649 15.2214 17.6473C15.2214 17.6457 15.2214 17.644 15.2214 17.6423C15.2214 17.6407 15.2214 17.639 15.2214 17.6373C15.2214 17.6357 15.2214 17.634 15.2214 17.6323C15.2214 17.6307 15.2214 17.629 15.2214 17.6273C15.2214 17.6257 15.2214 17.624 15.2214 17.6223C15.2214 17.6207 15.2214 17.619 15.2214 17.6173C15.2214 17.6157 15.2214 17.614 15.2214 17.6123C15.2214 17.6107 15.2214 17.609 15.2214 17.6073C15.2214 17.6057 15.2214 17.604 15.2214 17.6023C15.2214 17.6007 15.2214 17.599 15.2214 17.5974C15.2214 17.5957 15.2214 17.594 15.2214 17.5924C15.2214 17.5907 15.2214 17.589 15.2214 17.5874C15.2214 17.5857 15.2214 17.5841 15.2214 17.5824C15.2214 17.5807 15.2214 17.5791 15.2214 17.5774C15.2214 17.5757 15.2214 17.5741 15.2214 17.5724C15.2214 17.5708 15.2214 17.5691 15.2214 17.5675C15.2214 17.5658 15.2214 17.5641 15.2214 17.5625C15.2214 17.5608 15.2214 17.5592 15.2214 17.5575C15.2214 17.5558 15.2214 17.5542 15.2214 17.5525C15.2214 17.5509 15.2214 17.5492 15.2214 17.5476C15.2214 17.5459 15.2214 17.5442 15.2214 17.5426C15.2214 17.5409 15.2214 17.5393 15.2214 17.5376C15.2214 17.536 15.2214 17.5343 15.2214 17.5326C15.2214 17.531 15.2214 17.5293 15.2214 17.5277C15.2214 17.526 15.2214 17.5244 15.2214 17.5227C15.2214 17.5211 15.2214 17.5194 15.2214 17.5178C15.2214 17.5161 15.2214 17.5145 15.2214 17.5128C15.2214 17.5112 15.2214 17.5095 15.2214 17.5078C15.2214 17.5062 15.2214 17.5045 15.2214 17.5029C15.2214 17.5012 15.2214 17.4996 15.2214 17.4979C15.2214 17.4963 15.2214 17.4946 15.2214 17.493C15.2214 17.4913 15.2214 17.4897 15.2214 17.488C15.2214 17.4864 15.2214 17.4847 15.2214 17.4831C15.2214 17.4814 15.2214 17.4798 15.2214 17.4781C15.2214 17.4765 15.2214 17.4749 15.2214 17.4732C15.2214 17.4716 15.2214 17.4699 15.2214 17.4683C15.2214 17.4666 15.2214 17.465 15.2214 17.4633C15.2214 17.4617 15.2214 17.46 15.2214 17.4584C15.2214 17.4567 15.2214 17.4551 15.2214 17.4535C15.2214 17.4518 15.2214 17.4502 15.2214 17.4485C15.2214 17.4469 15.2214 17.4452 15.2214 17.4436C15.2214 17.4419 15.2214 17.4403 15.2214 17.4387C15.2214 17.437 15.2214 17.4354 15.2214 17.4337C15.2214 17.4321 15.2214 17.4304 15.2214 17.4288C15.2214 17.4272 15.2214 17.4255 15.2214 17.4239C15.2214 17.4222 15.2214 17.4206 15.2214 17.419C15.2214 17.4173 15.2214 17.4157 15.2214 17.414C15.2214 17.4124 15.2214 17.4108 15.2214 17.4091C15.2214 17.4075 15.2214 17.4058 15.2214 17.4042C15.2214 17.4026 15.2214 17.4009 15.2214 17.3993C15.2214 17.3977 15.2214 17.396 15.2214 17.3944C15.2214 17.3927 15.2214 17.3911 15.2214 17.3895C15.2214 17.3878 15.2214 17.3862 15.2214 17.3846C15.2214 17.3829 15.2214 17.3813 15.2214 17.3797C15.2214 17.378 15.2214 17.3764 15.2214 17.3747C15.2214 17.3731 15.2214 17.3715 15.2214 17.3698C15.2214 17.3682 15.2214 17.3666 15.2214 17.3649C15.2214 17.3633 15.2214 17.3617 15.2214 17.36C15.2214 17.3584 15.2214 17.3568 15.2214 17.3551C15.2214 17.3535 15.2214 17.3519 15.2214 17.3503C15.2214 17.3486 15.2214 17.347 15.2214 17.3454C15.2214 17.3437 15.2214 17.3421 15.2214 17.3405C15.2214 17.3388 15.2214 17.3372 15.2214 17.3356C15.2214 17.334 15.2214 17.3323 15.2214 17.3307C15.2214 17.3291 15.2214 17.3274 15.2214 17.3258C15.2214 17.3242 15.2214 17.3226 15.2214 17.3209C15.2214 17.3193 15.2214 17.3177 15.2214 17.316C15.2214 17.3144 15.2214 17.3128 15.2214 17.3112C15.2214 17.3095 15.2214 17.3079 15.2214 17.3063C15.2214 17.3047 15.2214 17.303 15.2214 17.3014C15.2214 17.2998 15.2214 17.2982 15.2214 17.2965C15.2214 17.2949 15.2214 17.2933 15.2214 17.2917C15.2214 17.29 15.2214 17.2884 15.2214 17.2868C15.2214 17.2852 15.2214 17.2836 15.2214 17.2819C15.2214 17.2803 15.2214 17.2787 15.2214 17.2771H13.9214ZM10.5 13.8563C12.3897 13.8563 13.9214 15.3876 13.9214 17.2771H15.2214C15.2214 14.6693 13.1074 12.5563 10.5 12.5563V13.8563ZM1.65 17.2771C1.65 15.3876 3.18168 13.8563 5.07143 13.8563V12.5563C2.464 12.5563 0.35 14.6693 0.35 17.2771H1.65ZM19.35 17.9643V20H20.65V17.9643H19.35ZM20 19.35H16.6071V20.65H20V19.35ZM16.6071 15.2214C18.122 15.2214 19.35 16.4494 19.35 17.9643H20.65C20.65 15.7315 18.84 13.9214 16.6071 13.9214V15.2214ZM15.9286 11.2071C14.7885 11.2071 13.8643 10.2829 13.8643 9.14286H12.5643C12.5643 11.0009 14.0705 12.5071 15.9286 12.5071V11.2071ZM17.9929 9.14286C17.9929 10.2829 17.0686 11.2071 15.9286 11.2071V12.5071C17.7866 12.5071 19.2929 11.0009 19.2929 9.14286H17.9929ZM15.9286 7.07857C17.0686 7.07857 17.9929 8.00278 17.9929 9.14286H19.2929C19.2929 7.28481 17.7866 5.77857 15.9286 5.77857V7.07857ZM15.9286 5.77857C14.0705 5.77857 12.5643 7.28481 12.5643 9.14286H13.8643C13.8643 8.00278 14.7885 7.07857 15.9286 7.07857V5.77857Z" fill="#F8F8FD" fill-opacity="0.85"/>
</svg>
